<mxfile host="app.diagrams.net" agent="Mozilla/5.0 (Windows NT 10.0; Win64; x64) AppleWebKit/537.36 (KHTML, like Gecko) Chrome/128.0.0.0 Safari/537.36 OPR/114.0.0.0" version="24.9.2">
  <diagram name="Strona-1" id="aQzxnaIhp14iEZIsVbL8">
    <mxGraphModel dx="3691" dy="2717" grid="1" gridSize="10" guides="1" tooltips="1" connect="1" arrows="1" fold="1" page="1" pageScale="1" pageWidth="827" pageHeight="1169" math="0" shadow="0">
      <root>
        <mxCell id="0" />
        <mxCell id="1" parent="0" />
        <mxCell id="Kt9OW5PYxR4Jgx1hHl5N-23" style="edgeStyle=orthogonalEdgeStyle;rounded=0;orthogonalLoop=1;jettySize=auto;html=1;strokeColor=default;align=center;verticalAlign=middle;fontFamily=Helvetica;fontSize=11;fontColor=default;labelBackgroundColor=default;endArrow=classic;endSize=12;" edge="1" parent="1" source="Kt9OW5PYxR4Jgx1hHl5N-2" target="Kt9OW5PYxR4Jgx1hHl5N-3">
          <mxGeometry relative="1" as="geometry" />
        </mxCell>
        <mxCell id="Kt9OW5PYxR4Jgx1hHl5N-26" style="edgeStyle=orthogonalEdgeStyle;rounded=0;orthogonalLoop=1;jettySize=auto;html=1;strokeColor=default;align=center;verticalAlign=middle;fontFamily=Helvetica;fontSize=11;fontColor=default;labelBackgroundColor=default;endArrow=classic;endSize=12;" edge="1" parent="1" source="Kt9OW5PYxR4Jgx1hHl5N-2" target="Kt9OW5PYxR4Jgx1hHl5N-10">
          <mxGeometry relative="1" as="geometry">
            <Array as="points">
              <mxPoint x="-110" y="504" />
            </Array>
          </mxGeometry>
        </mxCell>
        <mxCell id="Kt9OW5PYxR4Jgx1hHl5N-27" style="edgeStyle=orthogonalEdgeStyle;rounded=0;orthogonalLoop=1;jettySize=auto;html=1;endSize=12;" edge="1" parent="1" source="Kt9OW5PYxR4Jgx1hHl5N-2" target="Kt9OW5PYxR4Jgx1hHl5N-17">
          <mxGeometry relative="1" as="geometry">
            <Array as="points">
              <mxPoint x="-160" y="1065" />
            </Array>
          </mxGeometry>
        </mxCell>
        <mxCell id="Kt9OW5PYxR4Jgx1hHl5N-2" value="" style="shape=image;verticalLabelPosition=bottom;labelBackgroundColor=default;verticalAlign=top;aspect=fixed;imageAspect=0;image=data:image/png,iVBORw0KGgoAAAANSUhEUgAAAL4AAADQCAYAAAC5itu3AAAUjklEQVR4nO2dX2gb+bXHPwp5cOEWHOjDGBKoggt12EBsuOAR5KGKU1iHvRAJByyxhdShsOvcQhM3SyvFD47Udjd2Htp1Hy5x87BoDDGSoUscqDfKw4LGcC/2QiBe2JAp2KCBLtjQQAy7MPdBfyw5dmzL0sxo5nxgQLJHmvOzv3Pm9zu/8zs/rLZh2Zo8h8VQxio6bUpTeW0V9Yw1+UHECr+jWIAFitXzsxErlXtubThtXrP4bsN6vnDfunk1bKndlNsZtNSLzrQTm6/XEK83XlqPboctBQ8Kfy1jRagI4c0jeDVrvXTaxiZQ1CJ7trHSTjv/r8dwM0tpAoEAPzhxmkt38phO29MSOgh+8CnZlZds/NvCsiws6zXFfIpBBYwHo8w83XLayKNz/ASxiQxPVou8/m63dqbIfGWjPTbeZIdHT73pHbzm8d9CxUsqf1h22pSWsnyv1wKs2EP7/rPu9vj9ibJnsLD0lNPW2I4S7HPaBBvYYuNfRaCXvp8otl31uG1XEg6N8SwPQPSdoMOWtIhXBvrcFMk/mqgTOUbP2Xdpd3t8P/Mqz/R4Hs6liF/sdNqapmLORgkEAgR+eJrIZ1vEF16Sv63SYaMN4vFdiYH2YZwpUyU1fxPVTkXYjPl0hqmOTk4EU8R+al9DxeO7DoPcLy8Q/+wHjDzMkOj3nuqV4Wxp3Pbda4orGQY3poj3RJl5YZ8NInw38WqVmV+EiD5QGP37E+4PebRvX+F4B8q5GJMTN4EFknMrtl1ahO8WNnXS/xXm2uIZEv9Y4NP3PC76Gjp+eAIA83v75itE+C5g6+sZrv1niOTaJe4/fUTKY4PZ/TC+WQZAOS59fN9gPr5OuOcaj04leKLfZ8TGAZ59mOR+FSc9m2fV3KTq11+ZrMxeJ/6LHKAy9m6vfSbZNlXWCLvN3HpsFrcw8Zb21Rwp3WlLj0LRygy9rX2KFdPszUgSjy/YgELk3jLZv91k5KJKdfTSrRL5YJLss1Uyw/aOaQKWZVm2XlEQXIB4fMGXiPAFXyLCF3zJkXJ1AoFAs+wQBFsRjy/4EhG+4EtE+IIvEeEfgoGBAadNaDl+aCO0QPhWZY2sB4+BgQHHbZA2Hu1omfAFoR0Q4Qu+RIQv+BIRvuBLRPiCLxHhC75EhC/4EhG+4EtE+IIvEeELvsRnwtdJBwKlgqWBAIFAGt1pk5qGl9tWolpstnxEZxvfKsRfwl/Ks6wVq3kbRW2Z0BXNGzuteLltAJjk5/soVPNuCvTFukgvNfZt/qqW3J8g27/9Vgn2wZyBAdi3JUGL8HLbAFCIPUzUvA8SHIKsYUL/4VvoL4+/A30xCUNBvFil0sttA2A9T3YO+oKN3db+8vhlzNkoXbEckKJgxTziEUt4uW0ldNKBEEkgohVJ9O/7gV3xpcev1mfXIeSxQaCX21ZCJWFZWFaR6HxXwwNcXwq/Sn+YFMsY604b0gK83DYAFMKXI+ReGA192lfCN2ejdVEAc3aSJH0ETzpnU7PwcttK6KTrolQ6M7Ecke7GRjG+6uMr56MsnwqwXQ0oRcFKoDpoU7PwcttKqITPhugKxKs/iWhFssONjWJ29fgrd/vKkwR9TNm523SrORkjW7cG00PC8HLbyqi369fPNip62FX4K+S1lerryc+9NzwShDeFv7TA5Fcw+D/3SSlg/vURefu2JhIEW9gh/C3yf/8Uk0EiPxth8EYvmDPkdVG+4C3qhb9VIP/AhHcjhLuh92KcXkzSjwuI9AUvUSf8rS8XSJsQef9Saar7XJj4OeDuAgVRvuAhaoS/RWFxCogQPV8ZLfcSjvUCU+QWNx0wb292pqgGAgECd7wxENfvBN5o21FScF3HukZ05//O5lnmbeFv5sndBa7GGayZ9Ch1d2B6Po+7pA8MZSjWhvBueyiAN1FoWujOnUTIrDkXfq0Kf/Npjmlg5L0wddsLV7o7DxbIf2ujZYLQQsrC3yT/+QwAM5ETOx5BfYx9BTBDZtFlj9u5OF0e6+ZUGQ95s5tTJUf8lHOrxUrCX18g82D/k3OfPaKxlKDmU81CLK/GSY2HPCOQuhnKtQwcYaWRK9kxy1yYSNq+WuwYgLGYIQeM/n1jj/LKL7n/LvA4R/6FjdYdGJURrfFMPVdzMsbYBCwb3ripd0O9miFSXi1mF8fAID+3AIwyeL5zj9OChIcGgQVyX3pQXILvOMaLPLnHwG8jhPfSPRA8H2EQWJjNu6C7Y6LdeTNFNXXRC1EdnXTteGVdY3K8NsTc/pizabSadQL6gzi5ibC9UR3jqcYCcPNiiI63ndkdJvIusDhNzvGMTYUgNQPbQIjlIyxDcxdBgs+2B7aBU3H69Cwxz+TVgxKkZmAbIPQsQ9HmUHTAqt0f5bAf3mWf2yN8nev5+OOP+eijj5w2o6V4vY0VzfpqBZYgVBDhC75EhC/4EhG+4EtE+IIvcVz4u6XgBgIBb03R20R9qrYXi0nVV4Ru62rJO1fOW2sZIqQIeyImbyNLabpi29WEnch/aS0m2pXQdkXoI+YwOS78negP4qCNeK40Rmsx0e4lidT83Ur5L1nyXqmktjRDfC7FWGVdQjmHKbnY2HPNXcJf15gcr2mc0Dgng/SR83AJQQh2R+CZ0dBTzVXCF2/fKOU6kvN5D3VtdtAfJkWSfJPGfu4pIbiUJjSeomCJt28EZXiazHxXXYk9iJDxTI6PSkJPEVADJGt/PDHWUCl0l3j8N/uowmFRiD3cESQYihL2jPCB/kRdIKQwQcMZue7w+OWBS+GhePvmoJM+FadPtzy4MUQJczZazups7PMu8Pg6aTVJSvdekVN7qY1xTxJcszySpr1N7TxF14sxrIeN7/jiAo9f2uFCOCqlv2Ni/xPbFmU4izXcnO9ygccXBPsR4Qu+RIQv+BIRvuBLRPiCLxHhC75EhC/4EhG+4EtE+IIvaWpBqYGBAQYGBo5slCC0ii+++AKQSmqHwutVxsD7bZRKaoKvEeELvkSEL/gSEb7gS0T4gi8R4Qu+RIQv+BIRvuBLRPiCLxHhC75EhO86TLQrjZRMry+h7c0y4c1DhO86DAwyFCsVw/QUSTVaty/srizlt0toWxZFbdljZcKbiwvq6gj1qCQe1pTWKhdLNdaBt5UD7E+QrSkgpQT7YM7AAM9WUzsK4vHdzrrBMhGCh6yBqS8mYShIsDVWtT3i8V2NiXYjDlrxwDubm7NRumI5IEXBarzEntcRj+9aTLQrXcTPFsgeYqMMZThbHhtASAa4eyLCdyXborduN1hKtz9MimVP74hyFET4rqMk+uzl4qFEb85G68Ke5uwkSfoOPTbwC+0v/Fc6adVD24Su58nOQS7WVb8F6p23d1qU81GWa/4OpR0QXVx6/ftNVp9qTH0Y5UL4DF3VtnZxJnwN7UVrL9/mg1sD7cMIyXYXey0nY2StmH2fs51NVmdTXL8xRX7XSQaT1aczGN/eh+7WWdHGwt9CvxMn/plM0bQNr1aYig0y9rnz/7NyV2fndHfNI/PsBa7d0dCdt7UOY3aEyLgOKCgSs2sDDLQPa0Wv0DOcIqO/ZOPf2/tavf7Xcx79eYTOVrtky7IsyypYKbB426HErOyaVcdu59nBaz1lqeXrqRMF69HE9vVTeuuu+6c//al1X+4SWtPG19byH9QaLYWtxD82WnCd/anYsGNwm6puCW9V78Bl7r+vgKmRmltp8W14AP6pMXI5iQ4o72fI3FY54bRNwtt5kSH5+8rgXCU1/4jUxU5HTdo3qtPxo15GPrwOwMqrrZYb9FZe6aSH42gm0J8i99eYTMm7ni3yf0uyUH6n3psm0d/hqEVwwHDm1r83ABh5p6elxrydmgiOEiMzm0D9DwfNEQ7GVoGFP1b69SOMvd/rqDkV9h1CbH6dY3J8CuX9DInLTj2eaiM4Kqn5GWI/dsgU4XD8X56pyusPIoR/5KQx2+zw+ElCO6I6J3qipDdHmbo16Fi3ojaCE9MyrnhUCgfDWN2eeIuoPXR+v8nq4xnGfnmB0E9qtPaTEBd+OcbMY4NNG+w62Mzt19PEz54g9OsFjBYbtJPNxSTxWGlBhTqRY2ZYevXthLmWr77eXExzqecEZwavMfUgj147O/tCJ/9gimuDp+kJJ8l/21q79o3qWNZrNlYfkXpPQf/LJa4/sE/6W0tpBn+erovgiK9vJ0yMr7ff5T+bYeEAqQjm0zQXzsbR/tkyww7i8Tvo/OkgiXspwsDCY92e5Ww1YUuJ4HgEpYfYb++TXamftLK+e82GUeD+b8Lb6wdMjfit1i2dPHiSWveZUsLTlwbFFhmzjUlufDtsWViUCI4XSMw9J/PJCJFzQTpr/5/HO+j8scrIvScUtJrFM3OTZL5qjS0HF/5XhVIs9mIPXa2xpY6typTBUpLQD3dPp6gcofHtzyVrMhQDstjaVfzgAGkIweEUqXcr71ZY/qY1/8H9hf9qE2NphusfjLGCwuhQWJazCQem49CDsiB957cVln/Rmv7FjnswSSiQ3PNkdSLH5HvOTjUL7YRCsEeB8nP3+ZoJ/fu7zc6TISAHgPl9a7IF9vf43SrhqykyepGCbVEVhdjDndGlvY/CxPYnU3rN7x7KYmunCb4Trb7W/vc5B5Gx+U2u+jrS3ZqQRln4Kom9hPVNgSd/SxA7wJ0qCDvpVMOMVN7c1VjYNz6/QuHzymuFvmBrdNf+Sw8Fd/OjMJEPKuKdYfSGhvH9Xidvod8ZZawSyTk3xmD/XuceDRG+0GI6GbyRYrD8zvwsTujnY8wsGWxW+z1bbP4zz/SvLpVTUwAUbn4ySqtS2tp46aHQNnSP8KmWJ1ROPTGfTnFNneLanh9QGLy3QOpi60aU4vE9hDkbdW215OBwhtV/JAjv12VXwtzMFXj0m96WBlJE+F5hKV0uKVKJdCVdVy2582KKJ0aRgjbJ6FCYnupNEEQdGmVSK1A0njB5ufXJKZ7o6qi3LazbTlvhJCbavSQRrVito6NezRA5lSW/Hjtw3U1b6FBQh2+iDt901Azx+F7lZJA+clJCcA9E+J5AIXw5Qm4+76qujZvxRFdHAGV4msx8F12BeM1PI2Tc1M1xEeLxPcOONI+1DJGhKGER/q6Ix/ckOulTcfp0S3KV9kA8vmeoLQM5SXDNItGi6X4vIB7fM5QSDRNOm9EmiMcXfIkIX/AlInzBl4jwBV8iwhd8iQhf8CUifMGXiPAFXyLCF3xJoLwhVmMfDgTq3g8MDDAwMHBkowShVXzxxRdAk4UPcISvcz0ff/wxH330kdNmtBSvt7GiWenqCL5EhC/4EhG+4EtE+IIvEeELvkSEL/gSEb7gS0T4gi8R4Qu+RIQv+BIRvusw0a7Ub2eaXnLaJu8hwncdBgYZipWKaHqKpBpFk+KvTUWE7zpUErW7NfaHSUnV46Yjwnc76wbLRAhKDcymIpXUXI2JdiMOWtFdmzt4ABG+azHRrnQRP1vAGpbSr81GujqupEb0t9X9TxcOjXh811ESffZyUTx9C2lfj/9/aboCAQIBj4X61vNk5yAX66qL5QfuuGnzzvanTT3+JgsPP/Xmfk8nY2StmNNWeJ628vhbm5sYX+WYutLHpbuelL1gE23h8fU7AULjTlsheIm28viC0CzeFL6po929TlQ9XR1YnVYvcO3WDAtfbzpgoiA0nxrhb7Hylyinu0LEb02TWzKqvzGW8szcvcalnhOcHpxh1WYj1ds121haFpZVJDNksxGCp6gK35gdYfDXOQxURv78hJcbr6tCe73xkoKWItINxmMT8futRb9Tn5YcCASIznpoML+uEQ3sbGMaOwO2xyqGjMU0TFRSep77/x0m2NlRPamjM4g6nCC7WuTR7U469vo2oXlMFOqeclnPTWZFyKzVPsUT2DlHfRxgZW6SHKDemybR/xZZH1cYnBi1yTRBaB3HwGD1yxUgzMh7vU7bI1QYD3mzm1MlR/yUM90cgGNgYswDhDnTbfPVhV2pG8yvZSDW5a3lhydjZGu6cYWJJKErmq0z8RLHdzsnY4xNwLLhRa9fQr2aITJnYOx/atMQ4Qu+5BgoBC8D5Hn+wmlzBNBJ12ZirmtMjkeInvdOVMecTddl1OoP4uQmwrZGdY5BkJ7zvUCe6fkVGy8t7E6Q4LPtgW3gVJw+PeuppYdKkJqBbYDQswxFmxfcHAPofW+UQWDl1ijppa29z/7eZGF8Grk9WolC7GH9THWi32mbmkx/on4mvraqhE2U+vjdcVJ/UAGdpHqG6N0FVr/dvgG2Ng1W5qeI9nRx6c4mb7k1BKEtKKcld9D7uwUKRIn8Pk/u1iVyt3b/QHAoaPvdKQjNpiaq04n6uyesfvOI+78dIdwfrP4m2B9h9JMMT77Z4OXDGMFdvkgQ2ok3FqJ0dg8y8skgI05YIwg20RZx/DezFbuIz1V+m6uLEDg1BS60F20hfOFgmLPRtrn5653ZQW3VSTcpVVuE7xWW0nTF+ig4mP9yUMzZaCl2X7a1qC0fwFYT7UqIZa3YlBymthD+myuw9jvsze12HhPtXpKINlJtdyn/JUvehTWHjBc5OLsdHVSCfbBfrs7SDPG5FGOVdQnlHKbkYmPPtbYQvtAAJ4P0ubS8uHo1Q2Q8VC2SpS/W37QHJdgdgWdGQ081Eb4nUAhfjpCbz7uya/MGJ8NEhyDybLKUsjBe48n3oj9MiiT5JqVni/A9gjI8TYZ4uaxigEAgRNKldfX1O6XaoNmH2e0+/r4DXJWEniKpbg9uu2L1XabDIML3DDtyfNYyRIaihF0nfBPjGfQFt+WqnI8SYXn/btmOHJ/CBKQuNjaaE+F7Ep30qTh9N+xP/tofheBZSN7bjuKYX2bJ0Xeop1MlMjTSYAKfCN8z1Ma4JwmuuTerU71drOuWlcKw+0fiaucpul6MHSmrsy1qZwoHQSVhWSScNuNAlLplh60JrQxnsYabY4F4fMGXiPAFXyLCF3yJCF/wJSJ8wZeI8AVfIsIXfIkIX/AlInzBn1hHAPDVMTAw4LgN0sbmHOLxBV/y/+4RmDJroCQVAAAAAElFTkSuQmCC;" vertex="1" parent="1">
          <mxGeometry x="-240" y="-160" width="190" height="208" as="geometry" />
        </mxCell>
        <mxCell id="Kt9OW5PYxR4Jgx1hHl5N-24" style="edgeStyle=orthogonalEdgeStyle;rounded=0;orthogonalLoop=1;jettySize=auto;html=1;strokeColor=default;align=center;verticalAlign=middle;fontFamily=Helvetica;fontSize=11;fontColor=default;labelBackgroundColor=default;endArrow=classic;endSize=12;" edge="1" parent="1" source="Kt9OW5PYxR4Jgx1hHl5N-3" target="Kt9OW5PYxR4Jgx1hHl5N-4">
          <mxGeometry relative="1" as="geometry" />
        </mxCell>
        <mxCell id="Kt9OW5PYxR4Jgx1hHl5N-30" style="edgeStyle=orthogonalEdgeStyle;rounded=0;orthogonalLoop=1;jettySize=auto;html=1;strokeColor=default;align=center;verticalAlign=middle;fontFamily=Helvetica;fontSize=11;fontColor=default;labelBackgroundColor=default;endArrow=classic;endSize=12;" edge="1" parent="1" source="Kt9OW5PYxR4Jgx1hHl5N-3" target="Kt9OW5PYxR4Jgx1hHl5N-7">
          <mxGeometry relative="1" as="geometry">
            <Array as="points">
              <mxPoint x="140" y="224" />
            </Array>
          </mxGeometry>
        </mxCell>
        <mxCell id="Kt9OW5PYxR4Jgx1hHl5N-3" value="" style="shape=image;verticalLabelPosition=bottom;labelBackgroundColor=default;verticalAlign=top;aspect=fixed;imageAspect=0;image=data:image/png,iVBORw0KGgoAAAANSUhEUgAAAL4AAADQCAYAAAC5itu3AAAU1klEQVR4nO3dUWgbV77H8a9CHly4BQf6IEMCVXChDi3EhgseQR6iOAtx6IWMcMASXUiVXUidu7C1m7IrJQ+O1N02dh52671wsZuHojHESIEtUaBplIdeJMMudiAQBxoyCw5oYAs2NBBDA3MfbFmjxI4dW5oZzfw/ILBs2foP/unozJmjczBbxpw5dhiTgaxZcbqUhnpmVspZc+ycakbeC5qACUGz62jCTOcfmEtOl9covyyZDwqT5vCZiKl0snacIVM57sxxYvPz7cizpcfmzYsRM4gHg7+YNVWqQXj5FjqTMx87XWMDVDR102OsHqed/9c9uNlshkAgwBv7DnLychHD6Xqaoo3Qua/IzT9m6WcT0zQxzWdUimn6g6BfG2Lq7orTRe7e3n3ERrPcWajw7JeNjjNN9p6N9dj4Int95fTLrYPXWvxXqLaSwc/nnC6lqeaudpuAGbtu33/W3S1+b3KtZTAxy2mnq7FdMNTjdAk2WGHp3xWgm553grY9617bnkm8Nv1+EYDoeyGHK2mSpzrlmXFSfzJQRvMMHbbvqd3d4vvZ0yITl4pwOE38eLvT1TSUMR0lEAgQePMg6jcrxAuPKV5UaLOxBmnxXUlH+zjOuKGQvjGMYmcibGbcnWK8rZ19oTSxd+07UGnxXUcn/9Ex4t+8QeJ6lmSv91IfHMytnrf98ozKfJb+pXHiXVGmHtlXgwTfTZ4uMPXrMNFrQYb+fofJAY/27av2thE8HGNsdBgokJqZt+2pJfhusVwm818Rzt4+RPK7Al994PHQW7S9uQ8A47l91ysk+C6w8nCKs/8ZJrV4ksm7N0l77GR2K/qPcwAE90of3zeMW+eJdJ3l5oEkd8qTJGw8wbOPQf63cTLTRRaMZdbb9acG89Pnif86DyiMnOi2ryTbLpXtxEZXbj12Fbc0+orjs9zSZacr3Y2KmR141fEFzZhm74wkafGFDYKoV+fIfT1M4rjC+tlLp4J6bozc/QWyg/ae0wRM0zRtfUYhXEBafOFLEnzhSxJ84Uu7mqsTCAQaVYcQtpIWX/iSBF/4kgRf+JIE/zX09fU5XULT+eEYoQnBN6ufkfXgra+vz/Ea5Bh3d2ta8IVoBRJ84UsSfOFLEnzhSxJ84UsSfOFLEnzhSxJ84UsSfOFLEnzhSxJ84UsSfOFLEnzhSxJ84UsSfOFLEnzhSxJ84UsSfOFLLRL8FZYfFtH+OsLZXx3jUEdgdfOwQIDAO2GOnT7P+HQZ47nTdYpWsWHw56/0rAWrh3E7d5vegD5znpPvvMG+rmPEfzfO1O0iC9Ytzh+VKc5MMBIL03HgJJn/W3asVtE6Ngj+PEVtfv3rsW/Lthb0IuPhBIXtbgpmFEgd6Scza9+WMqI1vRz82QJj96D/fydJB8H4202KLshR8L0Yw1/nmNOXePZL7VPzz5YeU/p6mMj6pthlUucmsG8bMdGKXgj+CsW/f4VBP+rRBP2fdIMxRbHsYPLbVMaKFfT7WcbOqHS/3U6bZcXPtvYQypkx7twaQ6l+894YhX86UaxoFfXBXylRvGbACZVIJ3Qfj9ONQeZWCaeir3yaY/hocOtdrw+rnD9VvWPwQDde9Wjhc3XBX/mhQMYA9cOTq9u1HI4QPwxcKVByQXfn1d6oW/s51BHc/KHC9yzBX6F0exxQiR6phqabSKwbGCd/2+2jJRUqP1a/TtDzrpO17E75smW4du0WnfbQO9gTjWjgxWPMYOcwSi34y0XyV4Azcfr31x6w2t2BiRtF3Bv9FRb+J83I2tCr8vkQ/W85W9GujZbqlr7LDXrtHUwlu2hd3i9ZO0ezwXrwl+/mmQASH0So21642t25VqD4k42VbcfKMvq9POOnD3Ho4zwAoTM5sn/o3vqcQPjaWvCXKX47BcCUuu+Ft6CetZZ0iuxtN7zdlslUa3tjHwe7o4zM6NDZz7D2gLmvVezdOLJJLoW92c1Zlyd+wJluDlSD/6RA9trWD85/cxO9yQXtyLsqY1+mGfqgq/7dqkUpFy1dgMUsxDrIzDpdVQPtj5GzdONKoynCpzXsfHnvAdBvZ8kDQ39f2mR55cdMngBu5Slu9yqqnR7mGVF7OPjmQU5eyKN7ac7O/hgjozDn4eFZ5UwWdUa3tVHdAzrFmQIwRP+RzdrLEJGBfqBA/gen23yFpGm9clvhQXGS4aNBQKdwJUr4I82d70zCNfbwqEj+FvCpSuQV/YTQEZV+oDBddFWo2tqDdB1NMPZdka9OrH7P+CZO5oZ7x6BerUzmsqXH+0Rj7JJ1iLn1GdMZtCe1++VrcfKjEXtHdfS7GgVg+Hj41SMhnRHUE8DtCfIOz9jc0N4uEr8fXr87daNoa5+xcUKE7tdObAMH4vSUc8T2b/2brSIYwnJiGyB8P0vlop2xh72h39zB/M12HhoiUTBJNLuiXWh7c1/tzn2dCtB67WSQ2HWTmNNlNFNvEtNMOlpCi3wQRYjG8lTw53/I1e4oXd4YzxdN4e7gz44TvVJA38Z56spshqELtVn4ieNhT4zpi+Zwd/BZIX/hJAf3HST8UQbt1jz6smWa6PMVjIdFtMtRDimp2tW/3jGGTknsxeb2bv0QN9ApX0tRvpba+qHBGNnpYbqbX5RoYe5u8d/qYujE9nvqoYExSvezxN5uXkluZkxHHZvmaw/LPK1dzmFyd/A7Vb4qPMb8+TFz+UmS51QiR7ssQ5RBuo6qDF2c5ObCEo+vD6O0+nTknZrN0BHroeTg/JfmMtBOh5nTKo2Zw2TuAvDSzcv+/Oc/O13CJipmdgBT1Sq1by1mTRXVzC6+3l9y7TGW0yakzZLlW6VRTEZLm/7KRqo5dXeLL3Zuf4ge8uhPtn5oqwp1qnBf39G7mgTfE4JETqnkW3aaxjb0RkiTotig6dktMqojthIcnCB7o4OOQNzyXZWsZ+b4KCTLaQJKgLqxvdGRHU1LkRbfM1bn+JiWD7CoA1Eingk+a3N8rB9ggfTxnU1ukxbfk8pkDsTpKZstOElve4zp6Nqszp39vrT4nmEd4x4jtGiS7HW6psayXqfoeDSCeT224xe2tPiesfrJNGcn+zZXcDCHOdiYvyUtvvAlCb7wJQm+8CUJvvAlCb7wJQm+8CUJvvAlCb7wJQm+8KXA2uT8nf1yIFB3v6+vj76+vl0XJUSzfP/990CDgw+wiz/nel988QWfffaZ02U0ldePsZpZ6eoIX5LgC1+S4AtfkuALX5LgC1+S4AtfkuALX5LgC1+S4AtfkuALX5Lgu46BdjpgWe474K1dzV1Cgu86OjpZKtUVw8ppUkq0bl9YsXsSfNdRSFoXSuqNkPb4qsdOkOC73ROdOVRCXloD0wVkJTVXM9A+iYNW8dTO5m4gwXctA+10B/H3S5iDXl361TnS1XElS+gv7mwZbPFq0uK7zmroc6cq0tI3Ueu3+E/LZBQPjXk/KZKbgXyso24sP3DZY5t3Pl9m4a7G+MdRjkUO0bF+rB0cipxFe9Tcp2/xFl9H+1gl1epht9ofI2fGnK6iiZZZmE5z/pNxihtu2GWwcHcK/adJ6GxeFS0c/BXKl+PEv/Hsdmfe83Se8Vg/I986/z9b6+rU7xhtvXW8f4yzlzXKztdaR59OoF4qA0GC0hVuATrax9bQB+kaTJMtP2bp59q+Vs/+/YCbf0nQ3uwmeW2rXDO9wWbNdbdgzMwtbrxZLjZv8PysnDaVtedTRkvmzdHa86fLzXte125+3EDNOcZn5tzniiVLETP53VITnmdrbLzBc3p9S3hz/RU4x+SHQTA00jPzTX4ZbsO/NBKnUpSB4IdZshcV9jldk3i1R1lSf6yenCukb9wkfbzd0ZK2HNVpe6ubxMfnAZh/utL0gl7paZnMYBzNAHrT5P8WI+RsRWJLKxS/TlFYu6dcnSDZ2+ZoRbDN4cyVn5cASLzX1dRiXs0yghOMkZ1OovyHg+WI7VkpUfhTtV+fYOTDbkfLqdryFGL5YZ6xS+MEP8ySPOXU25N1BEchfWOK2NsOlSJezz+LjFe/PqcSecvJYmpeaPFThF8Y1dnXFSWzPMT4hX7HuhXWEZyYlnXFW6XYHn2hduFNVbpof77Mwq0pRj46RvgdS9beCXPsoxGmbuks21DX9q7cPpwg/v4+wr8roDe5oBct304Rj2kYgDKaZ2pQevWtxFgsrn+9fDvDya59HOo/y/i1ImXr1dlHZYrXxjnbf5CuSIriT82ta8tRHdN8xtLCTdIfBCn/9STnr9kX/ZXZDP2/ytSN4Ehb30oM9Ie1e8VvpihsYyqCcTfDsffjaP9qWmHbafHbaH+3n+TVNBGgcKuMLdeyLMOWMoLjEcEuYp9Okpuvv2hl/vKMJb3E5O8jtU+eGRrxC1rTsrb9SWqdh1AAftCpNKmYGoP8pdqwZem2jOB4QXLmAdkvE6iHQ7Rb/59722h/WyFx9Q4lzfKxy5kxsveaU8v2g3+vtDoWe7yLjubUUmeleslgNkX4zY2nU1Rv4Uu130tZZmoGTjevxRCv741tTEMIDaZJn6jem2fux+b8B7cO/tNl9Nkpzp8bYZ4gQwOWtyMhttD22idlIXqO1BJWfNSc/sULr8EU4UBq0wcro3nGPnD2UrNoJUFCXUFYe999sGhA79bNZvv+MJAHwHjenNkCW7f4nQqRM2my5Qol20ZVgsSuvzi6tPmtNFr7zXTZ8jPrMh3CEaH3outfa/94wHZibPyYX/9a7WzOkMZa8BWSmwXrxxJ3vk4S28YrVYgXtSsREtU7VzQKW47Pz1P6tvp1kJ5Qc3LX+h89FO72VgT1XDW8Uwx9oqE/3+zBK5QvDzFSHck5PEJ/b3PKkuCLJmun/5M0/Wv3jG/ihH81wtSszvJ6v2eF5X8VmfjtybWpKQBBhr8collT2lr4o4eiZXQm+EorEl6bemLcHeesMs7ZTX8hSP/VAunjzTujlBbfQ4zpqOX6xupUD7cIDWZZ+C5JZKsuezDCcL7Ezd93N3UgRYLvFbMZOmI963OtSqMpwi67gNd+PM0dvUJJG2NoIELX+osghDIwxJhWoqLfYexU8yeneKKro1w0MS86XYWTDLSrKVStQnXdNeVMFvVAjuKTmLvW3WwLogwOowwOO1qGtPhetT9EjywvvikJvicEiZxSyd8ouqpr42ae6OoICA5OkL3RQUcgbvmuStZN3RwXkRbfM16Y5rGYRR2IEpHgb0hafE8qkzkQp6dsylylTUiL7xnWZSDHCC2aJJt0ud8LpMX3jNWJhkmny2gR0uILX5LgC1+S4AtfkuALX5LgC1+S4AtfkuALX5LgC1+S4AtfCqxtiLWzXw4E6u739fXR19e366KEaJbvv/8eaHDwAXbx51zviy++4LPPPnO6jKby+jFWMytdHeFLEnzhSxJ84UsSfOFLEnzhSxJ84UsSfOFLEnzhSxJ84UsSfOFLEnzXMdBO129nmpl1uibvkeC7jo5Olkp1RbRympQSRZPFXxtKgu86Cknrbo29EdKy6nHDSfDd7onOHCohWQOzoWQlNVcz0D6Jg1Zx1+YOHiDBdy0D7XQH8fdLmIOy9GujSVfHlSyhv6hs/XDx2qTFd53V0OdOVaSlb6LWbfH/maEjECAQ8NhQ35MiuRnIxzrqxvIDl920eWfra9EWf5nC9a+8ud/T/hg5M+Z0FZ7XUi3+yvIy+r0846d7OHnFk7EXNmmJFr98OUD4ktNVCC9pqRZfiEZ5OfhGGe3KeaLKwfUTq4PKMc5emKLwcNmBEoVoPEvwV5j/a5SDHWHiFybIz+rrP9Fni0xdOcvJrn0c7J9iweYilYuWbSxNE9OskB2wuQjhKevB16cT9P8uj45C4i93eLz0bD1oz5YeU9LSqJ2g3zKQdr+5ypfrpyUHAgGi0x46mX+iEQ28eIwZ7Byw3VMtZCSmYaCQLheZ/O8Iofa29Qe1tYdQBpPkFircvNhO22Z/TTTOaKnuXS7nuYtZKtlF67t4EjuvUe8FmJ8ZIw8oVydI9r4i1nuD9I8O2VSaEM2zB3QWfpgHIiQ+6Ha6HlF1KezNbs66PPEDznRzAPaAgX4DIMKhTpufXWyo7mR+MQuxDm99/HB/jJylG1caTRE+rdl6JV7G8d1uf4yRUZjTvdjqr1LOZFFndPStH9owEnzhS3sgSOgUQJEHj5wuR0CZjHUm5hONsUsq0SPeGdUxpjN1M2rL1+LkRyO2jursgRBdR7qBIhM35m18arGxEKH7tRPbwIE4PeWcpz56GAxhObENEL6fpWLzB272AHR/MEQ/MH9hiMzsyuaPfm5QuDSBvDyaKUjsev2V6mSv0zU1WG+y/kq8dVUJm6z28TvjpD9XgDIp5RDRKwUWfqq9AFaWdeZvjBPt6uDk5WVe8dIQoiWsTUtuo/sPBUpEUf9YJH/hJPkLG/9CaCBk+6tTiEazjOq0o/zhDgs/3mTy0wSR3tD6T0K9KkNfZrnz4xKPr8cIbfCHhGglL30Qpb2zn8SX/SScqEYIm7TEOP7LsxU7iM9Uf5qvGyFw6hK4aC0tEXyxPcZ0tGVe/PWN2XZrLZNp0FRtCb5XzGboiPVQcnD+y3YZ09HVsfu1Wiva3DZqNdBOh5nTKg2Zw9QSwX/5E1hb3eyd2+08A+1qClVLrB/36vyXHEUXrjmkP8rD+7XRwWCoB7aaqzM7RXwmzUj1cwlrc5hSt3f2vtYSwRc7sD9Ej0uXF1fOZFEvhdcXySrfrn/RbleoU4X7+o7e1ST4nhAkckolf6Poyq7NS/ZHiA6Aen9sdcrCJUtLvpneCGlSFBs0PVuC7xHBwQmyxNeWVQwQCIRJuXRd/fLl1bVBc9dztT7+lie4CslympRSO7ntiNV3mV6HBN8zXpjjs5hFHYgScV3wDfT70BOqxTV4JIrK3Nbdshfm+JRGIX18Z2dzEnxPKpM5EKfnE/snf20tSOh9SF2tjeIYP+TI0/Na707VkaHEDifwSfA9wzrGPUZo0b2zOpWLlbpu2eow7NYjcdbrFB2PRnY1q7Ml1s4U26GQNE2STpexLavdstddEzo4mMMcbEwF0uILX5LgC1+S4AtfkuALX5LgC1+S4AtfkuALX5LgC1+S4At/MncB8NWtr6/P8RrkGBtzkxZf+NL/A1lG1EKoO5/HAAAAAElFTkSuQmCC;" vertex="1" parent="1">
          <mxGeometry x="40" y="-160" width="190" height="208" as="geometry" />
        </mxCell>
        <mxCell id="Kt9OW5PYxR4Jgx1hHl5N-28" style="edgeStyle=orthogonalEdgeStyle;rounded=0;orthogonalLoop=1;jettySize=auto;html=1;strokeColor=default;align=center;verticalAlign=middle;fontFamily=Helvetica;fontSize=11;fontColor=default;labelBackgroundColor=default;endArrow=classic;endSize=12;" edge="1" parent="1" source="Kt9OW5PYxR4Jgx1hHl5N-4" target="Kt9OW5PYxR4Jgx1hHl5N-5">
          <mxGeometry relative="1" as="geometry" />
        </mxCell>
        <mxCell id="Kt9OW5PYxR4Jgx1hHl5N-4" value="" style="shape=image;verticalLabelPosition=bottom;labelBackgroundColor=default;verticalAlign=top;aspect=fixed;imageAspect=0;image=data:image/png,iVBORw0KGgoAAAANSUhEUgAAAL4AAADQCAYAAAC5itu3AAAUgElEQVR4nO3dYUgb6b7H8W9KX7hwFizsixFa2BQX1rKFKlxwAvuiqS400gtNsGBCD3TTc6Br74GtrsuepH1h456zW+2Lc+o5cNEWbskIlaRwDqawXdMXe0mEu2ihUAstzkILGdgFhS0obGHuC41JWjVWTWaS+X8gYDQm/9FfnjzzzMzzYNaMWXP4GCbdcTNndSl7atnMZePm8AW/6f1IMQETFLPleNiMJR+bi1aXt1d+WzQfp8bMvnNeU21mbTvdptppzXZS5dfbkeXFBXPqstdUqMPgP4+bfvJBePPmPpcwF6yucQ/kNP+m25jfzmr+X/dhZzNDuFwu3jlwmK6raQyr66mIBtwXbpCYW2DxVxPTNDHNZXLpGD4F9Fu9jD9YsbrI3dt/gOBgnOn5HMu/bbSdMeIPq1hPFd9kby8be7N1qLcWfwv5VlL5etbqUipq9nqrCZjBO9X7z9q7xW+PrLUMJmY2ZnU1Vae426wuoQpWWPw5B7TS9oFStVfdX7VXEm9Nf5QGIPCR2+JKKuSlTnZyhOhfDNTBJL3HqvfS9m7xnexlmtEraTgWI9TZaHU1e8qYCOByuXC9exj/7RVCqQXSl1UaqliDtPi2pKN9FmLEUInd7UOtZiKqzHgwzkhDIwfcMYIfVm9DpcW3HZ3kpycI3X6H8J04kfb6S73Sk1jdb/ttmdxcHN/iCKGWAOPPqleDBN9OXs4z/nsPgVsKvf+aZqy7Tvv2efsbUI4FGR7sA1JEJ+eq9tISfLtYyjL0n17O3z9C5LsUN07VeeiLNLx7AADjVfWOV0jwbWDlyTjn/8ND9HkXYw+miNXZzmw5+tNZAJT90sd3DOPeRbwt55k6FGE6O0a4ijt41WOQ/GOIoYk088YS6+36S4O5iYuEfp8EVPpPtlavpKodKtuJjY7c1tlR3MzgFttXdItlra50N3JmvHur7VPMoFbdM5KkxRdVoOC/PkviZh/hTpX1vZdmFf+FYRKP5on3VHefxmWaplnVVxTCBqTFF44kwReOJMEXjrSrc3VcLtde1SFEVUmLLxxJgi8cSYIvHEmC/xY6OjqsLqHinLCNUIHgm/lrZOvw1tHRYXkNso27u1Us+ELUAgm+cCQJvnAkCb5wJAm+cCQJvnAkCb5wJAm+cCQJvnAkCb5wJAm+cCQJvnAkCb5wJAm+cCQJvnAkCb5wJAm+cCQJvnCkGgn+CktP0mh/7+f8Jyc40uRaXTzM5cL1gYcTZy4yMpHFeGV1nTuzvhjaW94CE/W55HU1bBj8uWtta3/cNkaqudr0BvTJi3R98A4HWk4Q+tMI4/fTzBf/v59lSU+O0h/00HSoi6H/XbKsVlE7Ngj+HGltbv3r4X9nq1rQ64wno6S2uyiYkSL6sY+hmeotKSNq05vBn0kx/BB8/z1GTAHjH1OkbZAj5aMgfTcTzOqLLP9WuGp+eXGBzM0+vOuLYmeJXhilesuI7S2/ltv2jAGJnuqtBF5vXgv+Cul/3cDAh/94GN+lVjDGSWctTH6Dn+F0Dv1RnOFzflrfb6ShaMbPhkY36rlhpu8No+a/+XCY1I9WFCtqRWnwVzKkbxlw0o+3GVo7Q7RiMHQvg1XRV79I0HdcKb/q9TE/F0/n7xg81mXHT2yuJPgrP6QYMsB/tmt1uZZjXkLHgGspMjbo7mztnZK5n91N0g0QmysK/gqZ+yOAn8DH+dC04g22AiMk79t9tCRH7mn+6zBtH1pZi7C7QvCX0iSvAedC+A4WHrDa3YHRu2nsG/0V5v8Zo39t6FX9uhffe9ZWJOxtPfhLD5KMAuFTXkqWF853d26lSP9S7fLKWFlCf5hk5MwRjnyWBMB9LkH8q9by+wQ2lbnU+tqBqsN4PjnB+YFxkg9lv2XPmKZpmuaimThXfq1Vv1a6quxGj6m8jBnbqL5mn9mnPTYXK/jKf/3rXyvyvDnNv621bgHTfTJmTv9ckTJM06zcNtpF/u+42uK/SBG/Vf5Nkrw9hb7799re+9DP8Lcxek+1lH5a1SH9XpQTR0NoP1ldSW3bB6Dfj5MEev+1uMnBkgXGTgL3kqS3exS1mp4k6fe3cfjdw3QNJNFr7ZydhibCX4yRyD4mt7hc8rdfXszxOB0n1l20ALKhERrQkI7PLpjmgjl2EhN6zakt+gkLN30mYPpuFpZex5KuTqnlxZz5OD1m9h1X1mtQzsbNSiwQb3U3YOF/gqay/rduNYfn9v41rN7GSmO9q/MsTfIe8IUf7xb9BPfHfnxAaiJtq+5OQ6NCy/Eww9+luXFy9XvG7RBDd+07BrVT7rMxYifz9+bIzEubv1P79AcaKaCv07P1SEizF/9J4P4oSYvP2NzQ/hbCn/et3x2/m67DroCbts7W9XuZn3IW1lLb9rv/MI35h+081E04ZRKudEW70PDugcKdRzo5oN6O3zb+rrCNxivbH063rRq5EEWsWkF/ml6/5292b/FYsZW6Cv7cD4nCHbWFuovFywyp2/k7rXha6u3zrHrsHfyZEQLXUujb2E9dmRmid6BwFn6401MTY/rGZD/9E3MslR2C1UkO9DOS33E52Yv/WIWLq2P2Dj4rJAe6OHzgMJ5Ph9DuzaEvFfVrX61gPEmjXQ1wRI2yfq1Y+zC9p2sh9sArnZFgGwcOHSE0ME7yoc7Sy6KfvzSYfzBOv9dD4J/5N7ZC3+eh+vtEq6L95R9iBzrZW1Gyt6LlH6oEiU/00Vr+kfZizKNdO492rdwDFbxfJ4l11urZSPZg7xb/vRZ6T26/XXN3D5N5FCf4fuVK2msNSlvRZZNlKF76tDRTX6k1exLeTmWvFp24d2b3R63tHfxmPzdSC5i/LjCbHCNywY/3eEvREKVCy3E/vZfHmJpfZOFOH2qNnY7ceDzCdG6Zxflp4n/rI9zpRW0uekCzire7l2EtQ06fZrinxXGhNyYCeB7FyZkmppkjToimq7ucBGEvDv9i4SkL1VTvh/NN047buHo2bixb9K1szISYmdnBs1FydqYQteSgGz+z6C92/hQSfGFzKt5BiN7f2/mdamRURziZejlDzOXBdaX4uzH6D272G+VJiy9qgEqk+PqQbAwGvYV5lHZAWnxRW15oBNRZ4s8ju3oaafGF/b3QCOTH8A/p9JsJgrvo5oC0+KIWHAySMIN7+pTS4gtHkuALR5LgC0eS4AtHkuALR5LgC0eS4AtHkuALR5LgC0dyrZ2cv7NfdrlK7nd0dNDR0bHrooSolO+//x7Y4+AD7OLpbO+bb77hyy+/tLqMiqr3bcxnVro6wpEk+MKRJPjCkST4wpEk+MKRJPjCkST4wpEk+MKRJPjCkST4wpEk+LZjoJ0pmhLb5WJoxuqa6o8E33Z0dPJTYq/OGhZVA2i7mCBVvEmCbzsqkTvBwhoA7V5iJHc1M7B4kwTf7l7ozOLHvcuZw0QpmUnN1gy0SyHQcrueMk+UkuDbloF2ponQ0Qxmj6xnu9ekq2NLRaG/vJvJsMVmpMW3ndXQJ07npKWvoNpv8V9mGVLraMz7RZrEJCSDTSVj+a7drvJnN6+WmH+gMfJZgBPeIzStb2sTR7zn0Z5V9uVrvMXX0T7zE631sBerwJTY9rLE/ESMi5dGSG+4WO3qSu76L2PQvNHP90YNB3+F7NUQodu7XepXVM3LOUaCPvr/bf3/bK2rk2XIVXqYPH9rOnqC81c1stbXWkKfCOO/kgUUFOkK1wAd7bPi0Cu09MSIZxdY/LWwvtXyz4+Z+luYxko3ycWL6LLVTQmaiecbL5ZLlRd4Xs7GTHXt9dTBjDk1WHj9koWA95j9Fj/ee5XZxmVz9mu1KEteM/LdYgVepzw2XuA5RqZ4dTnTZPnnWcbOKmBoxCbnKvw23IafNMKno2QB5Wyc+GWVA1bXJLb2LE70z/mdc5XY3SlinY2WllR2VKfhvVbCn10EYO7lSsUL2tLLLEM9ITQDaI+R/EcQt7UVibJWSN+Mklq7p14fJdLeYGlFsM3hzJVfFwEIf9RS0WK2VjSCowSJT0RQf2dhOWJ7VjKk/pLv14fpP9tqaTl5ZXchlp4kGb4ygnI2TuS0VR9PxSM4KrG74wTft6gU8XZ+TDOS//qCH+97VhZT8FqLH8Xz2qjOgZYAQ0u9jAz4LOtWFI/gBLW4LT4qxfbo84UDb361hcZXS8zfG6f/0xN4PijK2gceTnzaz/g9naUq1LW9I7dPRgkdPYDnTyn0Chf0uqX7UUJBDQNQB5OM90ivvpYYz9PrXy/dH6Kr5QBHfOcZuZUmW3x09lmW9K0RzvsO0+KNkv6lsnWVHdUxzWUW56eInVLI/r2Li7eqF/2VmSF8nwyVjOBIW19LDPQnhXvp2+OktnEqgvFgiBNHQ2g/Vayw7bT4DTR+6CNyPYYXSN3LUpVjWUXDljKCUyeUFoJfjJGYKz1oZf62zKKeYexzb+HKM0MjNKBVLGvbP0mt+QgqwA86uQoVU2CQvFIYtszclxGcehCZfEz82zD+Y24ai/+f+xtofF8lfH2ajFZ02eXkMPGHlall+8F/mFkdi+1soakytZRYyR8ymInieXfj0ynyN8+Vwu9Fi87UdJ2pXIsh3t472zgNwd0TI3Yyf2+O2aeV+Q+WD/7LJfSZcS5e6GcOhd7uoo8jIcpoeOudMjdtHxcSln5Wmf7Fa+/BKB5XdNMHq4NJhk9Ze6hZ1BIFd4sCa5+7j58b0F6+2Ww86AGSABivKnO2QPkWv1nFey5GPJsjU7VRFYXgnddHlza/ZQYLvxnLFv2seJoOYQn3R4H1r7X/e8x2Ymw8Ta5/7W+uzJDGWvBVIpsF62mG6ZsRgtt4pwrxukbVSzh/55pGquz4/ByZf+e/VmhzVyZ3tX/pobC397z4L+TDO07vJQ391WYPXiF7tZf+/EjOsX587ZUpS4IvKqwR36UYvrV7xu0Qnk/6GZ/RWVrv96yw9FOa0T92rZ2aAqDQ920vlTqlrYYvPRQ1oznMDS2NZ+3UE+PBCOfVEc5v+gsKvuspYp2V26OUFr+OGBOBouMbq6d62IW7J878dxG85brsipe+ZIapz1srOpAiwa8XM0M0BdvWz7XKDEbx2OwAXmNnjGk9R0YbprfbS8v6m8CN2t3LsJYhp08zfLryJ6fURVdHvWxiXra6CisZaNej+LUc+XnX1HNx/IcSpF8E7TXvZoOC2tOH2tNnaRnS4terg27aZHrxTUnw64KC97Sf5N20rbo2dlYXXR0BSs8o8btNNLlCRd/1E7dTN8dGpMWvG6+d5vE8jr87gFeCvyFp8etSlqFDIdqyppyrtAlp8etG8TSQw7ifm0QqdLi/HkiLXzdWTzSMWF1GjZAWXziSBF84kgRfOJIEXziSBF84kgRfOJIEXziSBF84kgRfOJJrbUGsnf2yy1Vyv6Ojg46Ojl0XJUSlfP/998AeBx9gF09ne9988w1ffvml1WVUVL1vYz6z0tURjiTBF44kwReOJMEXjiTBF44kwReOJMEXjiTBF44kwReOJMEXjiTBtx0D7UzpcqZDM1bXVH8k+LajoxMnl58RLRsjqgbQZPLXPSXBtx2VSPFqje1eYjLr8Z6T4NvdC51Z/LhlDsw9JTOp2ZqBdikEWs5eizvUAQm+bRloZ5oIHc1g9sjUr3tNujq2VBT6y2r5h4u3Ji2+7ayGPnE6Jy19BdVui//jEE0uFy5XnQ31vUiTmIRksKlkLN911U6Ld9a+Gm3xl0jduVGf6z0dDJIwg1ZXUfdqqsVfWVpCf5hk5EwbXdfqMvaiSmqixc9edeG5YnUVop7UVIsvxF55M/hGFu3aRQLq4fUdq8PqCc4PjJN6smRBiULsvaLgrzD39wCHmzyEBkZJzujrP9Fn0oxfO09XywEO+8aZr3KR6uWiZSxNE9PMEe+uchGirqwHX58I4/tTEh2V8N+mWVhcXg/a8uICGS2Gvxn0ewbS7otatxr8Fxr9QQ0DlVg2zdh/eXE3Nqw/qKHRjdoTITGfY+pyIw2bPZsQNWI/wNzkMElAvT5KpH2LWO9X8A32Vqk0ISpnH+jM/zAHeAmfarW6HiGqYh8Y6HcBvBxptrocIapDxvGFI0nwhSPtAwX3aYA0j59ZXY4Q1bEP3LR83AqkGb07Z3U9QlTFPoDWU734gLmBXoZmVjZ/9CuD1JVR5O0hat1qH785ROxrFcgSVY8QuJZi/pfCG2BlSWfu7giBlia6ri6xxVtDiJqwdlpyA61fpcgQwP/nNMmBLpIDG/+Cu9uNXBAnal3RqE4j6lfTzD+dYuyLMN529/pP3O1+er+NM/10kYU7QdwbPJEQteSNC1Eam32Ev/URtqIaIaqkJsbxs1dLJ1F1uZoITeZ/miR06PWfDyGXZout1ETwxfYYE4GaefOXNmbbrTXLUFEDF5jY+XXXEvx6MTNEU7CNzNo1FJnBKJ4zmi1nojAmAngeFWaEzmmz26jVQDvjYVbLrV4n8jwOwaYdT6FeE8F/8wqscrcIzpp/zEC7HsWvhde3Wz0Xxz+ZIG3DOYf0Z0k4WhgdVNxtMKmjb/VLM+OEJmP05yfZOhikfxCi93f2uVYTwRc7cNBNm02nF1fPxfFf8axPkpW9X/qm3S53sx8e6Tv6VJPg1wUF72k/ybtpW3Zt3nDQS6Ab/I+GcblceK4UteSbafcSI0p6j1aHkeDXCaVnlDihtWkVXbhcHqI2nVc/e3V1btDEnUShj192B1clko0RVQs7t03B0i7T25Dg1w2F4J2i/ZzncfzdAby2C76B/gja3IW4Kh8H8DNbvlvWHinZl8sMQqxzZ3tzEvy6lGXoUIi2S0Ebnl6i4D4K0euFURzjhwRJ2t7q0yk/MhRu31kVEvy6UTzGPYz7uUlkh6GoNPVyrqRbtjoMW34krvg4RdOzfsw7O39j18TcmWI7VCKmScTqMrZltVv2tnNCKz0JzJ69qUBafOFIEnzhSBJ84UgSfOFIEnzhSBJ84UgSfOFIEnzhSBJ84UzmLgCOunV0dFheg2zj3tykxReO9P8y6I8Sx9/1YAAAAABJRU5ErkJggg==;" vertex="1" parent="1">
          <mxGeometry x="320" y="-160" width="190" height="208" as="geometry" />
        </mxCell>
        <mxCell id="Kt9OW5PYxR4Jgx1hHl5N-29" style="edgeStyle=orthogonalEdgeStyle;rounded=0;orthogonalLoop=1;jettySize=auto;html=1;strokeColor=default;align=center;verticalAlign=middle;fontFamily=Helvetica;fontSize=11;fontColor=default;labelBackgroundColor=default;endArrow=classic;endSize=12;" edge="1" parent="1" source="Kt9OW5PYxR4Jgx1hHl5N-5" target="Kt9OW5PYxR4Jgx1hHl5N-6">
          <mxGeometry relative="1" as="geometry" />
        </mxCell>
        <mxCell id="Kt9OW5PYxR4Jgx1hHl5N-5" value="" style="shape=image;verticalLabelPosition=bottom;labelBackgroundColor=default;verticalAlign=top;aspect=fixed;imageAspect=0;image=data:image/png,iVBORw0KGgoAAAANSUhEUgAAAL4AAADQCAYAAAC5itu3AAAUWUlEQVR4nO3db2gT+b7H8XcWH3RhFyrsgymscCJdsLKCFS445e6DTdsFI14wwYUmeMCN54LWc2C31WVPqw9q6u5q64U9ei4cWoUriaAkwlkaYd3GB0JSOIdGWGgFpSO00MAuNLBCCwq/+6DNn2ptYs3MJJnvCwYymCbfMZ/55Te/30wGVTem1cheFEciatHuUqpqWS2mI2rkhE95PtYUoEBTbZ+GVDg+o5bsLq9ani+pmcSY6jvmUXora9vpVnq3PduJxe+3JctLc2rirEdpNGDw5yPKRz4Iry7uYzE1Z3eNVbAY9b12G/PbaeXn+g61bGoYl8vFu9t3cvB8kqzd9ZiiCfeJK8Qycyz9rlBKodQyi8kwXg2M672M31+xu8i3t207gaEIk7OLLD/faDvDRB5aWI+FO9mbS4dfbR0arcXfRL6V1C5M212KqaYvtytABW5Z98nWdou/f2CtZVCodNjuaiynuffZXYIFVlj6dRFoZ99HmmXvus2ydxJvzPglCYD/Y7fNlZjkmUH69iiD32bRh+L07rXurWu7xXeyZ0munkvC3jDB7ma7q6mq7E0/LpcL1/s78d1YIZiYI3lWp8nCGqTFr0kG0ZNBRrM64Tt96FYmwmLZ++OMNjWz3R0msMu6DZUWv+YYxL/oJHjjXUK3Igzsb7zUaz2x1eO258ssZiJ4l0YJtvkZf2JdDRL8WvJslvE/duC/rtH7z0nGjjRo3z5vWxPa3gAjQ31AgsHbGcveWoJfK3Jphv/Lw/F7uxn4KcGVQw0e+hJN728HIPvCuvkKCX4NWHk0zvH/6GBw/iBj9ycIN9jBbDnG42kAtG3Sx3eM7N1TeNqOM7FjgMn0GCELD/CskyX+30GGbyaZzeYotOvPsmRuniL4xzig03+g3bqSLJsq24qNZm4bbBY3NbTJ9pUs4bTdlb6NRRU5stn2aSoQtfaMJGnxhQU0fJeniV3rI9StUzh6adXxnRgh9ssskR5rj2lcSill6TsKUQOkxReOJMEXjiTBF470VufquFyuatUhhKWkxReOJMEXjiTBF44kwX8DXV1ddpdgOidsI5gQfJW/RrYBl66uLttrkG18u8W04AtRDyT4wpEk+MKRJPjCkST4wpEk+MKRJPjCkST4wpEk+MKRJPjCkST4wpEk+MKRJPjCkST4wpEk+MKRJPjCkST4wpEk+MKR6iT4K+QeJYn+rZ/jn3Wyu8W1evMwlwvXRx10fn6K0Ztpsi/srnNrCjdDe8PFf7P+bnmdnYoyetJP556Wwnbs1Ds5fmacxJOcdYWoDUxfbF/7+eZ2NZLZ6Bmr2OAnn6tt7lav8rZW9lPaaF4VfrBU9RryvvvuO1Net9zt7l+3+KLV/5F0s7ZR/TqpBj7VymyTpjxfxtTcc3NKUKqY2Q1a/AzJaKbweOTHdLX2sS3JPrpKotKbgmUTDH7iZXjKulvKiAo8jRLc08nw/XLfUFmS/+On44sohsklvRr8qQQjD8H7jzHCGmT/PkGyBnKkfRyg71qMaWOJ5efFq+aXl+ZIXevDU7gpdprBE1ex7jZi1eWLLlb8iwGxHuvuBL5lz9IM9wSJ5jPf6mMkMcPi7yWfoZFi7EsP+a3J3ggS/DaDqbFb/0WwrCa/0RR41djjfJdHUwPJ5U2/NkqXaktd9KmR5KLauIISmRGll3xlhv9V9VIs6eqY0X15E9Xexrlr3mI+9odV6vdNnhsNKK3wGfpUZL6qpSilXtfVWUmRvJ6FAz48rdDeHaSdLMN3U+bufZvQT8fo+1Qrf9frvT5OHc6vZJkx6u/Ar/FkiP+QWHusMXChD/291z/b3TNO5HS+3Y8zfte8Ds+64K88SDCcBd/Rg6u3a9nrIbgXuJQgVQPdnc29u+63n90tddANaHQLs6Qe5leCeMreor0Jj+9UocuTvJs2ra9fEvwVUvdGAR/+T/Jv3Y4n0A6MEr9n4VDTliyy+Dj/OMS+XXbWIl61nXcruaHjrnb8+cd3ZjDre7sY/FyS+CXgWBDvh8UnrHZ34OqdJLUb/RVm/zdM/1rrol/oxfuBvRWJLWreTkthZRZjwZy3KQQ/dz/OVSB0yMO62wvnuzvXEyR/M6eILVvJYTyMM/r5bnafjAPgPhYj8k17+WOCGpX6qv2liaqddHy2OsETf1hnxy3vNZeEOMlMpcPSVlg91l1SsWNvPmGy0XPMl1Lhjepr9aq+6Iwyb/qqNiaw3AfCavJXU8pQSlV7G+fU2IFi7drRiCp/N9vSz7f6Izv5WlZb/IUEkevld5L4jQnTJxa2ZJePkYtheg+1rf+2akDG3UE69wSJPrW7kkq48Z/oXTc+3+HpZ3zKIPes5GkvVsg9zZC4OUxwj49BK0pTqjjW2vvP17WX+T13dXz/5b2HWmjxQYFbeU+bN+VtWosf71Wh02Mqlp5Ri0vrZyyWlxbVTDKiwkfcltzVvfrbuKhix9xlv8k2Xsxr8SmGuldNbNJPyO8c3mtzr76IpcFfbzUYY6qv5DyQyr5S35xp57FUaO7/Sid4Nj+PaqvM2cYlNXnWU1L7Zg1Xr/IV1vvUZNmZyzdTDP7jMeUFxenJzWdH88/rHiuEqhaCX/B8Rl0p6U+G4tXv7dsd/Jf7zHV1kppSank+pSJDIeX5tK1kJ3ArvTuk+q5NqJlflVLzkWLw946o6SrXUMjq3D88ClB9P5XbtfL/6cWWpqaCr5Ra/qmvWMvRWNW7AvYHX6npy+2FbdQuVDsW9m/jus+wXGO8BfnX3ub+0yTqT5UcDbgJJRShSp5qk6b3txdXfjFYBBpt/rb5veI2Zl/U/HT6G1ohdT9SWOv9ZJ9pw9J1ciGKWLWC8ThZWPO1um2sxQRP41z9dm2uQhvA123eGF1DBT/zIFZc0dtosFjAsxSJG/mVdjraGun7zCB6ro/42pp+xo/HxFnI2g7+1Cj+SwmMCs6VWJkapvdM8Sz8UHdHXYzpZ2/3038zQ67sZZMG8TP9jOYnbw/04ttrcnFWyc0y/kUnwRtrG7d3gNE/tZv7ntU4UMCsg9t0uHjkfyysIolpNVc6zv18WS3OTqrIkE+5S+vYX/3RAKXMOfArzNpqbSpwekzFMnNqqfSc9d9fHa4FrYLBiK0x5+A2pUaOjKiJ2aXiwerzZbVkTKvYDyHl0UozpKtw2pxtU2rdOH4VXsT04L/BogVUxKhuGXmmBr/iRVOeC6mqj3bkmRX81086ln52XjWSMS/0Sm16zW0N+aCN3gOV99TdR0ZI/RIh8AfzSqq2Jm1fyWWTZWge+qJJJr7R6/YkvI1peL6MMDM7Qd9ea7ZsW/mn2KjVx5WEjyvPDDL3ksTuJUg/mmXm/uzaedoabZ924PlPL96AH++ueujVr9f86QCTi33kHqVI3EuQ/DHDjJEknT+TsVXH074P7+EgwcM6Wl0mXsN9zIP+4NXt0g94CR7y0mbxaeS1Hfy899y0Hw7RfriWZxHeRhPNuzwEdnkI/NnuWszgJnBtkoDdZZSo7a6OECaR4AtHkuALR5LgC0eS4AtHkuALR5LgC0eS4AtHkuALR5LgC0eS4AtHkuALR5LgC0eS4AtHkuALR5LgC0dyrV2HuLU/drnWrXd1ddHV1fXWRQlhlp9//hmocvAB3uLlat7333/P119/bXcZpmr0bcxnVro6wpEk+MKRJPjCkST4wpEk+MKRJPjCkST4wpEk+MKRJPjCkST4wpEk+LVqIYrf5cJVWIZJ211TA5Hg16oFA6KLKKVQSpEaGqTj8yjZ8n8pKiDBr1X7B4j1FO8YoXeH4baBYWNJjUSCXyeyxjQccTfenRxtUh83hnC6hSi9AYjMBxruhtV2keDXuoUo/h1B9qUVgQ/tLqZxSFenlpWEfmC/3cU0Fmnxa9VCFP+OGP55aenNUP8t/rM0w3pxvHt4yu6CqiP7IEacOMEdpWP5jbN9vMgxez/K6Ek/nZ7dtBS2sYXdnuNEn5R/ibdR5y2+QfSkj8FGCUMJrSeG6rG7CjPkmL0Z5tRXoyQ3nJTIMnt/HOO3MWg1r4o6Dv4K6fNBgjdkSqduPMswGvDS/6P9n9laVyfNsGv9V2p+adnTyfHzUdL217qOcTOE71wa0NBkjK8OGERPloZeo60nTCQ9x9LvqjBDvfzrDBM/hGg2u0lWSimlUioMis0WLaBi82qdjZ5nheV0WOlr76cPpdTEUPH9w2nz3ve7774z78VrhDnbuKymL+glWfKogZ+WTHif8vI1vHRwGyalinufUorlX6cZO6pBNkr4dsbk3bACT6OEDg+SBrSjESJndbbbXZPY3JMIg3/Nn2KnE74zQbi72daSyo7qNH3QTujkKQAyz1ZML2hTz9IM9wSJZoH9YeJ/D8gUfs1bIXltkMTamn75KgP7m2ytCCoczlz5fQmA0MdtphazuZIRHC1A5OYA+ns2liMqs5Ii8W2+Xx+i/2i7reXklT2EyD2KM3JuFO1ohIHDdn09lY7g6ITvjBP4g02liDfz7ySj+ccnfHg+sLOYopda/EE6XhrV2d7mZzjXy+gZr23ditIRnEA0UhNflaIyxmzx8hmf3kbzixyzd8fp/6KTjo9KsvZRB51f9DN+1yBnQV2Vzdw+ukpwz3Y6/pKw/Hzw3L1BgoHVCzD0oTjjPdKrryfZ+WThce7eMAfbtrPbe5zR60nSpbOzT9Ikr49y3LuTNs8gyd/MravsqI5SyyzNThA+pJH+20FOXbcu+itTw3g/G143giNtfT3JYjwqriVvjJOo4FSE7P1hOvcEiT41rbBKWvwmmnd5GbgcxgMk7qatufytZNhSRnAahNZG4PQYscz6SSv1fJklI8XYl57i9QbZKMEz5l1qWflJaq270QEeGCyaVExRlvi54rBl6p6M4DSCgdszRC6G8O1101z6eW5rovkPOqHLk6SiJRfb3B4h8tCcWioP/sPU6lhsdxst5tSyzkp+ymBqkI73Nz6dIr90nCv+3WDJmZouuTi7prxbwWkI7p4w4QP5tQzTj835BMsH/1kOY2qcUyf6yaDRe8Qjl7+JijW98UGZm32fFBOWfGJO/+KlfXCQDtfga5+sD8UZOWTvVLOoJxruNg3Wvndn5rOwv3yz2fxhBxAHIPvCnLMFyrf4rTqeY2Ei6UVSlo2qaARuvTy69PolNVT8y3C65N9uycXZdnN/7C88jv5rhkpinH0cLzz2tZozpLEWfJ2B1wXrcYrJawMEKthThXhZs+4hlF+5FCVRdnw+Q+rH/GONfW5zclf/lx6K2vaBB9+JfHjH6f0qivHidU9eIX2+l/78SM7efrwmXWQvwRcma8b7VRjv2lr2RpCOz/oZnzLIFfo9K+SeJrn63wfXTk0B0Oi72ItZp7TV8aWHom60hrgSTdKxdupJ9v4ox/VRjr/2DzS8lxOEu807opQWX1jC3RNh9qcBPOW67JqHvniKiS/bTR1IkeALyzR3h5k0FklFR+g94qGtsBO40Y/0MhJNsWhMMnLY/JNTGqKro59VqLN2VyEq0qSh9/Sh9/TZWoa0+MKRJPjCkST4wpEk+MKRJPjCkST4wpEk+MKRJPjCkST4wpEk+MKRJPjCkST4wpEk+MKRJPjCkST4wpEk+MKRXGs3xNraH7tc69a7urro6up666KEMMvPP/8MVDn4AG/xcjXv+++/5+uvv7a7DFM1+jbmMytdHeFIEnzhSBJ84UgSfOFIEnzhSBJ84UgSfOFIEnzhSBJ84UgSfOFIEvxatRDFv+62pqt3eBfVIcGvVQsGRBdLbnA3SIfct7dqJPi1av8AsZ7iXRT07jDcNjBsLKmRSPDrRNaYhiNuzL9lgjM0xI0hGt5ClN4AROblvr3VIsGvdQtR/DuC7EsrAh/aXUzjkK5OLSsJ/YBJ93t1Kmnxa9VCFP+OGP55aenNUL8t/r+HaXG5cLn8RBfsLqb6sg9ixIkT3FE6lu9ieMruyhpDnbb4ORK3rjT0mLbWE0P12F1F46qrFn8ll8N4GGf0830cvNTIsRdmq4sWP33eRcc5u6sQjaSuWnwhquXV4GfTRC+dwq/vLBxQ7dQ7OX5mnMSjnA0lClF9JcFfIfM3PztbOgieuUp8qnhWiDGVZPzScQ62bWend5xZi4vUz6rCyVqryyKRIxYXIRpKIfjGzRDev8Qx0An9MMnc0nIhaMtLc6SiYXytYNzNIu2+qHerwV+I0h+IkkUnnE4y9mcP7uamwpOamt3oPQPEZheZONtM0+teTYg6sQ0gc3uEOKBfvsrA/k1ivU3DO9RrUWlCmOcdMJh9kAE8hA61212PEJZ4B7IYdwA87G61uxwhrCHj+MKRJPjCkd4BDfdhgCQzT+wuRwhrvANu2j5pB5JcvZOxux4hLPEOQPuhXrxA5kwvw1Mrr3/2iyyJc1eR3UPUu9U+fmuQ8AUdSDOo78Z/KcHsb8UdYCVnkLkzir+thYPnc2yyawhRF9ZOS26i/ZsEKfz4/pokfuYg8TMb/4H7iFuu9Bd1r2RUpxn9m0lmH08wdjqEZ3/xF1zc+330Xoww+XiJuVsB+W0XUfdeuRCludVL6KKXkB3VCGGRuhjHT59ff8G1y9VC8Hb+X1+9IFt+YFWUUxfBF40qzXBpg3XeuuZKgi9skiX6eQfThV+EXiTySwf+m9b8iEBdBP/VK7DKLQPodhctyjAwbsM+d36MUMO9B+JPrPk96Lr4lQXRiHRCUR8tugvSioH9aZLnfETmrWmyJPjCNtonfnzA9GUXrtvAUApl0c8l1kVXRzSiNMM7YvjnY8RuFfv4Vh3gSvCFPRYMptmHu9DCa3gO++AXw5KfhpTgC3t86GYfg4wURnGyJO/EYY81p8RI8IVNdAbmIxBoKU5K7kmhzsrBrWh0HwaIqYAtby0tvnAkCb5wJAm+cCQJvnAkCb5wJAm+cCQJvnAkCb5wJAm+cCb1FgBHLV1dXbbXINtYnUVafOFI/w/QCXH0/pt9ugAAAABJRU5ErkJggg==;" vertex="1" parent="1">
          <mxGeometry x="600" y="-160" width="190" height="208" as="geometry" />
        </mxCell>
        <mxCell id="Kt9OW5PYxR4Jgx1hHl5N-6" value="" style="shape=image;verticalLabelPosition=bottom;labelBackgroundColor=default;verticalAlign=top;aspect=fixed;imageAspect=0;image=data:image/png,iVBORw0KGgoAAAANSUhEUgAAAL4AAADQCAYAAAC5itu3AAAUzUlEQVR4nO3dcWgT2b4H8G/EBxV2oYX9Ywq7sJEuWFFoChc65fqH03bBiBdMqNAEL2i6FzTug93Uyt5U/6ipu2rig127D+5rFZ4kBSURdmkEtfEPISnspRF8NILSERQScCEBCwkonPdHM0mqbZO2mZlMzu8DAxmaNr/TfOfMmTOTDJhhLDB/FxgGgyytdyl1lWfpRJD5T9mYtE9gABggsM6DLuaLLLKs3uXVy7ssW4xOMc8JiYkdKLbTzMQBfdoJjV9vS/LZJTZ7XmICmjD4r4LMBiUIHy/mE2G2pHeNdZAO2dZto9JOLd/XHWhk8xMwmUzY1bYbhy/GkNG7HlW0wHzqOsLJJWTfMjDGwFge6ZgPVgGQb7ox/aigd5Hbt7MNjvEg5lJp5N+t1U4fgk80rEfDjWzzEr6Pe4dm6/E3oPSSwqUFvUtR1cI1CwPAHLe1e2cbu8fv8RZ7BgaW8OldjeYEc7feJWiggOybNAALur8SNHvVnZq9Etk0+WkMAGDfZ9a5EpUsy0jcCWDsxwzE8QjcXdq9dGP3+DxbjmHyQgzo8sE50Kp3NXWVmbHDZDLB9Olu2G4V4IwuIXZeRIuGNVCP35BkhE47EciI8N31QNQyERrLPJpGoKUVbWYfHHu0ayj1+A1HRuRkH5y3dsF1OwhvT/OlXhgKrxy3vcsjnQzCmg3A2WnH9AvtaqDgN5LlFKb/3gv7TQHu3+YwNdikY3vFzhYIXQ74xz0Aohi7k9TspSn4jSKXwMTfJAw/2Avv/SiuH2ny0Fdo+bQNAJB5r935Cgp+Ayg8m8bwX3ox9uowph7NwtdkB7PVyM8XAADCThrjcyNz7wykzmHMfuHFXGIKLg0P8LSTQeQfTkzMxJDK5FDq15czSM6cgfPvEQAiRg5ZtCtJs1NlW7HWmdsmO4sbH9+gfRWLL6F3pduRZsHBjdonMEdI2yuSqMcnGhBgu7aA8A0PXAMiSkcvHSJsp/wIP00hOKTtMY2JMcY0fUVCGgD1+IRLFHzCJQo+4dK2rtUxmUz1qoMQTVGPT7hEwSdcouATLlHwN6G/v1/vElTHQxsBFYLPlM/INuHS39+vew3Uxu0tqgWfECOg4BMuUfAJlyj4hEsUfMIlCj7hEgWfcImCT7hEwSdcouATLlHwCZco+IRLFHzCJQo+4RIFn3CJgk+4RMEnXKLgEy4ZJPgF5J7FEPplBMNf92Fvu2nl5mEmE0xf9aLv2BkEZhLIvNe7zq0p3Qxtk4t9xni3vM7MhxA4bUff/vZSO3aLfRgenUb0RU67QtgaFq5Yil/fbGH+5FrPWIE1vvK53pZuu5m1o7av0oZgZb7H2brXoPjpp59U+bvVbne/3mIL1f9L0tVqI3szx7wHhSptEpj0XZgtvVOnBMbKmV2jx08iFkqWHvt/T9RrG9uSzLNJRGu9KVgmirEDVkzMa3dLGVKDlyE49/dh4lG1PVQGsf+yo/dkCLLKJX0c/Pko/E8A67+m4BOAzK+ziDVAjoR9DnhuhLEgZ5F/V/7UfD67hPgND6TSTbETGDs1Ce1uI1ZftlC65m8MCA9pdyfwLVtOYGLIiZCS+Q4b/NFFpN9WvIdyHFPfSVBak7nlhPPHJFSN3eodQZ7N/SAwwMqmnitDHoF5Y/kNdxuVS73Fr9iYP5Zma1dQIelnYsUu0/dH3UvRZKijxvBlM+rdxqUb1nI+enws/naD54YcTCi9hzYWfFXXUhhj6w11CnHEbmaAQzZIHYBlwAkLMpi4F1d369uAeDYMz0Gh+l2vu2w4c1RZyWBRNt6BX/NJIvJztPhYgPeSB+In6z/bPDSN4Fml349g+p56A55VwS88jmIiA9iOH165XUuXBGcXgKtRxBtguLOxXau++9ncboBhQLN7nUL8ibLihFT1Fu0tkGxnSkOe2L2EamP9iuAXEH8QAGCD/YDy0hZIDguAACIPNJxq2pI00s+Vxy5079GzFvKxNuyq5YaOeyywK4/vLkKt/XY5+LkYIlcBnHDC+nn5CSvDHWDybgyNG/0CUv/tw0ixdxEvuWH9TN+KyBa1tqG9tJKC/FqdlykFP/cogkkAriMSVt1eWBnu3Iwi9qc6RWxZIQf5SQSBY3ux93QEAGA+EUbwB0v1Y4IGFf/e8sGJqt3o/XrlBE/kicGOWz5prQhxDIu1TktrYeVYN8vCJzZ/wmSt56gvznxr1ddhZZ7QIlPv9FVjnMAyH/KxuTeqlMEYq3cbl9jUoXLtwvEgq34328r3t/4zO0otKz3+6yiCN6tvJJFbs6qfWNiSPTb4r/jgPtK5em/VhOR7Y+jb70Topd6V1MIM+yn3qvn5XmkE0/MycssVT3tfQO5lEtGZCTj32zCmRWmMleda3b+t118qW+7K/P6HWw8aoccHGGBm1rPqnfJWrcePuJnr7BQLJxZZOrv6jEU+m2aLsSDzDZo1uat7/duYZuET5qp7srUX9Xp8lEPtZrMbjBOUjcN6Y+njP6Jp8FdbCcYU81RcB1LbLnXzVLuOpUZL/1t5gmfj66i2Sp02Ztnceami9o06LjezldY9bK7qmcvNKQf/+RSzAgxn5zY+O6o8b2CqFKpGCH7Ju0V2vWI86YrUf7Svd/A/HDMb6iI1xlj+VZwFx11MOthZsRGYmTjgYp4bs2zxDWPsVbAc/C4/W6hzDaWsLv1LYgCY5361TUv5p5d7moYKPmMsf99TruV4uO5DAf2Dz9jCNUupjcKlesdC/zaueg+rdcZboPztneZv5sC+qeVowAxXlMFVy1N10vJpW3nlqYw0gGY7f9v6SbmNmfcNfzp9kwqIPwqW1twHulWbljbIB1HIigLk57HSmq3DrGMtKngZweSPxXMVghe2AfXm6Joq+MnH4fKK2IkmiwWwHEf0lrJiQW9nM+3PZIQueBApromjdkgqnoVs7ODPB2C/GoVcw7UShfkJuEfLV+G7BnoNMaefuTOCkZkkclU/NikjMjqCgHLy9pAbti6Vi9NKLoXpk31w3io2rsuLwDcWdV+zHgcKUOvgNuErH/mf8LFgdIEtVc5zv8uzdGqOBcdtzFxZR0/9ZwMYU+fAr3TWVuhkjrNTLJxcYtnKa9bffjxdCwg1TEZsjToHt3HmH/Sz2VS2fLD6Ls+y8gIL/+xiklCZIZH5Euq0jbFV8/h1+COqB38Ti+BgQbm+ZShUDX7Ni8CkS/G6z3Yo1Ar++icdK987K/Mn1Qs9Yxt+5raBfNYJ96HaR+rmQT/iT4NwfKleSfXWInRXfGyyCkGCJxTD7A+iYS/CW5sA6bsgFlOz8HRp07Kd1Z+iow4brkdtuL4sI/kghvCDKBLPUlh8lCpepy2g82AvpL9aYXXYYd1jhFH9aq0HvZhLe5B7Fkf0QRSx35NYlGNIKFcydoiQLN2wHnXCeVSEYMjECzCfkCA+/rhd4iErnEes6NT4MvLGDr7iEzMsR12wHG3kswjb0YLWPRIceyQ4vtW7FjWY4bgxB4feZVRo7KEOISqh4BMuUfAJlyj4hEsUfMIlCj7hEgWfcImCT7hEwSdcouATLlHwCZco+IRLFHzCJQo+4RIFn3CJgk+4ZCp+DnFrv2wyrVrv7+9Hf3//tosiRC0PHz4EUOfgA8A2/lzDu3z5Ms6dO6d3Gapq9jYqmaWhDuESBZ9wiYJPuETBJ1yi4BMuUfAJlyj4hEsUfMIlCj7hEgWfcImCT7hEwSdcouATLlHwCZco+IRLFHzCJQo+4RIFn3DJ+MFfTmBCNMFkWlkm5vUuaGsKL5OIzkxi5GQf+va3l9pj+qoXfcfOIDCTQKagd5V19D6H1KMQAqft6JP2ol1pr6kde6VhhF5U/xPbUo+b5VYu2lpiwePCqtf3JdR7NTVufpxPXmeOfUJtN3cWJOaJLNW9hkrq3OC5UpYthjwf3M3840Wt9xGGuMHzhgpIXHTCeSujdyHbkkvFEPq/GtuQiSFg64VzRla3KLUsJxH4Wyf2OgKI6fy2FYOfwISpPFyoXNr392H4YgiJBsuXPOOC7UICgACh1juDNzKhE46zUwgnl5B9y8BYcXmbxmLUB2upjRmEvg8g+qeexW6FjNBpK0Z+V4IkoHPIh2BidXvzbxYx+7MLrWrfgXllBxBnvqq7WQcLv1p7t1G5aCGf8DGx+HrieJzNjht3qJO+7WGeG3GWflfliXKQOSqGB7ZQuu61MKbWUCfPFi6Jq4Zs3vtZFV6nOqw91PEhzip6G8aQf7OAqeMCkAnBdyep8mZYg5chuI6OIQFAOB5E8LyINr1r2gZh0A//CRFCtR7uSwdGvreUViMvDDTceRHE2D8TxRURvruz8A206lpS1TF+y2cWuE6fAQAkl3WeVlhOYGLIiVAGQI8PkV8dMOtbkabaPzdiawuI3RhDtLgmXpuEt6dF14qAGqczC2+zAADXvk5Vi9mYjNBpG8bmAQgOBGe8ED/RsRxSm0Ic0R+Vcb0LI8ctGz5dK1UPIXLPIvBfCEA4HoT3qF67p8oZHBG+u9NwfKlTKTqSX8RLj20dBun9/x1DQHl8ygbpMz2LKfugxx9D7wezOm2ddkzk3AiMWnUbVlTO4DhCwYbYVWquEMPsr0rPaYX1L8aYypJTidJjm9iJ1vc5pO5NY+RkH3q/Mq0+UXdyBNP3ZOS0KGzlWLeGWR2Aid/OsqU1jpCh4qxO9r531QxOfo3nxA08q1Ob1bMiwtm5Nf8P9VDvNsbPl98b6biLWTuq50w46GVzb+paRonyGlVndRjLI5uahe+IgMQvh3HmpnazCYX5CVi/nlg1g8NhX4/CfABuZVZEcGN6VDLI/yED+Vl5LXZrGtEaLkXIPJpA334nQi9VK6yWg9sWtO6xwnvNBwlA9F4CmpzLqpi25HEGR1F4EoBd+T9AhO+uH9YGGSdv2non6d7lkZXjmPpOQvk8XQjO0ZBqWav9koWOvRAB4LGMtErFlGUQuVCetow/4HQG52UIrkMjiGaAZji+8d5ZRPCKC7YuM1or38+dLWj9UoTr2hziIUc5/Hf8CD5Rp5bag/8kvjIXO9CJdnVqWaWgnDKYH0Pvp2tfTqEsvRfKvzdWcaWm6Zh6PYbaCs+m4RSLGz8EOEJxBIeMvc/bVcNlCOYhH3yHlLUkFp6r8w5WD/5yDvL8NM6cGkESAtyDFbsjoorCkwDsB4eLoTfDddu4oW/Z9A7KjO4D5YTFXqgzvvhgGxxDr2ls3SeL4xH4j+h7qrnZ5R6MlQ7oARHu34K4fsSYoQcEmDsFoLjfXXyVAXqqd5utn/cCiAAAMu/VuVqgeo/fIUI64UMwkUZcs1kVAY7bH84urb/Ex8u/6UtU/Oy2w0B7pwJSN4fRrYRekOB7HDVw6FeY99lLj0N/LKKWGGeeR0qP1TpRVwy+CO96wXoex9wNLxw1bKlkq3KIXTgM6eQ0ZADocCGYmIP3r8bfu7aKElzKytVQDZdTJxH/XXksoNusTu4M/EGUJlH8cEbfxRgyAISDPsT/mGqeSzI+k2A7pYR3Gu7vQ5Dfr/fkAhIX3RhRZnK6RmDtUacsCr6uUpgc6C59OMN8Ioj4fS9E43f0FVph/d4Ha3Etc8uJ3q9HMD0vI1ca9xSQexnD5D8OFy9NAQABnituqHVJGwVfVznkKj4cL990Yvd/bDx1u2oxynRthwvXK+bnM48CGBZ3o22X0pZdaDP34cz/xIrtEWC9FoVvQL0jSgo+0YR5KIjUfS+kakN2QYInEsfsdxZVJ1Io+EQzrQM+zMlpxEN+uAcldJY2AjPEQTf8oTjS8hz8R9WfyVL7I72aEM8zsPN6V7EVK7NpXr3L0FKLAHHIA3HIo2sZ1OMTLlHwCZco+IRLFHzCJQo+4RIFn3CJgk+4RMEnXKLgEy5R8AmXKPiESxR8wiUKPuESBZ9wiYJPuETBJ1wyFb86eWu/bDKtWu/v70d/f/+2iyJELQ8fPgRQ5+ADwDb+XMO7fPkyzp07p3cZqmr2NiqZpaEO4RIFn3CJgk+4RMEnXKLgEy5R8AmXKPiESxR8wiUKPuESBZ9wiYJPuETBJ1yi4BMuUfAJlyj4hEsUfMIlCj7hEgWfcMm4wf/3BNpNJphMdoRe610MMRqDBj+H6O3rxri5MWlIhgp+IZeD/CSCwLFuHL5KsSdbZ4j73CYumtB7Qe8qSDMxVI9PSL18HPxMAqGrZ2AXd8NkMsFkMmG32Ifh0WlEn+V0KJGQ+qsIfgHJX+zY3d4L5+gkIvNy6SfyfAzTV4dxuLMNu63TSGlcpHiegbHKJY3goMZFkKZSCr4844L1PyOQIcL18xyWsvlS0PLZJcRDPtg6APleBtTvE6NbCf7rEEYcIWQgwpeIYepbCebWltKTWlrNEIe8CKfSmD3fipb1/hohBrETAJJ3/IgAEK9NwtuzQax3CrCOuzUqjRD17ABkpB4nAUhwHbHoXQ8hmtgBZCDfBQAJezv0LocQbdA8PuESBZ9waQcgwHwUAGJYfKF3OYRoYwdgRucBC4AYJu8m9a6HEE3sAADLETesAJKjbkzMF9Z/9vsMohcmQZsHMbqVMX6HE75LIoAExsS9sF+NIvVneQMo5GQk7wZg72zH4Ys5bLBpEGIIxcuSW2D5IYo47LD9M4bI6GFERtf+BfOgGYJ29RGiiopZnVaIP8wh9XwWU2ddkHrMpZ+Ye2xwXwli7nkWS7cdMK/xhwgxko8+iNLaYYXrihUuPaohRCOGmMdPXDSVPhuwsrTDeUf5aQTOLz78+QQSehZMGp4hgk+aVQITlR3WRe26Kwo+0UkGoWO9WAilyx8uetoL+4w2XyJgiOB//AmsaosXot5FkypkyHeAbrMyRyjAvB+IvJA3/K16McS3LJBmJMIVsqFdNAEJBm9PArELNgRfadNlUfCJboQDdtgALFwzwXQHwHgc7HNtXtsQQx3SjBKY+CIM+6swwrfLY3ytDnAp+EQfr2UsoBvmUg8vQDpqA57Kmnw1JAWf6ONzM7oxBn9pFieD2N0IsF+bS2Io+EQnIryvgoCjvXxScn8c7Dwd3JJm97kDYebQ5aWpxydcouATLlHwCZco+IRLFHzCJQo+4RIFn3CJgk+4RMEnfGLbAICrpb+/X/caqI31WajHJ1z6f+rFeEgb55PfAAAAAElFTkSuQmCC;" vertex="1" parent="1">
          <mxGeometry x="880" y="-160" width="190" height="208" as="geometry" />
        </mxCell>
        <mxCell id="Kt9OW5PYxR4Jgx1hHl5N-31" style="edgeStyle=orthogonalEdgeStyle;rounded=0;orthogonalLoop=1;jettySize=auto;html=1;strokeColor=default;align=center;verticalAlign=middle;fontFamily=Helvetica;fontSize=11;fontColor=default;labelBackgroundColor=default;endArrow=classic;endSize=12;" edge="1" parent="1" source="Kt9OW5PYxR4Jgx1hHl5N-7" target="Kt9OW5PYxR4Jgx1hHl5N-8">
          <mxGeometry relative="1" as="geometry" />
        </mxCell>
        <mxCell id="Kt9OW5PYxR4Jgx1hHl5N-7" value="" style="shape=image;verticalLabelPosition=bottom;labelBackgroundColor=default;verticalAlign=top;aspect=fixed;imageAspect=0;image=data:image/png,iVBORw0KGgoAAAANSUhEUgAAAL4AAADQCAYAAAC5itu3AAAUPElEQVR4nO3dX2gbV9rH8a9KLlxowYFejCGBVXChNinEZhc8ZnsRxS5UJi9EwgVLZKFRdiFxdmHXbkrXSi4cudsmdi52431hsRN4i2SIkQJbokJTKxcBydDFDhTsQIKnEIMFW7CgAQsSOO+FrT924j9JNDOS5vmAQEpkzzPyT2eOzjmjQdWMOTV6BEVvVK3YXUpFramVTFSNnvEpz2FNAQo01XI0pCKJBbVqd3mV8nRVLSQn1MAnHqU3s7GfbqV327OfWLy9V7K2uqRuX/AojToM/uOo8lEIwvM39ydxtWR3jRWwEvNtu4+F/bTy7/oG1Wx2BJfLxZv7D9FzKUXW7npM0YD7zDXi80us/qJQSqHUGiupCF4NjBv9TN7N213k69u3n8BwlJnFFdaevmg/I0TvW1iPhW+yl5eJPN861FuLv4NCK6l9MWd3Kaaau9qmABW4ad1ftrpb/I6hjZZBoTIRu6uxnOZut7sEC+RZ/e8K0Eb7u5plW91n2ZbESzN+TAHgP+y2uRKTPDHITI8R/lsWfThB/xHrNl3dLb6TPUkxfjEFRyIEuxvtrqaislN+XC4XrrcP4fs6TzC5ROqCToOFNUiLX5UMYmeDjGV1IrcG0K1MhMWydycZa2hkvztC4D3rdlRa/KpjkDh1jODXbxK6GWWoo/5Sr/XF1z+3PV1jZT6Kd3WMYIufyUfW1SDBryZPFpn8XSf+Gxr9/55hordO+/YF+xrQjgQYHR4AkoSn5y3btAS/WuQyjPyPh9N3Whn6Lsm143Ue+jINb+8HIPvMuvkKCX4VyD+Y5PRvOgk/7mHi7m0idfZhdjfGwzkAtH3Sx3eM7Lfn8LSc5vbBIWYyE4Qs/IBnnSyJPwQZmUqxmM1RbNefZJmfOkfwdwlAZ/CjNutKsmyq7FW8aOa2zmZx08M77F/ZLZKxu9LXsaKivTvtn6YCMWtXJEmLLyyg4bs6R/z6AKFuneKnl2Yd35lR4j8uEu2z9jONSymlLN2iEFVAWnzhSBJ84UgSfOFIr7VWx+VyVaoOISwlLb5wJAm+cCQJvnAkCf5L6OrqsrsE0zlhH8GE4KvCObJ1eOvq6rK9BtnH17uZFnwhaoEEXziSBF84kgRfOJIEXziSBF84kgRfOJIEXziSBF84kgRfOJIEXziSBF84kgRfOJIEXziSBF84kgRfOJIEXziSBF84Uo0EP0/uQYrYPwY5/eExWptc6xcPc7lwvdvJsY/PMTaVIfvM7jpfU84geWOQ0x92cqiwf02t9bN/1US9wNzlto2vb25To/MvesY6XvCVz5W2dLNfeZv39lXaaF4Vubda8RoKvvzyS5N+85pauB5S7t32r9mnrv1g3v4pZeY+VofCa/mCFn+eVGy+eH/0m4wpb7i9yj4YJ7nXi4Jlk4Q/8DIya90lZV5fnswlD62nJjF2e+qjBOd+U2v7V52eD/5sktH74P3XBBENsv+8TaoKXmftcICB63HmjFXWnpbOml9bXSJ9fQBP8aLYGcJnxrHuMmKvx5gK4btYaFw0PH+eIG2sslb4ZoC1VRaSo/iaCz+RIXwiRGLZpoLrxeYDwZqa+VxT4FUTDwtdHk0NpdZ2PGxgYlcnfdmnRlMr6sUVlJkfVXrZFTYiP1S8lMp3A9Zm1JC2x6uC/JJWkY7S69w2nN79NXkFTunqbE5q4Q/x0YRaUkqp+VHVBopPZ174IlsR/L1bUtETpToCNyt/kaBKh2L13/2l167wmu/k4YTyFl/rATVjQvKdEvxNXZ38vSQjWfCd7Fm/XMsRD8EjwJUk6Sro7uzszU3f/exu0rZ/apVYvD9evO854WHXi+E09xDsLTwYI/UfkwpzgLLg50nfGQN8+D8ohKYNT6ANGCNxJ2dDeS9jhZWHhfsh2t+zs5aX1/jWm3t4lkaLXroy4KKx68fhqpad8peGpQu3S9YMppSCn0uRuAJ8EsR7oPSEtu4gbcD4rRTVG/08i/8bYfD++iP9i36879hbkVmatNJxIfFT1sZKKqQ3ykr51/xd0C3ZbDH4ubsJxoHQcQ+bLi9c6O7cSJL62ZKa9i6fw7ifYOzjVlrPJgBwfxIn+nkbtXC12Ia3Sq13Yn6Bqu9N1pGN4OdIfTMJwKRv/5bDT/tGSzpJ9E41tDAZRgq1vbmfQ21+BqcNaPYyEFtg7rpv975ylWg54qX4SeRKmDEnjs9PB2myuJsDheAvJ4ne2P3Jia9v7z7JYof3fIxejtB/vGXz0arKNRz1M9hReJQhrLfiv5LcfPVvIJ/LsjibYPxsD52BhA2VmkPri5d9k3GayMVO/FMWNa5KKbV03asA1f/v7abDl9TERxTH97cODWHpcGZaRbad1ncr76dxtfTUnC2bMdS39sOo8mjb7c8ut+F0xeuxczhzJeYzZZ/KURrONEhNJ4F+vB9s11668fR6gSSJe3a3+TpDqnzmdoWF1AQDRzXAIHnFT+epWHUemV6g4dcD3L47Qah59+dqhwMMnPEUH3u06h+yrVrFSZFtJqmKCs/rLk20UE0TWE8X1LWPSnWEEpVfzGVqa/h0VS0kr6n+Xo/SyxblaYc9yndmVEUz67PX6eHS/21/hH511rX4Kyo6HFWlacb1I3kkY+5Wi1ld+pdHAWrgu92mAQvdndKKzaoKvlJq7buBUi0n46rSc7f2z2ouqYnuwmvt2dTtrBQr97H8TQwoX6zys+1bFba1z/37GdTv93JscBNKKkIVOc6Yo+Ht/aUHPxqsAHXVGXiUInFn4/4RL+176B5VM/2CQl2wZ9s1ciKKgDyZ/xsnufHI+ycfbTs+X+ykroI/fy9eeqC31Mx4/l7kZ8cYuLSx2Frrp/94Pe2d9ao7+LNj+K8kMfawViI/O0L/+dIq/FB3Z02N6e8k+22YnhNhCtM7vssDdbskwyrVHXzyJM73cGj/ITpPjRD7dh4jVza18yxP9kGK2CU/rXopGHSM0n+idmKfnR5k8EYG40np3/K5LIt3Y4x8fIgm7wipjXkd7WSU0ZPS2r+ufbs/pRoYZG6EydwI7/5ULUB0aqC2+r/PDMZOdTJ2auen6X+8TfTv3rrqwtmlulv8d1ro/2jvf2Z37yjpH6MEfmVeSbZo9jGaWiEtoa+Y6m7xm31cS/q49sRg/k6K+J0kmQeLLNxdZP3Ir9FytBPPb714A36879VO96Zcg9aO7+gi6U371Urnr314fH58HVpNrDatJdUd/IK33LSdCNF2oppnEV5d49Eh4keH7C7DUaq7qyOESST4wpEk+MKRJPjCkST4wpEk+MKRJPjCkST4wpEk+MKRJPjCkST4wpEk+MKRJPjCkST4wpEk+MKRJPjCkVwb3y71aj/scm163NXVRVdX12sXJYRZvv/+e6DCwQd4jV9X9b766is+++wzu8swVb3vYyGz0tURjiTBF44kwReOJMEXjiTBF44kwReOJMEXjiTBF44kwReOJMEXjiTBr1bLMfyFS927XLhcI1h3wfv6J8GvVssGxFaKF7JOD4fp/DiGRRe8r3sS/GrVMUS8r3SxUr07AtNGzVyxvdpJ8GtE1piDXrdcEaVCauPCEE63HKM/ANHHgfq6YLWNJPjVbjmG/2CQ9owicMDuYuqHdHWqWVnohzrsLqa+SItfrZZj+A/G8T+Wlt4Mtd/iP8kwopfGu0dm7S6oMrL34iRIEDxYPpZfP/vHsxyLd2OMnfVzzNNKU3Efm2j1nCb2yNzN13iLbxA76yNcL2Eoo/XFUX12V2GGHItTEc79Zax4tfbNsizencT4eQKazauihoOfJ3MpSPBrmdKpGU/mGQt4GfzG/r/ZRlcnw4hr8yG1cGt6/xinL8XI2F/rJsZUCN/FDKChyRhfDTCInS0PvUZLX4RoZonVX1Rxhnrtvwvc/nuIRrObZKWUUiqtIqDY6aYFVPyx2uRFz7PCWiai9I3t6cNpdXu4tP1Ixrztfvnll+b98iphzj6uqbkv9LIsedTQd6smbGd3hRq2fLiNkFald59SirX/zjFxUoNsjMj0vMlvwz34KUboRJgMoJ2MEr2gs9/umsTOHkUJ/7WwxE4ncus2ke5GW0vadVSn4Z02QmfPATD/JG96QTt6kmGkL0gsC3RESPwzIFP4VS9P6nqY5MYj/eo4Qx0NtlYEexzOzP+yCkDocIupxeysbARHCxCdGkJ/y8ZyxN7k0yT/VujXhxg82WZrOQW7foTIPUgwenEM7WSUoRN2HZ7KR3B0IrcmCfzKplLEy/lPirHC/TM+PO/YWUzJlhY/TOeWUZ39LX5Gcv2Mnffa1q0oH8EJxKJVcagUe2Mslk6f8ektND7LsfjtJIOnjtH5blnW3u3k2KlBJr81yFlQ195mbh+ME3x/P51/Slq+Hjx3J0wwsH4Chj6cYLJPevW1JPs4VbyfuzNCT8t+Wr2nGbuRIlM+O/soQ+rGGKe9h2jxhEn9bG5du47qKLXG6uJtIsc1Mv/o4dwN66Kfnx3B++HIphEcaetrSRbjQelR6utJkntYipC9O8Kx94PEfjKtsL20+A00vudl6GoED5D8NmPN6W9lw5YyglMntBYCn04Qn988aaWerrFqpJn4s6d0vkE2RvC8eada7n2RWnMrOsA9gxWTiinJkrhYGrZM35ERnHowNL1A9HII3xE3jeV/z30NNP5KJ3R1hnSs7GSb6VGi982pZe/Bv59eH4vtbqHJnFo2yRemDGbDdL794uUUhVvnxdLPhctWarrk5Oyq8uYeliG4+yJEPio8mmfuoTl/wd2D/ySHMTvJuTODzKPR3+uR09/EnjW89IcyN+0flBKWemRO/2LLezBMpyu87ZP14QSjx+2daha1RMPdosHGcXfhcRY6dm82Gw90AgkAss/MWS2we4vfrOP5JEI0s0LaslEVjcDNraNL29/Sw6WfjGTK/u+mnJxtN/dhf/F+7IcF9hLj7MNE8b6v2ZwhjY3g6wxtF6yHaWauDxHYwztViK0adQ+hwoMrMZK7js/Pk/6mcF+j3W1O7mr/1ENR3d7x4DtTCO8k/X+JYTzb7sl5Mpf6GSyM5BwZxGvSSfYSfGGyRrx/ieDdeJT9Okjnh4NMzhrkiv2ePLmfUoz/oWdjaQqAxsDlfsxa0lbDpx6KmtEc4losRefG0pPs3TFO62Oc3vYHNLxXk0S6zftEKS2+sIS7L8rid0N4duuyax4GEmlu/7nN1IEUCb6wTGN3hBljhXRslP5eDy3FN4Ebvbef0ViaFWOG0RPmL06pi66OfkGhLthdhdiTBg29bwC9b8DWMqTFF44kwReOJMEXjiTBF44kwReOJMEXjiTBF44kwReOJMEXjiTBF44kwReOJMEXjiTBF44kwReOJMEXjiTBF47k2rgg1qv9sMu16XFXVxddXV2vXZQQZvn++++BCgcf4DV+XdX76quv+Oyzz+wuw1T1vo+FzEpXRziSBF84kgRfOJIEXziSBF84kgRfOJIEXziSBF84kgRfOJIEXziSBL9aLcfwb7qs6foV3kVlSPCr1bIBsZWyC9yF6ZTr9laMBL9adQwR7ytdRUHvjsC0gWFjSfVEgl8jssYc9Lox/5IJzlAXF4aoe8sx+gMQfSzX7a0UCX61W47hPxikPaMIHLC7mPohXZ1qVhb6IZOu9+pU0uJXq+UY/oNx/I+lpTdD7bb4/xmhyeXC5fITW7a7mMrL3ouTIEHwYPlYvouRWbsrqw812uLnSN68Vtdj2lpfHNVndxX1q6Za/Hwuh3E/wdjH7fRcqefYC7PVRIufueSi86LdVYh6UlMtvhCV8nzwsxliV87h1w8VP1Ad0o9x+vwkyQc5G0oUovLKgp9n/h9+DjV1Ejw/TmK2tCrEmE0xeeU0PS37OeSdZNHiIvULqrhYa/22QrTX4iJEXSkG35gK4f1TAgOd0N9nWFpdKwZtbXWJdCyCrxmMb7NIu2+FDCOuzUOZ9TZ0m53yb9k/F65L1iy+Xg/+cozBQIwsOpFMiok/enA3NhSf1NDoRu8bIr64wu0LjTRs99tExUUy5Ue6eP1NZvVGWSk/ml/QLdnsPoD56VESgH51nKGOHWK9T8M73G9JYUKY6Q0wWLw3D3gIHW+zux6xRVivz25O0XRwYwbeum4OwBuQxbgF4KG12bLtil3pDJV1AVZiEDxYX6cfan3xsm5cmsjFTvxT1kxMyjh+jdD6Bokwh1GPrT4AOqGYj8Qja84xk+ALR3oDNNwnAFIsPLK7HFE0O7JpJWZ2apRwrx9P3YzqZIldKj95PsNkIEGk25pRnTfATcsHbUCK8VvzlmxU7MEBN3N6aXy7KdBO+mY9nXqo4absg62rk7nYimUn3LwB0Ha8Hy8wf76fkdn89s9+liV5cRx5e1jgQID4ptnqIaxpC62zdUa+/FslzLbex28OEvlCBzKE9Vb8V5Is/lx6A+RzBvO3xvC3NNFzKccObw0hasLGsuQG2j5PksaP768pEud7SJx/8Q+4e911dLgVTlU2qtOI/vkMiw9vM/FpCE9H6Rtc3B0++i9HmXm4ytLNgHy3i6h5z52I0tjsJXTZS8iOaoSwSE2M42cubV2l2ERwuvC/z5+QLV+wKnZTE8EX9WrL0mtr1+oIYYcssY/Xx+6LJxf9KGt1Nnn+DKzdbvU35l1/DIxpaHcXxgg13O9j2VqdmviWBVGP1helNekuyCiGOjKkLvqIPrbwRBQh7KB94McHzF114ZoGhtMoi9Yi1URXR9SjDCMH4/gfx4nfLPXxrT3nVgirLRvM0Y672MJreE744EfDkq+GlOALexxw006Y0eIoTpbUrQS8b82SGAm+sInO0OMoBJpKk5Lvp639lgUhbHEgQFwFbNm0tPjCkST4wpEk+MKRJPjCkST4wpEk+MKRJPjCkST4wpEk+MKZ1GsAHHXr6uqyvQbZx8rcpMUXjvT/iyfFYd2GKr0AAAAASUVORK5CYII=;" vertex="1" parent="1">
          <mxGeometry x="320" y="120" width="190" height="208" as="geometry" />
        </mxCell>
        <mxCell id="Kt9OW5PYxR4Jgx1hHl5N-32" style="edgeStyle=orthogonalEdgeStyle;rounded=0;orthogonalLoop=1;jettySize=auto;html=1;strokeColor=default;align=center;verticalAlign=middle;fontFamily=Helvetica;fontSize=11;fontColor=default;labelBackgroundColor=default;endArrow=classic;endSize=12;" edge="1" parent="1" source="Kt9OW5PYxR4Jgx1hHl5N-8" target="Kt9OW5PYxR4Jgx1hHl5N-9">
          <mxGeometry relative="1" as="geometry" />
        </mxCell>
        <mxCell id="Kt9OW5PYxR4Jgx1hHl5N-8" value="" style="shape=image;verticalLabelPosition=bottom;labelBackgroundColor=default;verticalAlign=top;aspect=fixed;imageAspect=0;image=data:image/png,iVBORw0KGgoAAAANSUhEUgAAAL4AAADQCAYAAAC5itu3AAAUM0lEQVR4nO3dX2gT6d4H8G/Eiy7sQoW9mILCRrqwKQq2nAOdcPbC2C6Y4gsmVGiCBzQ9CxrPwm67yp5EL+pkj38SL3bteWFpFV5JBCURztII6zZeCJnCLo0gNILSWWghgV1IYIUEFJ73op0krW2T2syf5Pl9YCCj+fOb5ptnnnnmH1jLmGfhQ2AYjrKc0aU0VYnl5CgLn3ExxwGBAWCAwGyHfUxKLLCC0eU1y+sCW0hOsbFTDiZ2Y3U5rUwcNGY5ofPnvZNSYZHNXHQwAW0Y/KUoc0ENwtuT9VScLRpdYxPkYq5Nl1FdTj2/110ws7kQLBYL3tuzH0OXU8gbXY8mOmA9cxPxzCIKfzIwxsBYCbmUBKcAKLf9mH5cNrrIndu9B56JKGazOZReb7ScEqJPdaxHxx/Z9snS261Du7X4W1BbSeHbeaNL0dT8jV4GgHnu6ffNmrvF7w+stgwMTJaMrkZ3grXP6BJ0UEbh9xyAXvR9LOj2qbt1+ySybcqzFADAfcBqcCUaeaVAvh9B8N95iBMJ+A/p99HmbvF59iqFyUsp4JAE72Cn0dU0Vf6uGxaLBZYP9sN1pwxvchGpiyI6dKyBWnxTUhA760UkL0J6MAZRz0ToLP94GpGOTuyxSvB8ot+CUotvOgoSp4/Ae+c9+O5FEehvv9QLI/GV7bbXJeQyUTgLEXhtbky/1K8GCr6ZvMpi+u92uG8L8P93FlPDbdq3V+3ugHDIg/DEGIAkgvczun00Bd8sijJC/+PA6KMeBH5K4uaxNg99jY4P9gAA8m/0219BwTeB8vNpjP7VjuDSEKYez0Bqs43ZepQX8wAAYTf18bmRf3gODtsoZvYFMCtPwafjBp5+8kh87kXobgrZfBGVdv1VHpm75+D9ewKAiPGjvfqVpNuusnex0Z7bNtuLm57YYvlqJkk2utKdyLHo8FbLJzBPTN8jkqjFJzoQ4Loxj/itMfgGRVS2XrpFuM6EEX+WRXRE320aC2OM6fqJhJgAtfiESxR8wiUKPuHSjo7VsVgszaqDEF1Ri0+4RMEnXKLgEy5R8LdhYGDA6BI0x8MyAhoEn6nnyLbhNDAwYHgNtIw7mzQLPiGtgIJPuETBJ1yi4BMuUfAJlyj4hEsUfMIlCj7hEgWfcImCT7hEwSdcouATLlHwCZco+IRLFHzCJQo+4RIFn3CJgk+41CLBL6P4PIXY9+MY/ewIerosKzcPs1hg+diOIyfOIXJXRv6N0XXuUFFB8vY4Rj+zY7+6fF09bbB8MkKWmu+s4SkEWauS2Abmr/WuXr65l4UzGz1jBTa45HOzLd7zM2d3Y5fShuBk0pNC02tQXblyRaN3LrGFWz5mrbd83S528xftlo8xrZYxzaRGvr+3Jomlm1yJ+t4btPgZpGKZyuPwj5r95hqSfz6JZKM3BcsnEfzUidCcfreU2bky5MsO9JyehlLvqS8TOPfXVls+c3o7+HNJhJ8Czh+mIAlA/j8zSJng7ywc8GDsVhzzSgGl19Wz5kuFRaRvjcFRuSm2jOCZSeh3G7GdUe764LqkNi4CHF9OIa0UUFKvDFAqYCEZhqtbfYWM4HEfEssGFbxjEtINXxUhAFGrMtauCEps9huBAU429ULt8ggskCptudqonZotfc3Fwqkc27iCGpkwE2vusCH90vRSmt8NKM2ygNDgXUH+TDOpv/p37p1I1/+bvAPtuzrN775sBzbs6pTTSN3OA0ddcHQDvYNe9CKP0MM0jGr0xa/jGDss1L/r9SEXzh1XZ/JYUPLaFtYExUcJhNQyj0qQtroryPsiAnem4FydzVyKI22CNXGrWhP88pMkQnnAdXJo5XYthxzwHgJwPdkCf+T31lz72dolbP5Uk8g+naw8dhx3oO7NcLqH4B1WZyJI/apRYRyoCX4Z6UcRAC64P1VD0wuHpxdABIlHRQPK244cci/Uxz70fWJkLdvX+f57DTxLgE2s3hkwq9TdHCabqAa/mELiOoBTXjj3Vp+w0t0BJh+kYN7ol5H9XwnjT1fmxG/9cH5obEVa6RKq64XEb+bvzplVJfjFxwlMAvAdc2DN7YXV7s7tJFJ/6F1eHeUilKcJRE70oOdsAgBgPRVH9Jve+tsEJtDxfrX1TmQWDNuO0tdNuLrW7qjqOnhkdSddCoperevKtm6BxU/V36HgiuU23EKGhqM6b9tkZ0i3k43FFpiWu3eaPeJRSgWYUFkGkUly/XGaXMxVXeaJ5o+PGL4DS7Ax360FTUasGFs/qrOcRPR2/R9J4s5M/Z0sRvjEhfA1Cf5jtrVrK5PrOOzGeL86JyMo9sB9Pbn27t8AysU8snMJTJ4dgt2TMKBSHeWzmD7dA8dlWds1IGOMLd5yMgDM/9/N2stFNnUUlfH99b8emKHFBxhgZc6v42zxtTafrEVrWPolzBxCg63h+qllWvx5Fj7mZ+HYDJtXCqxU+/28LrGCMs/i3/nW/R16G1oDblfl/auh9rOZLfoJ6o/DeWvx7TfRNfhrlQo5tpCaYmOHhUoNwsko0+IG8Vodq1PKTjFfA8cjCQc8bOyMozLv+KH5S6nd8UgNKKzdSYczM03vulaD/2KKOQGGr2e37lepzxucqoTKDMGveL3Abh6t1uFLNL+3r2koXhfYQvIm8w87mNhdG3YHc50Js6i8svc6PVH9v83X0O/O0OCz9ds92h2khsUfVlqQsZ/qrVbUNUP1iE1TBZ8xVvpprFrLyTjL1X/JthgdCsYW2dSg+rd2rOl2Novhy1iYYf5Knjws3uQvUc3Hbus/ZsH+0cjWgBW+JIOvkacapOODPdWZZwpyAMy//3YbXqaQeLT6+JATfd1bPrs1dXTUDEWXUdboHIQWORGFAGXI/zeJ5Oqc8wsXerd8fotaVmqOrO2Dde8Wz92Btgp+5km8OiPa6h/70kLKcxGMXV6NhOCH/1g7LV2V8jiBlDpzphc2jT7H3MGfi8B9PdnQ3rzyXAj+89W2wjdob6kx/a3kHwYxdDxYOQ3PdW2shQ7JkBE5EUFquf6ofPlpBOc+V9dpAgLDDu2+w2ZsKECrjVtZqozPi6ckFk3Os8VCzUb46xLLZWdZdMK19rS9/jCbb24ljDHtNvxy98bY2K00W/yz+m8rw7RRJg1b1w5pajRUq2r+Mlb3u1iP+lk4NssWcoWaEcTVcfxr677Do1OaLGfl/ZvyJpoHfxuT4GFRpbllqDQLfu1hCFtM4j9nNA09Y9oGv+Gp28fiSpPLWKV+hrm7Oh/a4D/aeF/WOhxG+lkUno+0K8kQ3S6EUzmkv3O24HaLAOvwNr9DeQquj7SrCFhz6oYJdbtwM+nCzVcKMo9SiD9KQn6excLjLFYOyBVgO2yH429OOD1uOD9pzV59h9AH1+Es0muWqwf2v7jgcLnh6m/gDDTTssJzbxGeLb/DHtj/4oHrtH7foWW1+X+3F1ssb/3bDt7O9K5evYoLFy4YXYam2n0Z1cyau6tDiEYo+IRLFHzCJQo+4RIFn3CJgk+4RMEnXKLgEy5R8AmXKPiESxR8wiUKPuESBZ9wiYJPuETBJ1yi4BMuNfVElIGBAQwMDOy4KEK08vPPPwOgM7C2pd3PTgLafxnpDCzCNQo+4RIFn3CJgk+4RMEnXKLgEy5R8AmXKPiESxR8wiUKPuESBd+slmNwWyywVKZQ5Y4oZOco+Ga1rACxHBhjYIwhPRGE/URs9dLaZKco+GbVH0B8pHqzUnFQAu4rUAwsqZ1Q8FtEXpkHhq0teEcUczL3HVHIiuUY/B4guuRprxtWG4iCb3bLMbj3edEnM3g0utkxj6irY2Y1oQ/0G11Me6EW36yWY3Dvi8O9RC29Flq/xX8lIyRWx7tDc0YX1Bz5J3EkkIB3X+1YfvssH94UkX0cQ+SsG0ccPeiqLGMXehyjiL3U9uNbvMVXEDvrQrBdwlBDGImDjRhdhRaKyN6VcO6rCFIb7pTII/t4GsofU0C3dlW0cPDLkC974b1Du3RaxqsMIh4nxn80/jtb7erICFnWrlLVqevgEYxejkE2vtY1lLs+uC7JAAQINMbXAhTEztaGXoBtREJUXkThT1bZQ136fQEz3/nQqXWTzBhjjKWZBDBsNQkeFl9ia2z0PD2UZImJq58nTqTZzET18yVZu8+9cuWKdm9uEtosY4nNfyvWZMnBAj8VNPic+tQa1m3cSkiz6q+PMYbS7/OYOikA+Rik+xmNf4YN+C0G3/EgZADCySiiF0XsMbomsrWXUQT/pR5iJ0J6MANpsNPQkuqO6nR82Avf2XMAgMyrsuYFbemVjNCIF7E8gH4Jif94aBe+6ZWRuhVEcnVOvDGJQH+HoRUBDQ5nlv8sAAB8B2yaFrO1mhEcwYPo3QDE9w0shzSmnEby32q/3ofxk72GlqOquwlRfJ5A+FIEwskoAseNWj3VjuCIkB5Mw/ORQaWQ7fk1hYj6+IwLjg+NLKZqXYsfhH3dqM4emxuhoh+R807DuhW1IzieWNQUq0rSGCVbPX3GJdrQ+aaI7MNpjJ8+AvvHNVn72I4jp8cx/VBBUYe6Gttz+3wS3oN7YP8iqfvx4MVHQXg9KydgiBMJTI9Qr76V5JdSlcfFRyEM2fagxzmKyO0U5Nq9sy9lpG5HMOrcD5sjiNQf2tZVd1SHsRIK2RlIxwTI3w/h3G39ol+eC8H5WWjNCA619a0kD+V5dS51ZxrJBg5FyD8O4chBL2K/aVZYIy1+Bzo/cSJwQ4IDQPKhrM/pbzXDljSC0yYEGzxfTyGeWbvTir0uoaCkMfWlo3q+QT4G73ntTrVs/CC17h6IAPBEQU6jYqrySFyqDlumH9EITjsI3F9A9JoPrkNWdNZ+n7s70PmRCN+NWaRjNSfb3A8j+lSbWhoP/tP0yljsoA1d2tSyRlndZTAXhP2DjQ+nUCf7perrgjVHalro5GxTea+BwxCsIxKko+pcBvMvtPkG6wf/VRHK3DTOnRlHBgL8ww46/Y00rGPbG2VW9H1aTVjqpTb9i3W/wSDsluCmTxYnEggfM3ZXM2klAqw2AVhd7y4s5YH++s1m5147gAQAIP9Gm6MF6rf43SIcpyRE5RzSuo2qCPDcWz+6tPmUnqi+UpJr/u8enZxtNOsBd+Vx7JcFNBLj/ItE5bGrW5shjdXgiwhsFqwXaczeCsDTwC+VkPU6RQd86sz1GJJ1x+czSP+oPhbQZ9Umd61/6iExtw8dcJ1RwzsN/1cxKG82e3IZ8mU/xtWRnEPjcGp0kj0Fn2isE86vJDhX5/J3vLB/No7pOQXFSr+njOJvKUx+PrR6aAoACBi75odWh7S18KmHpGV0+3AzloJ99dCT/OMIRsUIRjd9gQDnjSSkQe22KKnFJ7qwjkSR/SkAR70uu+DAWCKNmS97NR1IoeAT3XQOSphVckjHwvAPO2Cr/AisEIf9CMfSyCmzCB/X/uCUtujqiBcZ2EWjqyAN6RAgjoxBHBkztAxq8QmXKPiESxR8wiUKPuESBZ9wiYJPuETBJ1yi4BMuUfAJlyj4hEsUfMIlCj7hEgWfcImCT7hEwSdcouATLllWb4j1bi+2WNbMDwwMYGBgYMdFEaKVn3/+GUCTgw8AO3g707t69SouXLhgdBmaavdlVDNLXR3CJQo+4RIFn3CJgk+4RMEnXKLgEy5R8AmXKPiESxR8wiUKPuESBd+slmNwr7mt6cod3klzUPDNalkBYrmaG9wFYaf79jYNBd+s+gOIj1TvoiAOSsB9BYqBJbUTCn6LyCvzwLAV2t8ygQ9tcWOItrccg98DRJfovr3NQsE3u+UY3Pu86JMZPHuNLqZ9UFfHzGpCH9Dofq+8ohbfrJZjcO+Lw71ELb0WWrfF/zWELosFFosbsWWji2m+/JM4EkjAu692LN+C0JzRlbWHFm3xi0jeu9nWY9rCSBxsxOgq2ldLtfjlYhHK0wQiJ/owdL2dY0+01hItvnzZAvslo6sg7aSlWnxCmuXt4OdlxK6fg1vcX9mg2i8ewej5aSSfFw0okZDmqwl+GZnv3djfZYf3/CQSc9WjQpS5FKavj2LItgf7ndPI6lykeJFVDtZamXKIDutcBGkrleArd31wfpGAAhG+72axWChVglYqLCIdk+DqBpSHeVC7T1rdSvCXYxj3xJCHCElOYeqfDlg7OypP6ui0QhwJIJ7NYeZiJzo2ezdCWsRuAMjcDyMBQLwxiUD/FrHeLcA54depNEK0swtQkH2SAeCA71iv0fUQootdQB7KAwBwoKfb6HII0QeN4xMuUfAJl3YBAqzHASCFhZdGl0OIPnYBVtg+7QWQwuSDjNH1EKKLXQDQe8wPJ4DMeT9Cc+XNn/0mj+SlSdDPg7S6lT5+txfStyIAGUGxB+7rSWT/qP4AykUFmQcRuG1dGLpcxBY/DUJawuphyR3o/SaJNNxw/SuFxPkhJM5v/ALrsJXO9Cctr2ZUpxPiN7PIvpjB1Nc+OPqrV3Cx9rvgvxbF7IsCFu956NoupOW9dSJKZ7cTvmtO+IyohhCdtMQ4vnx57QnXFksXvPfV/337hGy6wCqppyWCT9qVjFBtg3VZv+aKgk8MkkfshB3zlStC5xB9Zof7rj4XEWiJ4L99Bla9KQDR6KJJHQqU+0CfVR0jFGA9CCRe6nM96Ja4ygJpRyJ8MRe6RAsgMwT6ZaQuuRBd0qfJouATwwifuuECMH/DAst9ABNpMJ0ul9gSXR3SjmSE9sXhXoojfq/ax9drA5eCT4yxrGAefbBWWngBjuMu4Jmiy6UhKfjEGHut6EMQ4cooTh6pBwngoD6HxFDwiUFEBJaigKerulPyYBrsIm3ckna314M48xjy0dTiEy5R8AmXKPiESxR8wiUKPuESBZ9wiYJPuETBJ1yi4BM+sR0AwNU0MDBgeA20jM2ZqMUnXPp/yXt28Y5/umAAAAAASUVORK5CYII=;" vertex="1" parent="1">
          <mxGeometry x="600" y="120" width="190" height="208" as="geometry" />
        </mxCell>
        <mxCell id="Kt9OW5PYxR4Jgx1hHl5N-9" value="" style="shape=image;verticalLabelPosition=bottom;labelBackgroundColor=default;verticalAlign=top;aspect=fixed;imageAspect=0;image=data:image/png,iVBORw0KGgoAAAANSUhEUgAAAL4AAADQCAYAAAC5itu3AAAUpklEQVR4nO3db2gT2d4H8G/EByrsQoV9MQUXNtKFbVGw5S50yt0Xpu2CKV4woYIJXtB4L2i6F3Zblb2pvmine1dNfLHb7gP7tAqPJIVKIuzSCGrjCyFT2KURfGgEpSMoJLALCSgkoHCeF83kj7ZNajMzmZzfBwYSTZPfSb45c+bMTAbMNJaZ/wAYhoIsZXQpdZVjKTnI/KcdzLZPYAAYILCOgx4mRVZYxujy6uV1hq1EZ9jICRsT21Fop5WJA8a0Ezq/3nvJZVbZwgUbE9CEwX8eZA6oQXh3sZ4Is1Wja6yDVMixYRvVdur5ue5AI1uahMViwa7dezE4EUPa6Ho00QLr6SmEE6vIvGRgjIGxHFIxCXYBUK57MXs/b3SR27dzN1zjQSwmU8i9Xq+dEoIPdaxHxy/Z1snSu71Ds/X4m1B7SeG7ZaNL0dTy1S4GgLnm9ftkG7vH7/EVegYGJktGV6M7wdptdAk6yCPzRwpAF7o/FXR71Z26vRLZMuVRDADg3Gc1uBKNvFIg3wxg7D9piOMReA/o99KN3ePz7FUM0xdjwAEJ7oFWo6upq/ScExaLBZYP98JxIw93dBWxCyJadKyBevyGpCB0xo1AWoR0awSinonQWfr+LAItrdhtleD6TL+GUo/fcBRETvbBfWMXPPNB+HqaL/XCsfDadtvrHFKJIOyZANwdTsw+1a8GCn4jeZXE7N974bwuwPvLImaGmnRsr9rZAuGAC/7xEQBRjN1M6PbSFPxGkZUx+TcbTt3thO9OFFOHmzz0ZVo+3A0ASL/Rb38FBb8B5B/P4tTnvRh7PoiZ+wuQmmxjthrlyTIAQNhJY3xupG8Pw9ZxCgsf+7Aoz8Cj4waeftKI/NONybkYkuksiv36qzQSc8Nw/z0CQMTooS79StJtV9n7WG/PbZPtxY2Pb9K+skWSja50O1IsOLRZ+wTmCul7RBL1+EQHAhxXlxG+NgLPgIji1ku7CMdpP8KPkgge03ebxsIYY7q+IiENgHp8wiUKPuESBZ9waVvH6lgslnrVQYiuqMcnXKLgEy5R8AmXKPhb0N/fb3QJmuOhjYAGwWfqObJNuPT39xteA7Vxe4tmwSfEDCj4hEsUfMIlCj7hEgWfcImCT7hEwSdcouATLlHwCZco+IRLFHzCJQo+4RIFn3CJgk+4RMEnXKLgEy5R8AmXKPiESyYJfh7ZxzGEfhzFqS/70NlmWbt4mMUCy6e96Ds6jMCcjPQbo+vcpqyC6PVRnPqyF3vV9rV1NkH7ZExayj6zmpdJyFqVxNaxfLmr8PPNXcyfWO8Ra7DOTz7X2+q8l9nba/spbQh2Jj3I1L0G1ffff6/RM+fYyjUPs1ZrX7uDTf2mXfsY06qNcSbV8vm9s0gsXudK1Odep8dPIBZKFG/7f9XsO1eT9ONpRGu9KFg6irEv7Jhc0u+SMtuXhzxhQ+fJWSjVHvo0guHPzda+xvRu8Jei8D8E7D/PQBKA9E8LiDXA+yzsc2HkWhjLSga516Wz5nOZVcSvjcBWvCi2jLHT09DvMmLbo8x54Liodi4CbF/PIK5kkFN/GSCXwUrUD0e7+hcyxo54EHlhUMHbJiFe868i+CBqVUbliiDHFr8VGGBnM0/UIY/AfLHcpquN8qXe4pcdzB9LsfUrKJPwM7HsChvSb3Uvpf7DgNwi8wk1XhXkZZxJPaX3uWs8Xv09eQ/aD3XqP3zZCqw71MnHEbueBg45YGsHugbc6EIak7fjMKrTF8+GMXJQqH7V6wMODB9R76SxoqS1LawOsncjmFTLPCRB2uyqIB+I8N2Ygb1wN3ExjHgDrInNqiL4+QdRTKYBx/HBtcu1HLDBfQDAlagJ3uRdFb/9bG0TNn5og0g+nC7eth2xoerFcNoH4R5S7wQQ+12jwjhQFvw84ncDABxwfqGGpgs2VxeAACJ3swaUtxUppJ6otz3o/szIWrau9YNdNTxKQIdYujJgUqm6OUw2UAp+NobIFQAn3LDvKT1gbbgDTN+KoXGjn0fyvyWMPly7J37nhf0jYyvSSptQWi9EnjX+cK5RFYOfvR/BNADPYRsqLi+sDneuRxH7U+/yqshnoTyMIHC0E51nIgAA64kwgt92Vd8maAAtH5R670hixbDtKH1NwdFWuaOqbX9fYSddDIpevevatm6GhU9U36HgCKXW3UKGhrM679pgZ0i7nY2EVpiWu3fqPeORi/mYUGyDyCS5+jxNKuQotXm8/vMjhu/AEjqY59qKJjNWjL09q/MiiuD16l+SyI2F6jtZjPCZA/7LEryHOyrXVg2u5aAToz3qPRljYiecV6KVV/8GkM+mkVyKYPrMIHpdEQMq1VE6idmTnbBNyNquARljbPWanQFg3l826i9X2cwhFOf33/72oBF6fIABVmY/G2arr7V5ZS16w9xvfmYTauwN315M0+MvM/9hL/OHFtiykmG58s/ndY5llGUW/sHz1vvQVdMacKuKz18KtZctbDJOUL8c9mur7z6JrsGvlMuk2Epsho0cFIo1CMeDTIsLxGt1rE4uOcM8NRyPJOxzsZHTtuJ928/1b6V2xyPVIFO5kw6nF+o+dC0F/8kMswMMZxc3H1epjxuYKYaqEYJf9HqFTR0q1eGJ1H+0r2koXmfYSnSKeYdsTGwvD7uNOU77WVBe23sdHy/938Zr6PdnaPDZ29s92h2khtWf13qQkTvVVivqmqF0xGZDBZ8xlrszUqrleJilqv/JlhgdCsZW2cyA+l7bKoad9WJ4GzMLzFvMk4uF6/whqvnYaf3HItg/atkasMITZfDU8lCDtHy4u3TnkYIUgMbff7sFT2OI3C3cPmBHd/umjzanlpayqeg88hqdg2CSE1EIkIf8v9OIFu7Z/+VA16aPN6kXStmRtd2w7tnksdvQVMFPPAiX7ogd1Y99MZH8UgAjE4VICF54DzdT60qU+xHE1Dunu9Ch0es0dvCXAnBeida0Ny+/NAnvuVJf4RnoNdWc/mbSt8cweGSseBqe4/KIiQ7JkBE4GkDsRfVZ+fzDAIb/qa7TBPiGbNp9hvXYUIBWG7eyVJyfF09ILBhdZquZso3w1zmWSi6y4Lij8rS9Hj9brm8ljDHtNvxS8yNs5Fqcrb4s/dvaNG2QSUPWyilNjaZqVfVvY2m/i/WQl/lDi2wllSmbQSzM419+6zM8NKNJO4vPX5cn0Tz4W1gEFwsq9S1DpVnwyw9D2GQRv1rQNPSMaRv8mpd2DwsrdS6jQH2Nxh7qfNQB76Hax7LWIT/ij4JwfaJdSYZod8AfSyH+g92E2y0CrENb/AzlGTg+0a4ioOLUjQbU7sBU1IGpVwoSd2MI341CfpzEyv0k1g7IFdBxsBe2v9phdzlh/8yco/oWoRuOg0nEK9rVid6/OGBzOOHoqeEMtIZlhWt+Fa5NP8NO9P7FBcdJ/T5DS6H7f78/tlje+bdtPF3Du3TpEs6fP290GZpq9jaqmW3soQ4hGqHgEy5R8AmXKPiESxR8wiUKPuESBZ9wiYJPuETBJ1yi4BMuUfAJlyj4hEsUfMIlCj7hEgWfcImCT7hU1xNR+vv70d/fv+2iCNHKvXv3ANAZWFvS7GcnAc3fRjoDi3CNgk+4RMEnXKLgEy5R8AmXKPiESxR8wiUKPuESBZ9wiYJPuETBJ1yi4BMuUfAJlyj4hEsUfMIlCj7hEgWfcImCT7hk/uC/kjEpWmCxrC2TS0YX9H7yzxKIzk1j9GQf+va3Fdtj+bQXfUeHEZiTka5+cXDzeJNF8n4IgTNO9Nk60aa219KGTtsphJ5q/Pr1uFhu+aKvVRY8LlS8viRr92paXOA5l5hirn1CbRc+FmxsJKLtJZ61uoh1SYathEaYTdi8rVp9jjDFBZ43lYc84Yb7RtroQrYlm4wh9H81tiEdQ8DRC/ecom1RWnmVQOBvHeh0BRAz+GMrBF/GpKU0XChf2vb34dRECHKD5UuZ88BxUQYgQBCMrqYOhA64zs4gnFhF5iUDY4XlZQorUQn2YhvTCH0TQPRPI4t9HwpCZ+wY/VUNkoCOYxKCcmV7c3+sYOEHD1q1vvT42gogzqSqq1kXCz9ff7VRvughJ0tMLLyeOB5nC+PmHeqk5kfYyLU4S72u8kAlyFxlwwNHKFX3WhjTaqiTY8vfiRVDNt+djAavUx3WH+pIiLOy3oYx5P5YxsxxAUiHIN1MaPw1rMGzEDxHxiADEI4HEbwgYrfRNW2DMOSH/4QIoVoP94kLo990Fe9GnppouPM0iLF/y4U7IqRbC5AGWg0tqeoYv+WjLnjODAMAEq8MnlZ4JWPymBuhNIAeCZGfXLAaW5Gu2vaYsbV5xK6NIVq4J16dhq+nxdCKgBqnM/MvMwAAz74OTYvZnILQGQfGlgAILgTnfBA/MLAcUpt8HNH/qON6D0aPd236cL1U3YTIPo7AfzEA4XgQviNGrZ7KZ3BESLdm4frEoFIMpDyNF2872k3S+/8eQ0C9fdoB20dGFlPyVo8/ht63ZnV2dzgxmfUicM5u2LCifAbHFQo2xKpSd/kYFn5Se0477J+bYypLScrF2w6xA61vskjensXoyT70fmqp3FF3chSztxVk9ShsbVu3hlkdgIlfLbDVdbaQoeGsTuaOr2IGJ7fOY+ImntWpTeWsiHB2cd33oR7q3cb4hdJnYzvuYfb26jkTDvrY4h91LaNIfY2qszqM5ZBJLkA6LED+cRDD1/WbTcgvTcL+5WTFDA6HfT3ySwF41VkRwYvZczaTvA9pKI9L92I3ZhGt4VCE9P1J9O13I/RMs8Jq2bhtQetndviuSrABiN6Wocu+rLJpSx5ncFT5hwE41fcBIqRbftgbZJy8ZRvtpHudQ0aJY+ZrG0r76UJwnwtplrXaD1lo74QIAA8UpDQqpiSNyMXStGX8LqczOM9C8BwaRTQNNMP2je/mCoKXPXAcsKK1/PPc2YLWT0R4ri4iHnKVwn/Tj+BDbWqpPfgP42tzsQMdaNOmlgp5dZfB0hh6P1z/cAp16b1Y+ruxsiM1LUe16zG0ln88C7dY+PJDgCsUR/CYudd5u2o4DMF6TIJ0SL2XwPITbT7B6sF/lYWyNIvh06NIQIB3qGx1RDSRfxiA8+CpQuit8MybN/QtW15BWdH9RSlhsafajC/e+g6OodcytuGDxfEI/IeN3dXc7LJ3x4ob9IAI7y9BTB02Z+gBAdYOASisd1eep4Ge6t1m655eABEAQPqNNkcLVO/x20XYTkgIyinEdZtVEeCaf3t2aeMlPl76S0ku+795l4nWTnkkr59Ctxp6wQbpQdTEoV9j3ecs3g79toJaYpx+Eine1mpHXSH4InwbBetJHIvXfHDV8E0l7yuL2MVB2E7OQgGAdg+C8iJ8fzX/2rVVtMGj3rkSquFw6gTiv6q3BXRbtcmdiU9EaRKFkzP6JmJIAxAOSoj/NtM8h2R8ZIPjtBreWXi/CUF5s9GD85AnvBhVZ3IOjMLeo01ZFHxDJTE90F08OcN6Ioj4HR9E83f0ZVph/0aCvXAvfcON3i9HMbukIFsc9+SRfRbD9D8HC4emAICAkcteaHVIGwXfUFlky06OV667sfe/Np+6rVjMMl3b7sFU2fx8+n4Ap8S92L1Lbcsu7Lb2Yfh/YoX2CLBfjUIa0G6LkoJPdGE9FkTyjg+2akN2wYaRSBwLX3dpOpFCwSe6aR2QsKikEA/54R2yoaP4JbBCHPLCH4ojpSzCf0T7mSytT+nVhXiBgV0wuor3sTab5jO6DD21CBCPjUA8NmJoGdTjEy5R8AmXKPiESxR8wiUKPuESBZ9wiYJPuETBJ1yi4BMuUfAJlyj4hEsUfMIlCj7hEgWfcImCT7hEwSdcshR+Ovn9/thiqbjf39+P/v7+bRdFiFbu3bsHoM7BB4BtPF3Du3TpEs6fP290GZpq9jaqmaWhDuESBZ9wiYJPuETBJ1yi4BMuUfAJlyj4hEsUfMIlCj7hEgWfcImCT7hEwSdcouATLlHwCZco+IRLFHzCJQo+4RIFn3DJvMH/fRJtFgssFidCL4wuhpiNSYOfRXR+yhwXNyYNyVTBz2ezUB5GEDjajcErFHvy/kxxnVt5woLei0ZXQZqJqXp8Qurl3eCnZYSuDMMp7oXFYoHFYsFesQ+nzs0i+jhrQImE1F9Z8PNI/OjE3rZeuM9NI7KkFP9HWYph9sopDHbsxl77LJI6FyleYGCsfEkhOKRzEaSpFIOvzHlg/1cECkR4fljEaiZXDFous4p4SIKjHVBup0H9PjG7teC/CGHUFUIaIiQ5hpmvbLC2thQf1NJqhXjMh3AyhYULrWjZ6NkIMYmdAJC46UcEgHh1Gr6eTWK9U4B93KtTaYRoZwegIPkgAcAGz+Euo+shRBc7gDSUWwBgQ2e70eUQog+axydcouATLu0ABFiPAEAMK0+NLocQfewArOj4ogtADNO3EkbXQ4gudgBA12Ev7AAS57yYXMpv/Og3aUQvToO+HsTs1sb47W5I34kAZIyJnXBeiSL5Z+kLkM8qSNwKwNnRhsGJLDb5ahBiCoXDklvQ9W0UcTjh+HcMkXODiJxb/w+sQ1YI+tVHiCbKZnVaIX67iOSTBcyc9cDWYy3+j7XHAe/lIBafZLA674J1nScixEzeORGltd0Oz2U7PEZUQ4hOTDGPL09YiucGrC1tcN9U/zcC98dv//8kZCMLJg3PFMEnzUrGZHmHNaFfd0XBJwZJI3S0F8uhVOnkoke9cM7p8yMCpgj+u2dgVVt8EI0umlShQLkJdFvVOUIB1v1A5Kmy6V/Viyl+ZYE0IxGekANtogWQGXw9MmIXHQg+16fLouATwwhfOOEAsHzVAstNAONxsD36vLYphjqkGcmY/DgM5/MwwvOlMb5eG7gUfGKMFwqW0Q1rsYcXYDviAB4puvw0JAWfGGOPFd0Yg784i5NG7FYE2K/PITEUfGIQEb7nQcDVVtopuT8OdoE2bkmz2+NCmLkMeWnq8QmXKPiESxR8wiUKPuESBZ9wiYJPuETBJ1yi4BMuUfAJn9g2AOBq6e/vN7wGamN9FurxCZf+H+Q3fUXC6K3AAAAAAElFTkSuQmCC;" vertex="1" parent="1">
          <mxGeometry x="880" y="120" width="190" height="208" as="geometry" />
        </mxCell>
        <mxCell id="Kt9OW5PYxR4Jgx1hHl5N-33" style="edgeStyle=orthogonalEdgeStyle;rounded=0;orthogonalLoop=1;jettySize=auto;html=1;strokeColor=default;align=center;verticalAlign=middle;fontFamily=Helvetica;fontSize=11;fontColor=default;labelBackgroundColor=default;endArrow=classic;endSize=12;" edge="1" parent="1" source="Kt9OW5PYxR4Jgx1hHl5N-10" target="Kt9OW5PYxR4Jgx1hHl5N-11">
          <mxGeometry relative="1" as="geometry" />
        </mxCell>
        <mxCell id="Kt9OW5PYxR4Jgx1hHl5N-36" style="edgeStyle=orthogonalEdgeStyle;rounded=0;orthogonalLoop=1;jettySize=auto;html=1;strokeColor=default;align=center;verticalAlign=middle;fontFamily=Helvetica;fontSize=11;fontColor=default;labelBackgroundColor=default;endArrow=classic;endSize=12;" edge="1" parent="1" source="Kt9OW5PYxR4Jgx1hHl5N-10" target="Kt9OW5PYxR4Jgx1hHl5N-14">
          <mxGeometry relative="1" as="geometry">
            <Array as="points">
              <mxPoint x="140" y="784" />
            </Array>
          </mxGeometry>
        </mxCell>
        <mxCell id="Kt9OW5PYxR4Jgx1hHl5N-10" value="" style="shape=image;verticalLabelPosition=bottom;labelBackgroundColor=default;verticalAlign=top;aspect=fixed;imageAspect=0;image=data:image/png,iVBORw0KGgoAAAANSUhEUgAAAL4AAADQCAYAAAC5itu3AAAUOUlEQVR4nO3dX2gbZ7rH8a9CLlw4Cw70QoYEVsEL69BAbDjgEeSiirMQhxyIhAOW6EKr7ELqnIVN3JRdybmwpe62sXOxW++Bg91cFI3BRgpssQObRrkoaAy72IEc4kKDpxCDBrZgQwM2NDDnwpYlObEtW39mNPN8QGA5+vNM/NOrmXfeeV/MprFgjp7BpC9l5q0upabWzbyWMkevBc3AO14TMMFrdrwbNROZZ+aq1eXVyk+r5rO5CfPm+wFTaWdrO32mct6a7aTB73co66vL5uxQwPTiwOC/SJlBCkF4/eZ7P20uW11jDeTV4K7bWNjORv5dj2Bn80k8Hg9vHTvJxZEshtX11EULvmufk15cZvVHE9M0Mc118tkEvV7Q7w0w+XjD6iKrd/QY4eEUj5byrP/0pu1MkHrSwHoa+CE7OC3xeuvgtBZ/D4VW0vvJgtWl1NXC3U4TMMPTjfvL2rvF745ttQwmppawupqG8/q6rC6hATZY/Xce6KTrF96GvevRhr2TODD9aRaA0Ds+iyupk5c62swY8T8ZKMMZBs407q3t3eK72css47ezcCZB5Hyr1dXUlDEVwuPx4PnZSYJfbhCZWyY7pNDSwBqkxbclHfXDCGOGQuL+TZRGJqLBjMeTjLW0csyXIPzLxm2otPi2o5P54ByRL98iOp0i1u281Hv705vHbT+tk19M0bs6RqQjxOTzxtUgwbeTl0tM/tpP6J6Xgb8/YqLPofv2BUdb8J4JMzp8E5gjPrPYsLeW4NvFmkbyvwJcfXiK2D/m+PySw0NfouVnxwAwXjXufIUE3wY2vp3k6n/6ib+4yMTjWRIOO5jdj/7dAgDeo7KP7xrGg+sEOq4yeyLGI22CaAMP8BrHIPPbCMmpLEvGGtvt+kuDxanrRH6dARQGL3Q2rqSGnSo7jDeduXXYWdzc8B7bV3JLaFZXWo28merba/u8Zlht7IgkafFFA3gJ3l0g/cVNoucVto9e2hWC10ZJP10i1d/YYxqPaZpmQ99RCBuQFl+4kgRfuJIEX7hSVWN1PB5PreoQoqGkxReuJMEXriTBF64kwT+Anp4eq0uoOzdsI9Qh+GbhGlkH3np6eiyvQbaxulvdgi9EM5DgC1eS4AtXkuALV5LgC1eS4AtXkuALV5LgC1eS4AtXkuALV5LgO4A24tmchHXrlpy3uqIaW1EJlWyf54pa9SIhEvymp5F9miJfGI/yIsWCEkJdsbqu2jG+SdOlFcfb5E5HaBvRqnpNCX7TU4hNh9leUuG4jy4y6A4Kvrc/Tay7eN/XHoSnelWtvgTfaeazxAniO251IfVikL2fgdM+qlk/RYLvFIX9YCVOQksTdmDwN49l2oiQIj+kVPVaEnynOB4mbZqYZg4UBx7gAsrQ5j5+/nKatioPcCX4jqMQGIYF3ZmLowJ4z4YIzujoVbyGBL/ZraiESns4VlRGb0OXr3ErCNabNlLeS6Xdi5Dp81HNbJtNEHyNpKe8n7qyW5LqOryaxPEAoaf+4nafiNClmWW9IM1OOd9F5ETxb+t/miJf2pN1CG8M/uKdrq036WKskatNi0PwEp4uv67USaEHytc7Nk3MKkMPbwz+Ill1cfvn0a9c0W4Kl3k9+PNzjD6B3v+dIOEF42+zZBu3NNE+EuQqvqI+RnUdXsLJdgR/g+zfP8egl+C7UXpvdIIxSVazTfKFqIny4G/kyN4z4EKQQDt0no/QiUHyQQ6JvnCSsuBvfDNH0oDgexc3u4rOBIicAe7MkZPkCwcpCf4GuYdjQJDQ2cIxcyeBcCcwRubhmgXlCVEfxeCvZcncAd6P0FsyzmNzdwfG72eR6Aun2A7+2uMM40D0UoCy5YULuzv35sj+0OjydvqcYFv5iaq20+c4d+U6Y1NZdPlkigptBX+N7FeTAEwGj+04A9rF4BOASVIPrR7/YWDsKMH4vyzZmXEGw+c42XGKq/eW5EBc7Gsz+CtzpO7t/+DMl7NVDQyqO2OJyQ9OERjRJPxiT0cA9IcpMsDA31d3ORm0zMQF4EGG7PNGl9hCy6UBRtVZFvRV1n8qqeundVb1BdJ/iRIoOYet3R5gbF6iL/ZgmsvmxAVMGDBnV81dLX/RawJm7xfFpdd5w/LsllnNmYnuklquzZp7bM6h/PnPf67xK9qP07exkI8jPM+SeQB8FCTQusunA/CdDdILzE1l7bm706pw85NYcfDS/yyyZGU9wtaO6I9V5oCb5/207PXI9gDBC8DDcTI2HbHZ0ukntH3vGXmrj8WFbR31/eYR5m8qeaiP6JxJtN4VVaOlpeTDu8HGKwtrEbbWBBeiHMCKzuL2nS4HzzQgquWo4OuPM2QLd6510mFlMcLWbB58jbErY2RX9u+a3HgyxvXfzm3d8xLr23EGWogSNg8+bMwMcu7EW5zs3RyWsGSslZyc2mDt+0Uyd0Kc6hykEHsuJIi+u+ehunC5o1YXUCn9wTiDD8YZ3O+B7VHSf4tWdQW+cD6bt/hefH2VR9jXN0pOmyD48/pVZEs7ZhN24mRSZTNCO3+2ZB/h6WXMH5dZyEwQuxYk8G5HyRX2XjreDRD9aILZpVWWp2+ivG1huZbQSG5NKWKaJqaWIO602ZKnQptTipgmppknRfWzJVc1xgA7DVloADuezs+rQZO+lJkv/sZM9WEG1fwez9qd/bYxZybATGglv9ISJiTM3CFeje0hC8JhvPhOQ+a5LQeW1MZxH0EWqpoKXYLf5DbnkUyTddCuTbnNuUDjD2s7v1PT9OqIXRwPM66maTvhIVLy66DqnH4tZShHwuPHc7v0twkGqzgzLy2+A3j70yXXTuRJ9ZVOGOAECrHS60O0BAwHqpowTFp8h9FG2oiczmE6dZzSikpIWSD1IlbVy0iL7wClfdyj7XnMKlcLsZ3S8xQndAbN6ld8kRbfAZQhE3PI6irq6HiYtBmu6UtKiy9cSYIvXEmCL1xJgi9cSYIvXEmCL1xJgi9cSYIvXEmCL1zJszU4/3BP9njK7vf09NDT01N1UULUy9dffw3UOPgAVbyc7X366ad8/PHHVpdRV07fxkJmZVdHuJIEX7iSBF+4kgRfuJIEX7iSBF+4kgRfuJIEX7iSBF+4kgRfuJIE33YM1CslU2JXPO23RtJT+rwktZ10z1kk+Lajo1OYEvsA037PZ1lQ89uzjeXVBfw1mEfeqWReHdtRiE2XTAjVHSBBfHNm4L0mUeqOke4u3vX6umBGRwecNJlgrUiLb3crOgsED7x0qfYwDn0+WRJpF9Li25qBeiMCar7iKfOMqRBt4QyQIGeGpbXfhbT4tmWgXtmcADbdX3l8t2dO1sAvB7i7kuDbUjH0h54AtjtAospVQ5xMgm87m6FPXz7YrMfGVKis29OYGiVO14GPDdyi+YP/UiOpOGipy5Us6RnIhNvK+vI9+6zy5z0bYqHk/6Et3EXOjFW1eEJdvVpj6bHK2IchzgVO0ba9rW2cClxFfV7ft2/yg1sd9cMg8WYPe6nDToldh6m062ONpakE12+MkX3jSQaDpceT6D9MQHv9qmji4G+gjUSIfCmnaJrGy0XGwr0MfmX932xrV2fn6e6Sr8zT57g6oqJZX2sZfSpK8LYGePFKn10T0FE/LA29l47+BCltmdUfi+tbrf/7GbN/idJa7ya5dBFd9rp5w2b6xZsXy6XBCzyvawlT2Xo/ZThnzg4X379sIeAas9/ix7VXn21cNxc+UUqyFDBj/1itw/vsjzcv8JwgV7q6nGmy/u8FJt7zgqGSmFms88ewAt+rRC/H0QDveylSQwrHrK5J7O15ivgfCwfnCon7syTOt1pa0r69Oi1vdxL98DoAiy836l7Qnl5qJPsjqAbQnSDzt7Cckre9DbJfxJnbuqfcHSfW3WJpRVBhd+bGj6sARN/pqGsxeyvpwfGGSU3FUP7DwnJEZTZyzP2psF8fZfC9TkvLKdj3EGLt2wyjt8fwvpcidtmqr6fSHhyFxP1Jwj+3qBRxMP/KMlb4+VqQwNtWFlO0o8WP49/Rq3OsI0RybYCxW72W7VaU9uCE1ZQtvipFZfSl4om3oNJB66s1lh5MMvjBOfy/KMnaL/yc+2CQyQc6aw2oq7Izt9+OEzl9DP/v5tDrXNBOaw/jRMKbF1Qowxkm+2WvvpkYL7LbP689THKx4xineq8ydi+LVnp29rlG9t4YV3tP0hGIk/2hvnXt26tjmuusLs2SuORF++tFrt9rXPQ35pP0/ipZ1oMjbX0zMdC/Ld7LfjnJXAVDEYzHSc6djqB+X7fCKmnxW2j9ZS+xuwkCwNwDrTGXs5V0W0oPjkN4Owh/NEF6sfyklfnTOqt6jonfB4rXDxgqkVv1u3Sy8kFq7ac2Bzx9o5OvUzFFBpnbxW7L3EPpwXGC2MwzUp9FCZ7x0Vr69zzaQuvPFaJ3H5FTSy6emRkl9aQ+tVQe/Ce5zb7Y8x201aeWMhuFUwbzcfw/e/NwisLNf7v4vHjJCEWPXGxtK29VMAzB158gcaFwb5GF7+rzF9w/+C/X0OcnuX5tkEW8DPQF5HI2UbGWAx+U+eg6W0xY9nl99i92fAbj+D3xXR+sDGcYvWTtqWbRTLz4Oryw9b377IUB3fs3m63H/UAGAONVfUYL7N/itysE3k+Q0vLkGtar4iU8vbN3afdbbrj4zIRW8m/TcrG11XzvhLZ/Vv/5jEpibHyX2f452F6fLo2t4CvEdgvWdzkefREjXMEnVYidWpUA0cKdOypz+/bPL5L7qvCzly5ffXLX/JceCnt7O0DwWiG8kwzcUNFf7fbgDbSRAQYLPTlnBunt3u2x1ZHgizprpfdGgt6te8aXEfy/GmRyXmdte79ng7Xvs4z/9uLW0BQALzc/G6BeQ9qa+NJD0TTao3yuZvFvDT0xHo9xVRnj6q5P8NJ7d47E+fodUUqL7yDGVMi2syX7+lMs/SNGYL9ddm+Am5kcs7/vrGtHigTfKeaTW1OKFHq64rabLbn1fIJHep6cOspAX4CO7Q+BD6VvgFE1R15/xOjl+g9OccSujjJkYg5ZXYWVDNS7cYJqfnseHeX9FMETabIr4Yrn3WyIFi9K/02U/puWliEtvlMd99FFRqYQ3IUE3xG8BC4HydzP2mrXxs4csasjwNs/Tup+G22eSMlvg6TstJtjI9LiO8aOYR4vUgT7QgQk+G8kLb4jaSRPROjSTBmrtAtp8R2jdBrIUXwvTGJ1Ot3vBNLiO8bmQMOY1WU0CWnxhStJ8IUrSfCFK0nwhStJ8IUrSfCFK0nwhStJ8IUrSfCFK3m2FsQ63JM9nrL7PT099PT0VF2UEPXy9ddfAzUOPkAVL2d7n376KR9//LHVZdSV07exkFnZ1RGuJMEXriTBF64kwReuJMEXriTBF64kwReuJMEXriTBF64kwReuJMG3HQP1Svlypsl5q2tyHgm+7ejopMgXZkTTEsSVEKpM/lpTEnzbUYiVrtbYHSAhsx7XnATf7lZ0Fgjikzkwa0pmUrM1A/VGBNS8vRZ3cAAJvm0ZqFfaiJzOYfbL1K+1Jrs6tlQS+iFl/4eLA5MW33Y2Q5++nJeWvo6at8X/V5I2jwePx2FdfStZ0jOQCbeV9eV7Ruy0eGfza9IWf4256c+dud7T8TBpM2x1FY7XVC3+xtoa+pMMY1e6uHjHkbEXDdIULb424sF/2+oqhJM0VYsvRK28HnxDQ71znZBycvvA6qRyjqu3Jpn7ds2CEoWovZLgb7D41xAn2/xEbo2Tmde3/0WfzzJ55yoXO45xsneSpQYXqQyVLGNpmphmnlRfg4sQjrIdfH0qSu/vMugoRP/yiOXV9e2gra8uk1MTBNtBf2Ag7b5odpvBX1EZDKsYKCS0LBP/HcDX2rL9oJZWH0p/jPRSntmhVlp2ezUhmsRRgMWZUTKAcnecWPcesT7qpXd4oEGlCVE/R0Bn6ZtFIED0UqfV9QjREEfAQL8PEOBUu9XlCNEY0o8vXEmCL1zpCHjxXQbI8uy51eUI0RhHwEfH2U4gy/j9RavrEaIhjgB0XhqgF1i8NUByfmP3R78ymLs9jnw8RLPb3Mdvj5D4RAE04sopQnfmWPqh+AHYWNNZvD9GqKONiyNr7PHREKIpbA1LbqHzD3PkCBH8Y5bMrYtkbr35Cb4+H3JBnGh2Jb06rSh/eMTSd7NMfBQl0O3b/hdfd5CBz1I8+m6V5ekwvje8kBDN5LULUVrbe4l+1kvUimqEaJCm6MfXRsonUfV42ojMFP41Q+TEzn9PIpdmi700RfBFZYypUNN8+Msbs0pr1UiWNHChqcNfdy3Bd4r5JG3hLnJb11DkhuP4r6i2nInCmArhf1qcETqvLlRQq4F6xc+Cmt+8TuRFCsJth55CvSmC//oVWPvdYrhr/jED9W6coBrd3m7l/RTBmTRZG845pD/PwOli76DX1wUzOvpeT5qfJDKTYLAwydbxMIPDEH94uO+1pgi+OITjPrpsOr248n6K4G3/9iRZ2sPyD22lfO1BeKof6ltNgu8IXgKXg2TuZ225a/Oa4wFCfRB8OorH48F/u6Ql3013gARxsjVaHUaC7xDe/nFSRLamVfTg8fiJ23RefW1kc27Q9HS6uI+/7wGuQkxLEFeKB7dt4fJdpoOQ4DuGl/B0yXHOixTBvhAB2wXfQH8KXb5iXL1nQwRZ2H+3rDtWdiyXG4bE+cMdzUnwHUkjeSJC142wDYeXePGdhvjdYi+O8U2aDF0H+nYq9AxFuw9XhQTfMUr7uEfxvTCJHTIU9aYM5ct2yza7YffviSs9T9H2fBBz+vAf7KaYO1NUQiFmmsSsLqMim7tlB50T2tufxuyvTQXS4gtXkuALV5LgC1eS4AtXkuALV5LgC1eS4AtXkuALV5LgC3cyqwC46tbT02N5DbKNtblJiy9c6f8Bm9lIjMBbzTMAAAAASUVORK5CYII=;" vertex="1" parent="1">
          <mxGeometry x="40" y="400" width="190" height="208" as="geometry" />
        </mxCell>
        <mxCell id="Kt9OW5PYxR4Jgx1hHl5N-34" style="edgeStyle=orthogonalEdgeStyle;rounded=0;orthogonalLoop=1;jettySize=auto;html=1;strokeColor=default;align=center;verticalAlign=middle;fontFamily=Helvetica;fontSize=11;fontColor=default;labelBackgroundColor=default;endArrow=classic;endSize=12;" edge="1" parent="1" source="Kt9OW5PYxR4Jgx1hHl5N-11" target="Kt9OW5PYxR4Jgx1hHl5N-12">
          <mxGeometry relative="1" as="geometry" />
        </mxCell>
        <mxCell id="Kt9OW5PYxR4Jgx1hHl5N-11" value="" style="shape=image;verticalLabelPosition=bottom;labelBackgroundColor=default;verticalAlign=top;aspect=fixed;imageAspect=0;image=data:image/png,iVBORw0KGgoAAAANSUhEUgAAAL4AAADQCAYAAAC5itu3AAAUdElEQVR4nO3dUWgbV77H8a9CHhy4BQf6IEMCVXBhHRqIDRc8gj5UdhbikAuRcMASXUjlXUicW2jspuxKyYMjd7eNnQtt3IWL1TwEjSHGMuxiBTa18lCQDFvsQC5xocFTSEADLVjQgAUJzH2wZcmJbcm2pBlp/h8QWPFI+k/809GZM6NzMOrGgjF6EoPemJExu5SKWjUy6ZgxetFreN5zGoABTqPtg6ARiT8xVswur1JerhhPEhPG4AWPobSyvp8uQzllzn5S49fbk9WVZWP2msdw0oDBfxYzvOSD8ObNdWHaWDa7xgrIqN5t9zG/n7X8ux7AyuZHcDgcHDp8jDM3kuhm11MVTbgu3mZ6cZmV3wwMw8AwVskkI/Q4QbszQPRhzuwi9+/gYfzDMeaWMqy+3Go/I8Qe1bCeGr7Jdi8debN1aLQWfwf5VtL5+YLZpVTVwq12AzD892r3l7V2i98ZWm8ZDIx0xOxqas7p6jC7hBrIsfJLBmin411nzV71YM1eSeya9jgJgO89l8mVVMkLjfTUGOG/6ijDcQZO1u6lrd3i29mLJOPXk3AyQuBUs9nVVJQ+6cPhcOB46xjeuzkCiWWS1xSaaliDtPiWpKFeCjCmK0RmBlFqmYga0x9GGWtq5rArgv93tdtRafEtRyP+UReBu4cI3osR6my81Dv7pteO216uklmM0bMyRqDNR/Rp7WqQ4FvJiyWif3Dju+Nk4B9zTPQ2aN8+72ATzpN+RocHgQThqcWavbQE3yqyaUb+y0P/g+OE/pXg9tkGD32RprcOA6C/qt35Cgm+BeR+jNL/n27Cz84w8XCWSIMdzJai/bQAgPOg9PFtQ79/GU9bP7NHQ8ylJwjW8ACvdnTifwowMplkSc+y0a6/0FmcvEzgD3FAYeh0e+1Kqtmpsr3Y6sxtg53FTQ3vsH9Ft0ja7Er3I2PEenfaP6fhV2t7RZK0+KIGnHhvLTD97SDBUwobRy+tCt6Lo0w/XiLWV9tjGodhGEZNX1EIC5AWX9iSBF/YkgRf2NK+rtVxOByVqkOImpIWX9iSBF/YkgRf2JIEfxe6u7vNLqHq7LCPUIXgG/nvyDbgrbu72/QaZB/3d6ta8IWoBxJ8YUsSfGFLEnxhSxJ8YUsSfGFLEnxhSxJ8YUsSfGFLEnxhSxJ8YUsSfGFLEnxhSxJ8YUsSfGFLEnxhSxJ8YUsSfGFLdRD8NCMOx9piYbu6jZA2u/TdeKGxOBMlfMlHl3KsaD9aOO7pov9qlMTTrNlVNowtg794s2P9P72DsVquNm1H2TRj/uO0vHWMDm8/I3+Pk5zXijbQWXqYJHqznzPvHsb9scrSC9OqbRhbBH+RpLq48fPoP+uq3aw/LzRSk0voZW6e/jqA55KKVnpTsYM3gz+fYPQR9PzvBBEn6N/Mkqzd0kQlREiV/Y36EIrZ5e6Ki56Lo8SST8isrBb24+UqmaVZRosWgtPvBhiZkW7PfrwW/BzJf9xGpwfvB0F6rrSDHiWZtkzyG1ATrk9iLPyyzOw3g/g/aMPZXLQc0MEmnL/rYfBeiumLhSXvozPJsj8lxJs2Bz+XInlHh9NePK3QfipAOzoj91NI9KvkiJfRW37a3y61oROvP1i4+2CJTDXranCbgp/7PsGIDt4Pz6wt13LSQ+AkcDNBSpJvvoOHCj8rLuy1NmJlFQU/R+rBGODF937+I7Udj78dGCP+QPqUZstmCoe07Uob9lkJt/IKwc8mid8ELgToOVLYYK27A+MzSST6Jvo1QWQ4uvaz00+4r4ZLYzagjeBnH8YZB4JnPZs/QvPdnTsJkr/WurzX3cbbsvlEVcuJLrrOX2ZsMonWgO/MnL5E8s4QXSfOrJ1TcXqIzETxHin5ULETwzAMw1gxpi+UXmvVq25eVXarbSovZUTKWAcWMHC2GcFvnxirVajCMAzjb3/7W5WeebOM6t1yLdi2vlFjrsoL+9ZqH82S//9ca/GfJ4jdKf0mid+dtfaJE32J6EfH8dxIN9wolOeTMW5fD+J2lt5WlHYAQHsQIw4M/GNlm5NBy0ycBu7HST6tdYlNNJ0dYFSdZUFbYfWlsenkzoq2wPRXQTxFgUhfH2BsvrGin/yfAF1th3GdCDD+QwP26WrNMJaNidMYMGDMrmz/EbH8bY8BGD3fFpZepyZdnTKtpIxIZ1EtF2eNHXZnT0zpBrxcNVa0BWP6S6/h2vh/VoxIujodOvt0dZ4mid8HPvXi2WFg2PW+lx4gMZm0ZnenWWHw8xAbDf/fF1kys55KOdhE8zvteD+dZiExuL5/acIXx1ks8VCxvQPaQ5UEMHjKTdNOW7Z68J4GHowTt+gVm03tbnwb956QabBz+s2nB4icWr/zaJTED6aWU9cOuv44h/HHcjZ1EUwYBEtvaJ6mpqI3b47cKxNrqYpDHNr4VNbJZLIg52/3pA6+iLILz7Wij/8OXDLWLbbRUMHXHsZJ5u9cbKfNzGKq4dcUyan8nXZcR6W13yuLBz/N2Pkxks9LD03mHo1x+U+J9XtOQr2eOugE6MSvDBGdL+dgREO9MkA0f/dkAM/JKpbW4CwefMhNDdF19BDHetYuS1jSs0Unp3Jkf14kftPH8fYh8rHndITgBzseqltG7vkY/UoLLSfOcPnrOOkfdbJF7/NcVmNxZpx+j5vA3fwbxMnAcBC5WmfvDppdQLm0++MM3R9nqNSGrUGmvwnW3ZWL+v8lGP84wXgZ2yrDcUbPWv/zzMos3uI7cfWWH2FX7yip9ATed6pXUWU14VL8tJV7GYLTw6D6hOQ1Zeeh5waUvlF0ceJ5dd/fPrN48F347y1j/LbMQnyC0EUvng/aCiepcNL2gYfgpxPMLq2wfG8QpeQ3maykGeWTGE8yq6wszRH7apDgKQ9Ka9EmrQqeC4PcVlNktDlG+9psF3p90of7cYyMYWAYGWIEaLmxz0kQKnH6FytcslADjX463zCsuI9rV+dG0kX/lI4YEDFSe3g2Nl2dKUQ9OeLCywLa870/hQRfWJyCZxjCDyo7v1PdjOoI+1KupYg43DiuF/9rhKF9nJmXFl/UAYVQ8fdD0hEY9uxrwjBp8UV9ea7iUxaIPQvt62mkxRfW91zFlx/DP6oxZEzj3+cFiNLiC+s74mfa8Ff0KaXFF7YkwRe2JMEXtiTBF7YkwRe2JMEXtiTBF7YkwRe2JMEXtuRYvzh/bw92ODbd7+7upru7e99FCVEt3333HVDh4APs4+ks74svvuCzzz4zu4yqavR9zGdWujrCliT4wpYk+MKWJPjCliT4wpYk+MKWJPjCliT4wpYk+MKWJPjCliT4lqOjni+aEtvhYGTe7JoajwTfcjQ08lNir80aFlZ8qPuYIFW8SYJvOQqhe/7CGgCdHiLE9zUzsHiTBN/qnmss4JWlSytMZlKzNB31SgDUzL6nzBObSfAtS0c930LgRAqjr9xFskS5pKtjSUWhv7afybDFdqTFt5y10E+fy0hLX0X13+K/SDOiNNCY9/Mk01MQ97dsGst37HeVP6t5lWXpocrYJR9dnuO0bOxrC8c9/ahPq/vydd7ia6iXvITrPezFqjAltrVkWZqMcPnKGMktF6vVWXoYRft1Alq3+n1l1HHwc6RvBIqWuReW92KRMX8PQ/80/2+23tVJM+LYfJo8f2s50UX/DZW0+bVuok0G8V5PA06c0hWuAxrqpeLQO2nrixBLL7PyW2F9q9VfnjD7VZDmajfJxYvostPN6Temn229WC41XuB5NR0xlPXXU4ZTxuxw4fU3LQRcYdZb/LjyqrOPq8bC50pRljxG6F8rVXid0th6gecIqeLV5QyD1V8WmPjQCbpKZGqxym/DMvysEjwXJg04P4wRu6Zw2OyaxM6exgj/JX9wrhCZmSVyqtnUkkqO6jS93U7w0mUAFl/kql7Qjl6kGekLoOpAZ4T4N35c5lYkSsqR/DZMYv2ecmucUGeTqRVBmcOZud9WAAi+11bVYnZWNILj9BObDKH8h4nliPLkUiT+mu/XBxn6sN3UcvJKHkJkf4wzen0M54cxQufM+ngqHsFRiMxE8b9jUilid35IMpb/+aIXz9tmFlPwWosfxv3aqM7hNh8j2QHGrvaY1q0oHsHxqzFLfFSK8mhLhRNvXqWN5ldZlu5HGfqoC/e7RVl7103XR0NE72tka1BXeWdufxwncOIw7o8TaFUu6HXZB2ECfhUdUIbjRPukV19P9GfJjZ+zD0Y403aY4z39jN1Jki4+O/s0TfLOGP09x2jzhEn+Wt26So7qGMYqK0uzRM46SX99hst3ahf93PwIPb8f2TSCI219PdHRfizcS96NkijjUgT94QhdJwKoP1etsHJa/Caaf9dD6FYED5C4n6Ym57KKhi1lBKdBONvwfzrB9OLmk1bGy1VWtBQTn3gK3zzTVQJX1aplrfyL1FqPowB8r5GpUjEFOvHrhWHL1AMZwWkEoaknxL4M4j3porn473mwieZ3FIK35kipRV+7nBol9qg6tZQf/EeptbHYU220VKeWTXL5UwbzYdxvbX05Rf7mvl54XLjoSk3H+eq1GGL3DpVxGYKrL0LkdP7eIgs/VecvWDr4L7Jo81EuXxxiEScDvUUfR0KU0LTrgzIXHe8XEpZ8Wp3+xWvvwTBuR3jbjZXhOKNnzT3VLOqJE1ebE9Y/d58806GzdLPZfMQNxAHQX1XnaoHSLX6rgudChFg6Q6pmoypO/PdeH13a/pYaLjwyki76XfE0HcIUrvd8Gz+r/35COTHWf4pv/Oxtrc6QxnrwFULbBeunFHPfhvCX8U4V4nXNiodg/s5NlUTJ8flFUv/M/+ykw1Wd3NX/Vw+Ftb3twXsxH94oA1dUtFfbbZwjfWOAofxIzskhejqrU5YEX1RZMz1XIvSs39PvBnD/fojovEZ2o9+TI/tzkvE/nVm/NAXAyeCXA1TrkrY6/uqhqButQW6rSdzrl57oD8foV8bo3/YBTnpuJYicqt4RpbT4DUSf9BWd31i71MMqXH0xlv4VwlOqy+70MBhPMftJe1UHUiT4jWJ+hBZ/x8a1VqnhMG6LncBrPhVhTsuQUkcZ6PXQtvEmcKH0DjCqpshoc4yeq/7FKQ3R1VGuGRjXzK7CTDrqrTBeNUN+3jXlQgzv0WmSz/3WmnezyYnSN4jSN2hqGdLiN6ojLjpkevFtSfAbghPPOS/xmaSlujZW1hBdHQHOvnFiMy20OAJF/+olZqVujoVIi98wXrvM41kMb68PjwR/S9LiN6Q0I0cDdKQNuVZpG9LiN4ziaSBHcT0zCFXpdH8jkBa/YaxdaBgyu4w6IS2+sCUJvrAlCb6wJQm+sCUJvrAlCb6wJQm+sCUJvrAlCb6wJcf6glh7e7DDsel+d3c33d3d+y5KiGr57rvvgAoHH2AfT2d5X3zxBZ999pnZZVRVo+9jPrPS1RG2JMEXtiTBF7YkwRe2JMEXtiTBF7YkwRe2JMEXtiTBF7YkwRe2JMG3HB31/OblTEfmza6p8UjwLUdDI0YmPyNaOkJY8aHK5K8VJcG3HIVQ8WqNnR4iMutxxUnwre65xgJeXDIHZkXJTGqWpqNeCYCasdbiDg1Agm9ZOur5FgInUhh9MvVrpUlXx5KKQn9NKb252DVp8S1nLfTT5zLS0ldR/bb4P4zQ4nDgcDTYUN/zJNNTEPe3bBrLd9yw0uKd9a9OW/wsiXu3G3O9pyN+pg2/2VU0vLpq8XPZLNqjOGPnOzhzsyFjL2qkLlr89A0H7utmVyEaSV21+EJUypvB19OoNy/jU45tHFgdU7rovxol8WPWhBKFqLyi4OdY/NrHsRY3gavjxOe1jd9o80miN/s503aYYz1RlmpcpHKtaBlLw8AwMsR6a1yEaCgbwdcmg/R8HEdDIfjVHMsrqxtBW11ZJqVG8LaCdl9H2n1R79aC/1xlyK+ioxBJJ5n4bw+u5qaNjZqaXSh9IaaXMsxea6Zpu2cTok4cBFicGiUOKLfGCXXuEOuDTnqGB2pUmhDVcwA0lr5fBDwEz7abXY8QNXEAdLQZAA/HW80uR4jakHF8YUsSfGFLB8CJ6xxAkidPzS5HiNo4AC7a3m8HkozPLJpdjxA1cQCg/ewAPcDi1QFG5nPbb/1KJ3F9HHl7iHq31sdvDRD5XAHShJXj+G4mWPq18AbIZTUWZ8bwtbVw5kaWHd4aQtSF9cuSm2j/c4IUPrx/SRK/eob41a0f4Op1IV+IE/WuaFSnGeXPcyz9NMvEp0E8na6N37g6vQx8GWPupxWW7/lxbfFEQtSTN76I0tzaQ/DLHoJmVCNEjdTFOH76xuZJVB2OFgJT+d/GCRx9/fcjyFezxU7qIviiPPqkr27e/Jsbs3JrTTNS1MD5Jvf+vWsJfqOYH6HF30Fq/TsUqeEw7vOqJWei0Cd9uB8XZoTOqAtl1KqjnnezoGbWvifyLAb+lj1PoV4XwX/zG1ilbiHsNf+YjnorjFcNbuy3ciGGd2qapAXnHNKexuFEYXTQ6eqAKQ1tpwfNRwlMRRjKT7J1xM/QMIQf7O1zrS6CL/bgiIsOi04vrlyI4b3u3pgkK/1g85u2XK5WLzzW9vSpJsFvCE4857zEZ5KW7Nq84YgHXy94H4/icDhwXy9qybfT6SFCmGSFVoeR4DcIZ984MQLr0yo6cDjchC06r376xtrcoNP3pgt9/JIHuAqhdISwUji4bfFv7jLthgS/YTjx3ys6znkWw9vrw2O54Otoj6HDVYir830fXhZKd8s6Q5uO5VLDEDm1t6M5CX5DSjNyNEDHFb8FLy9x4joB4VuFURz9+2nidOzq0yk/MhTs3FsVEvyGUTzGPYrrmUFoj6GoNuVaZlO3bG0YtvRIXPF5ipanQxj39v7Grou5M0U5FEKGQcjsMsqy1i3b7ZzQzr5pjL7KVCAtvrAlCb6wJQm+sCUJvrAlCb6wJQm+sCUJvrAlCb6wJQm+sCdjHwBb3bq7u02vQfaxMjdp8YUt/T9ag4s3o/xGjAAAAABJRU5ErkJggg==;" vertex="1" parent="1">
          <mxGeometry x="320" y="400" width="190" height="208" as="geometry" />
        </mxCell>
        <mxCell id="Kt9OW5PYxR4Jgx1hHl5N-35" style="edgeStyle=orthogonalEdgeStyle;rounded=0;orthogonalLoop=1;jettySize=auto;html=1;strokeColor=default;align=center;verticalAlign=middle;fontFamily=Helvetica;fontSize=11;fontColor=default;labelBackgroundColor=default;endArrow=classic;endSize=12;" edge="1" parent="1" source="Kt9OW5PYxR4Jgx1hHl5N-12" target="Kt9OW5PYxR4Jgx1hHl5N-13">
          <mxGeometry relative="1" as="geometry" />
        </mxCell>
        <mxCell id="Kt9OW5PYxR4Jgx1hHl5N-12" value="" style="shape=image;verticalLabelPosition=bottom;labelBackgroundColor=default;verticalAlign=top;aspect=fixed;imageAspect=0;image=data:image/png,iVBORw0KGgoAAAANSUhEUgAAAL4AAADQCAYAAAC5itu3AAAUVUlEQVR4nO3dX2gT6d4H8G/Eiwq70MJeTEFhR7pgZIWmvC90Cl7stD1gxBdM6EITPKDpHtC4B9x2lT2pXtRk1z+JL+zquTg0eiEZwZIUztIIq00vhExhD42w0AhKR2ghAwoJbCEBhedctPlTbZvUZmaSzO8DAxlMk99jvvPkmWdmMmBNY4EFu8EwFGEZo0upqzzLyBEWPOtg4pccA8AAjlm/8jB/bJFljS6vXt5m2WJ8ko2eFpnQhfV28kwYNKad0Pn9Pko+u8RmLouMQwsGfznCHCgG4cOFPx1lS0bXWAcZybFlG4vt1PNz3YNGNh+AxWLBvo6DOH41AdXoejTRBv7sbURTS8j+ycAYA2N5ZBJ+2DlAuedFeK5gdJG7t7cDrokIZtMZ5N9u1k4/Is90rEfHjWznZP+HvUOr9fjbKPaS3I8LRpeiqYVbNgaAuR7q98k2do/f61vvGRiY7De6Gt1xfI/RJeiggOzrDAAber7gdHvXvbq9E9kx5Y8EAMD5JW9wJRpZVSBPhTD+kwphIgZvt35v3dg9vpmtJnDnSgLo9sM92G50NXWlPnDCYrHA8ulBOO4X4I4vIXFZQJuONVCP35AUSOfcCKkC/NOjEPRMhM7UuTBCbe3o4P1wHdKvodTjNxwFsTP9cN/fB8/DCHy9rZd6bji6tt/2No9MKgJ7NgS31YnwS/1qoOA3ktU0wn/tg/MeB++/ZzE51KJj+6K9beC6XQhOjAKIY3wqpdtbU/AbRU5G4P9EjDw+DN9vcdw+0eKhr9D2aQcAQH2n3/EKCn4DKDwPY+R/+zC+fByTczPwt9jObDXKiwUAALeXxvimoT46D9E6gpkDPszKk/DouIOnHxWxv7kReJBAWs2h1K+vqkg9OA/3X2MABIwds+lXkm6Hyj7GZkduW+wobnJim/ZVLH7Z6Ep3I8MiQ9u1j2MuSd8zkqjHJzrg4Li1gOjdUXgGBZT2XroEOM4GEf0jjciwvvs0FsYY0/UdCWkA1OMTU6LgE1Oi4BNT2tW5OhaLpV51EKIr6vGJKVHwiSlR8IkpUfB3YGBgwOgSNGeGNgIaBJ8Vr5FtwWVgYMDwGqiNu1s0Cz4hzYCCT0yJgk9MiYJPTImCT0yJgk9MiYJPTImCT0yJgk9MiYJPTImCT0yJgk9MiYJPTImCT0yJgk9MiYJPTImCT0yJgk9MqQmCLyNgsazdLGxHSwCy0aXvxKqC1HQY4+ec6BcOVrSjE4fFfoxcDCP+Mmd0lbumzksInXOi/0hnqY0HBQPaxzaxcMO2/vPNNhZMbfaMNdjkJ5/rL8n8NfyM9oeLnyXrXMm1a9fq/IqMsWySBYetjKuxXcK3Ebb4Z/3LKNKkjYwx9nqW+b7iqrSPY+KFKFt6q00JjJUzu0mPn0JCSpUeB39tqn6z+awqSD5IQ63x6fIvbojnJCiaFlVnryS4j/QjMFetlSoS/+9E3xnt2/dh8OfjCD4D7P+ahJ8D1H/OIKHfrYmq8CNZ8xX1PghGl7sjPOxng4gkFpHJ5svteJtHJj2DYMWN4NT7bgSmm2TYsyojMOyGVMx8lwPB+CIyf5Y/q7ySxOQFEcX7mqv33XD/lIKmsdv4RZBnsz9wDLCzyRfFIQ/HfIn8tl8blUv9VQ516j982QlNhgHLUTZ6IcIWXld7YoZFz1YMFU5FNbkbTL3buHTXXq6518+S2wzTliRXxZDPwSLLdS2FMbbVUKeQROKeChxzQOwCbINu2KAi8Cip7dZnZvsdCN5ywfZZtSdycLg85dXHaWS0rKsuUoj9HF9/zMH34yiET7Z+Nj8cRuT7Yr8fQ/iRdgOeDcEvPI0joAKOU8fXbtfSLcLdDeBmHElKvvH27is/Fng0/L0RV9JIPiuuuCFWvUV7G0TH+dKQJ/FI1mysXxH8ApKPQwAccB4tvrUNossGIITY4yYZU7awXKYcA5tgRXPdCbcD+2q5oeMhG5zFx9OLNe/071Q5+LkEYjcBnHbDvr/8hLXhDnBnOgGKvoHexOGfCK895lwYH9bx1ph6au9AZ2klDWVFm7cpBT83F8MdAJ4T4sav0OJw514ciTfaFFG723B0bjxQ1XmkH/1fn0foQQJKC26ZBTWNxL0x9B85jtAzAJwI/3QYjv1V/9R4n7RXhDiBxZcG1vK+tX3dLIuern7wxCFlNt1Dhm6zOlUWzso8dxfZ5nNQu6fZwZ33ZCTHpgd3rMNBNqvxjX3r28YlNnms3AbuVIRVv5tt5edd/5mdYi1rPf5KHJF71TeS2P2Zxj5woqYRPnMY4lW55WahxAsh3L7iQR9X/bmNg4fzrHfD/HyfOIbwvILcasXT3hWQe5VC/EEA7iMOjOtRGmPluVbvv7NbbCfFLXdtfv/9rQea9vgLLHjCy4LSDFtQsixfeTj7bZ5llQUW/dnDRK6yDhvzy/Xv943t8dd7zS9d7PbvW31Ou1f/NmZY9DT/EaecaNvjoxxqL5vZ5v+zuHHY7y59+CKaBr9G2STz91bUcnaG1TseegV/g+LGfcPB+NL/s6DJhs2YVm3MstnLYg3nI/HM/r2XOUrro2y2zs0sB//FJLMDDN/Pbj82Lj5vcLI0Tmuo4DPG8glfxX9uk5yktgPZ+Gi5fd1BtqDBe2jZxvxykkUmPEz8qvKkPJ4Jgx42eneGLb5mjC1HysHXoI2lrC79S2QA2Ohv1Tat4jdD+YzNRgs+y84wb6kWF4vWeUfQ6OAztsQmB8s7u/7f6/8ORrcx/9toOU/VOuOPUHztvfw3s2Df1LI3wMMTZ/BUf6Jx2tpQPkZSQOGdgbVoYh/2leaaVWQyOaDxj9/uQAHJuUhpzXu0B7Uc8/oYTXAhyg6sKEiVVnrAN8NcNyl7FcOdn9aP1XI+OAa126hbKvjKXAyJ4spZG6xGFqOFN0kkpoorNvAHWqm3VyBdGUVsfU246ISoVXePhg++jNDXISRWqs/KF56FcP5vFWcCDolNMAhQEftuDOH5Ws5IUSB950W4uNrthtitYWl6yqURPtMP9/31/4duH0LfaHxKRj12FKDZzm35KB5/zMuC0ixbzGQrdng2m+oDw7HJGo4Q7pwWc9yRoeL8vJ15f46yZDrDshV7dPnsEluI3WaeDZftcdscc9kdbXZukyw4FGQz6YrPbstjMNpN1TK2YR6/Di+iQ/BrXro8LKrUuYx1WgZ/J4swkWyy0zJq/Bw5OwumtAs9Y9tec9tIOPBDtZ98yw8FkZQn4fhcu4rqqw284IK11tMQOBGj0iISlwXNZjuMwUG8EMFiegaj3fq0bK8u7/LReLgeLsG1qiD1OIHo4zjk52kszhUvzuZg/eow+v7HBccZJ+yHGn9Uv1E7hAsRLF4II/c8ifjjOBK/prCoJCAXz2TsEiAe7YNj0AnnSQFcUyaeA39ahPD0vXbZeiAcs8N9wg5r1SvQ6qvBg7/uEx62kx7YTjb0UYRdaEP7IRGuQyJc3xpdixZ4uO7OwmV0GRUafKhDiDYo+MSUKPjElCj4xJQo+MSUKPjElCj4xJQo+MSUKPjElCj4xJQo+MSUKPjElCj4xJQo+MSUKPjElCj4xJQs69chftwfWywb1gcGBjAwMLDrogjRypMnTwDUOfgAsIuXa3jXr1/HpUuXjC5DU63exmJmaahDTImCT0yJgk9MiYJPTImCT0yJgk9MiYJPTImCT0yJgk9MiYJPTImC36hWJDgtFlhKSwCy0TW1EAp+o1pRACkDxhgYY0hOjKPvawm13DSIVEfBb1S9PkSHy3eMEAb9wJQCxcCSWgkFv0moygIwxKP2+8OQ7TTHjSHMbkWC1wVEll2o9a5BZHsU/Ea3IsF5wI0emcFFN6yuGxrqNLKK0Pt6jS6mtVCP36hWJDgPROFcpp5eC83f46/KCAjl+e7AvNEF1Yf6NIoYYnAfqJzLb5324V0O6TkJoXNO9IuH0VlqYycOiyOQXlZ/id1o8h5fgXTOgfFWCUMFbjgKNmx0FVrIIf3Aj/PfhZDY9KCEivRcGMqbSaBLuyqaOPgFyFfdcN+nQzpNYzWFkMuOsV+N/8zWhzoyApaNX6nFpfNIP0auSpCNr3UD5YEHjisyAA4czfE1AQXSucrQc7AO+xGRl5D9k5WOUOdfL2LmZw/ate6SGWOMsSTzAwzbLZyLRZfZBps9Tw952c+E9fcTJpJsZqL8/n5Zu/e9du2adi/eILRpY54t/ChUZElkvt+yGrxPdcUa3tu59SPJylsfYwz51wuYPMUBqgT/VErjzbAGryR4To5DBsCdiiByWUCH0TWR7b2MYPwfxVPsBPinZ+AfbDe0pKqzOm2f2eA5dx4AkFotaF7QtlZlBIbdkFQAvX7E/umiQ/gNr4DE3XHE19eEW3fg620ztCKgxunMwp9ZAIDnS6umxWyvYgaHcyHywAfhEwPLIbUpJBH/qTiu92DslM3Qcoqq7kLknscQvBICdyoC30mjvp4qZ3AE+KfDcH1uUClkZ/6TQKj4+KwD4mdGFlP2Xo8/jr73ZnU6rE4Ecl6ELtoNG1ZUzuC4pEhDfFWS2ijp8uUzDsGK9nc5pB+FMXamH31fVGTtiz70nxlD+JGCnA511Xbk9vkduI90oO/vcd3PB889HofbtXYBhjARQ3iYRvXNRF1OlB7nHgdw3NqBw/YRhO4lIFcenX0pI3EvhBH7QVjFcSTeaFtX1VkdxvLIpmfgP8FB/uU4zt/TL/qF+QDsfwlsmMGhvr6ZqFCel9cS98OI13AqgjoXQP8RN6RXmhVWS4/fhvZDdvhu+SECiD+S9bn8rWLakmZwWgRnhev7SURTGw9asbd5ZJUkJi+I5esNVAnui9pdaln7SWpdhyEAwFMFGY2KKVMRu1Ketkw+phmcVuCbWkTkhgeObh7tlZ/n3ja0fy7Ac2sWSaniYpupICLPtKml9uA/S67NxQ5a0alNLRsUiocM5sfR9+nmp1MUl74r5b8brzhT00IXZzeUfTWchsAP++E/VlxLYeGFNp9g9eCv5qDMh3H+7BhS4OAdEunyN1Kzth3vlPHoOVpOWOKlNuOL97bBcfRZxrd8sjARQ/CEsYeaSTPhwFs5YP17d3FZBXqrd5vt+/sAxAAA6jttzhao3uN3CRBP+xGRM0jqNqvCwfXw/dmlrZfkRPkv/XLFvz2ki7ONxn/pLD2Wfl9ELTFWX8RKjx1d2kxprAdfgG+rYL1IYvauD64atlRC3tcuiPAUV25KiFedn08h+WvxMYceXpvcNf+lh6SxfSbCcbYY3jC830lQ3m315ALkq16MFWdyusdg1+giewo+0Vg77N/5YV9fU++70feXMYTnFeRK454Ccq8SuPO34+unpgAAh9EbXmh1SlsTX3pImkaXB7elBPrWTz1R50IYEUIY2fIPONhvxeEf1G6Pknp8ogt+OIL0bz6I1YbsnIjRWBIzF2yaTqRQ8Ilu2gf9mFUySEpBeIdEWEsbAQ9hyIuglERGmUXwpPYnp7TEUEe4zMAuG10FqUkbB2F4FMLwqKFlUI9PTImCT0yJgk9MiYJPTImCT0yJgk9MiYJPTImCT0yJgk9MiYJPTImCT0yJgk9MiYJPTImCT0yJgk9MiYJPTMmyfkOsj/tji2XD+sDAAAYGBnZdFCFaefLkCYA6Bx8AdvFyDe/69eu4dOmS0WVoqtXbWMwsDXWIKVHwiSlR8IkpUfCJKVHwiSlR8IkpUfCJKVHwiSlR8IkpUfCJKVHwG9WKBOeG25qu3eGd1AcFv1GtKICUqbjB3Tj66L69dUPBb1S9PkSHy3dREAb9wJQCxcCSWgkFv0moygIwxEP7WyaYQ0vcGKLlrUjwuoDIMt23t14o+I1uRYLzgBs9MoNrv9HFtA4a6jSyitD7NLrfq1lRj9+oViQ4D0ThXKaeXgvN2+P/J4BOiwUWixPSitHF1J/6NIoYYnAfqJzLtyAwb3RlraFJe/wc4g9vt/ScNjccBRs2uorW1VQ9fiGXg/IshtDXPTh+s5VjT7TWFD2+fNWCvitGV0FaSVP1+ITUy4fBV2VIN8/DKRws7VAdFPoxcjGM+POcASUSUn8VwS8g9YsTBzv74L54B7H58lkhynwC4ZsjOG7twEF7GGmdixQus9LJWmtLBpEhnYsgLaUUfOWBB/a/x6BAgOfnWSxl86Wg5bNLSEp+OLoA5ZEK6vdJs1sL/oqEMZcEFQL8cgKT34rg29tKT2pr5yEM+xBNZzBzuR1tW70aIU1iLwCkpoKIARBu3YGvd5tY7+Vgn/DqVBoh2tkDKEg/TQEQ4TlhM7oeQnSxB1ChTAOAiMNdRpdDiD5oHp+YEgWfmNIegAN/EgASWHxpdDmE6GMPwMN61AYggTvTKaPrIUQXewDAdsILO4DURS8C84Wtn/1ORfzKHdDmQZrd2hi/yw3/jwIAGePCYThvxpF+U94ACjkFqekQnNZOHL+awzabBiFNYf205DbYfogjCScc/0ggdvE4Yhc3/wN+iKcr/UnTq5jVaYfwwyzSL2Yw+b0HYm/5F1z4Xge8NyKYfZHF0kMX/bYLaXofXIjS3mWH54YdHiOqIUQnTTGPL1/deMG1xdIJ91TxXz+8IJt+YJVU0xTBJ61KRqCyw7qqX3dFwScGUSF93YeF0i9CZxD5ow/OB/r8iEBTBP/DK7CqLT4IRhdNqlCgTAE9fHGOkAN/BIi91Of3oJviVxZIKxLgkRzoFCyAzODrlZG44kBkWZ8ui4JPDMMddcIBYOGWBZYpABNJMJ1+LrEphjqkFckIHIjCuRxF9GF5jK/XDi4FnxhjRcECesCXengO4kkH8Ieiy09DUvCJMfbz6ME4gqVZHBWJ6RhwRJ9TYij4xCACfMsRwNVZPih5JAl2mXZuSavb70KUuQx5a+rxiSlR8IkpUfCJKVHwiSlR8IkpUfCJKVHwiSlR8IkpUfCJObFdAGCqZWBgwPAaqI31WajHJ6b0Xx++bsjHat94AAAAAElFTkSuQmCC;" vertex="1" parent="1">
          <mxGeometry x="600" y="400" width="190" height="208" as="geometry" />
        </mxCell>
        <mxCell id="Kt9OW5PYxR4Jgx1hHl5N-13" value="" style="shape=image;verticalLabelPosition=bottom;labelBackgroundColor=default;verticalAlign=top;aspect=fixed;imageAspect=0;image=data:image/png,iVBORw0KGgoAAAANSUhEUgAAAL4AAADQCAYAAAC5itu3AAAUyklEQVR4nO3dUWgT+b4H8G8WL1TYhQr7MAUXdqQLVhSacg90yvXBaXvAiAdMqNAED2jcAxr3grYqe1J9qMnuqokXdnUfzm30QZKC0hR2aQS18WEhKeyhEfbSCEpHUEjAhQQsJKDwvw/NJKm2TdpmZjL5/z4wkKFp5vdvvvPPf/4z6YCZxjwLdINhKMwyRpfSUAWWSYZZ4JSdyXsFBoABAus64Ga+6ALLGV1eo7zLsYXYBBs5LjOpE6V2ikwaNKad0Hl7m1LILbKZSzIT0ILBfxVmdqhB+HgRj0+xRaNrbIBMxL5mG9V26vm+foJmNueHxWLB9h27cOhKHFmj69FEG8RTNzGVWkTuLQNjDIwVkIn7YBMA5Y4HoSdFo4vcum074BwPYzadQeHdau30IfxUx3p03Mk2Lun7uHdotR5/HWovKXw3b3Qpmpq/YWUAmPOefu9sc/f4vd5Sz8DAkj6jq9GdIPYYXYIOisi9yQCwoucrQbetbtNtS2TDlD/iAADHXtHgSjSypCB5P4ix77OQxqPwdOu36ebu8Xm2FMety3Gg2wfXYLvR1TRUdtIBi8UCy2e7YL9bhCu2iPglCW061kA9flNSEDntQjArwTc9AknPROgs+ySEYFs7dog+OHfr11Dq8ZuOguiJfrjubof7Xhje3tZLvTA8tXzc9q6ATCoMWy4IV5cDoRf61UDBbyZLaYT+3gfHHQGeX2YxMdSiY3vVtjYI3U4ExkcAxDB2P6Xbpin4zSKfhP9vMk4+2gPvwxhuHm7x0Fdp+2wHACD7Xr/zFRT8JlB8FsLJv/Rh7NUhTDyZga/FDmZrUZ7PAwCEbTTG50b2wRnIXScx84UXs8kJuHU8wNNPFtF/uOCfjCOdzaPcry9lkZo8A9ffowAkjB606leSbqfKNmO1M7ctdhY3Mb5O+6oWX9LoSrciw8JD67VPYM6IvlckUY9PdCDAfmMeU7dH4B6UUD566ZRgPxXA1B9phIf1PaaxMMaYrlskpAlQj0+4RMEnXKLgEy5t6Vodi8XSqDoI0RX1+IRLFHzCJQo+4RIFfwMGBgaMLkFzPLQR0CD4TP2ObAsuAwMDhtdAbdzaolnwCTEDCj7hEgWfcImCT7hEwSdcouATLlHwCZco+IRLFHzCJQo+4RIFn3CJgk+4RMEnXKLgEy5R8AmXKPiESxR8wiUKPuGSCYKfhN9iWb5Z2IYWP5JGl74RSwpS0yGMnXagX9pV1Y4O7JH7cfJCCLEXeaOr3LLsXATB0w707+sot3GXZED72Crmr1lL/77ZygKp1Z6xDKv8y+fGSzBfHf9G++PFxxINruSHH35o8CsyxnIJFhjuYkKd7ZK+CbOFt40vQ6VJGxlj7M0s8x4QarRPYPLZKbb4TpsSGKtkdpUeP4V4JFV+HPjVVP2m+SwpSEymka3z6cmfXJBPR6BoWlSDvYzAta8f/ie1WplF/H8c6Duhffs+Dv5cDIGngO1fE/AJQPbnGcT1uzVRDT4k6v5GvReS0eVuiAjbqQDC8QVkcoVKO94VkEnPIFB1I7jsXRf80yYZ9iwl4R92IaJmvtOOQGwBmbeV96qgJDBxVoZ6X/PsXRdc36egaexWfhAU2Oy3AgNsbOK5OuQRmDdeWPdjo3ppvOqhTuOHLxuhyTDg1RQbORtm829qPTHDpk5VDRWOTWlyN5hGt3Hxtq1Sc6+PJdYZpi1GnFVDPjsLv2poKYyxtYY6xQTid7LAQTvkTsA66IIVWfgfJLTd+3i2047ADSesn9d6ogC7011ZfZRGRsu6GiKF6I+x0mMB3u9GIH269rPF4RDC59V+P4rQA+0GPCuCX/wtBn8WsB87tHy7lm4Zrm4A12NIUPKNt2175bEkounvjfg6jcRTdcUFueYt2tsg28+UhzzxB0nNxvpVwS8i8SgIwA7HfnXTVshOK4Agoo9MMqZsYflMJQZWqQvmuhPuDmyv54aOu61wqI+nF+o+6N+oSvDzcUSvAzjugm1n5QnLwx3g1nQcFH0D/RmDbzy0/FhwYmxYx1tj6ql9BzrKK2kor7XZTDn4+SdR3ALgPiyv/AhVhzt3Yoj/qU0R9bsJe8fKE1Ud+/rRf/QMgpNxKC24ZxazacTvjKJ/3yEEnwIQZPimQ7DvrPmrxvu0vSrEcSy8MLCWDy0f6+bY1PHaJ0/skcyqR8jQbVanxiJ0MfftBbb6HNTWaXZy5wOZiH3VkztdwwE2q/GNfRvbxkU2cbDSBuFYmNW+m231+934mR21luUe/3UM4Tu1d5Lo3ZnmPnGSTSN0Yg/kK8mWm4WSzwZx87IbfULt5zYPEY5TnhXz833yKEJzCvJLVU97X0T+ZQqxST9c++wY06M0xipzrZ5fcmvsJ+qeuzy//+HeA017/HkWOOxhgcgMm1dyrFB9OvtdgeWUeTb1o5vJQnUdVuZLNr7fN7bHL/Wae53s5u9rvU9b1/g2ZtjUcXETl5xo2+OjEmoPm1nn76nuHLbbix+/iKbBr1MuwXy9VbWcmmGNjodewV9B3bmv2ZlY/jtLmuzYjGnVxhybvSTXcT2SyGznPcxeXh9hsw1uZiX4zyeYDWA4P7v+2Fh93uBEeZzWVMFnjBXi3qo/rkkuUtuAXGyk0r7uAJvXYBtatrHwKsHC424mH6i+KE9k0qCbjdyeYQtvGGOvwpXga9DGclYX/yUzAGzkYa1dS/1kqFyx2WzBZ7kZ5inX4mRTDT4QNDr4jC2yicHKwa7v98Zvweg2Fh6OVPJUqzPeBPW1t4lfz4J9Xc/RgAh3jMFd+4nGaWtD5RxJEcX3Btaiie3YXp5rziKTyQPNf/52A4pIPAmX1zz7e1DPOa/NMMEXUTbgtYJUeaUHohnmuknFyyhufV86Vyt4YR/UbqduqeArT6KIqyunrOgyshgt/JlA/L66YoX4RSv19goil0cQLa1JFxyQteru0fTBTyJ4NIj469qz8sWnQZz5R9WVgEOyCQYBWUTPjSI0V88VKQoi5zwIqavdLsjdGpamp3waoRP9cN0t/R26vQh+rfElGY04UIBmB7eVs3jiQQ8LRGbZQiZXdcCz2lQfGA5O1HGGcOO0mOMOD6nz8zbm+XGKJdIZlqs6oivkFtl89CZzr/janrDOOZet0ebgNsECQwE2k65679Y8B6PdVC1jK+bxG/AiOgS/7qXTzaaUBpdRomXwN7JI4wmTXZZR5/so2FggpV3oGVv3O7fNRIA4VP/Ft+JQAInkBOxfaldRY7VBlJzoqvcyBEHGSGQB8UuSZrMdxhAgnw1jIT2DkW59WrZNl61smgjnvUU4lxSkHsUx9SiG5LM0Fp6oX84W0HVgD/r+0wn7CQdsu5t/VL9SO6SzYSycDSH/LIHYoxjiv6awoMSRVK9k7JQg7++DfdABxxEJgikTL0A8LkP67YN2WXsgHbTBddiGrprfQGusJg9+yacirEfcsB5p6rMIW9CG9t0ynLtlOL8xuhYtiHDenoXT6DKqNPlQhxBtUPAJlyj4hEsUfMIlCj7hEgWfcImCT7hEwSdcouATLlHwCZco+IRLFHzCJQo+4RIFn3CJgk+4RMEnXLKUvoe4uV+2WFasDwwMYGBgYMtFEaKVx48fA2hw8AFgCy/X9K5evYqLFy8aXYamWr2NamZpqEO4RMEnXKLgEy5R8AmXKPiESxR8wiUKPuESBZ9wiYJPuETBJ1yi4BMuUfAJlyj4hEsUfMIlCj7hEgWfcImCT7hEwSdcMn/wl5LwSxZYLMuLf87ogjan+DKF2OQtjJ7oR/++jnJ7LF/1of/oGQQnk8jWvsG7ebzPI/0kguBpB/rlPehQ22vpwB75JCIvar/EljTiZrnVi74WWfiYsGL7vqR2W9Pi5seF1E3m3CvUd3NnQWYjUS3u2V6hzQ2eq+XYQmTkg7uZf7xo9T7CHDd4Xk8RySsuuO5mjS5kS/LpOCL/V2cbsnEE7X1wTSraFqWVpRSCf+vCHmcQcYPftlLwk/BbKsOF6qVjXz9OXokg2WT5UibdsF9OAhAg1Htn8GYmdMF5fgJTqUXk3jIwVlreZrAQ88FWbmMWkXNBxP40stjNUBA5bcPor2qQBHQN+xBOrmxv4c0CZn50o13rOzAvfwAkmK/mx6yTTb1a/WOjetFDIeljUml70niCzYybd6iTuTfCRm4nWOZdjScqYeasGh7YI5mG18KYVkOdApv/TloxZPM+zGmwndqw+lDHhwSr6m0YQ+HNPCaOCUA2At/9lMa7YR1eRuA+MoYkAOFYGOFLEnYYXdMWCEMBBI5LEGr1cF86MXrOWl6NvjDRcOdFGGP/TJZWJPimZ+AbbDe0pJpj/LbPrXCfPgMASC0ZPK2wlIR/2IVIFkCvD9GfnRCNrUhXHTvN2Noi4rfHECutSTduwdvbZmhFQJ3TmcW3OQCAe2+XpsWsT0HktB1jcwAEJ8KTXkifGlgOqU8xgdj36rjejdFj1nWfrpeahxD5Z1EELgchHAvDe8Soj6fqGRwJvukQnF8aVIqBlBeJ8mN7p0l6/3/HEVQfn7JD/tzIYio+6PHH0PfBrM6OLgf8eQ+CF2yGDSuqZ3CckXBTfFTqrhjHzM9qz2mD7S/mmMpS0snyY7vUhfb3eaQfhDB6oh99X1lWnqg7MYrQAwV5PQpbPtatY1YHYNI3M2xxlSNkaDirk3voXTGDU1jlOQkTz+rUZ+WsiHB+dtW/QyM0uo2JS5X3Rj7mZrbO2jkTDnjZ7JuGllGmbqPmrA5jBeTSM/AdFpD86RDO3NFvNqE454ftr/4VMzgc9vUozgXhUWdFBA9CF2ST/B2yUJ5V1uJ3Q4jVcSlC9okf/ftciLzUrLB6Dm7b0L7bBu8NH2QAsQdJ6HIuq2rakscZHFXxaRAO9e8ACb7pAGxNMk7esLVO0r0rIKckMHFWRuU8XQSuCxHNslb/JQudeyABwG8KMhoVU5FF9HJl2jLxiNMZnJcRuA+OIpYFWuH4xnt/AeFrbti7RbRXv5/b2tD+pQT3jVkkIs5K+O8HEH6qTS31B/9pYnkudrALHdrUskJRPWUwN4a+z1a/nEJd+i5Xfm+s6kpNy1HtegytFZ+F4JJKOz8EOCMJhIfN/Zm3vY7LEMRhH3wH1bUU5p9r8w7WDv5SHspcCGdOjSIFAZ6hqo8jooni0yAcB06WQi/Cfc+8oW/b8AeUiJ79lYTFX2gzvvhgHxxDn2VszSdL41EEDht7qrnV5R+NlQ/oAQmeX8K4edicoQcEiF0CUPrcXXiVBXprd5vtO/sARAEA2ffaXC1Qu8fvlCAf9yGczCCh26yKAOe9D2eX1l4S45Xf9CWrfnbPaaJPpyLSd06iRw29IMP3W8zEoV8m7nWUH0d+X0A9Mc4+j5Yfa3WirhR8Cd61gvU8gdnbXjjr2FPJZuURv3wI8okQFADodCOcnIX3v8z/6douyXCrK9cjdVxOnULiV/WxgB5Rm9yZ+IsoLaL05Yz+K3FkAQgHfEj8PtE6l2R8LsN+Sg1vCJ5zESjv13pyEckrHoyqMzndo7D1alMWBd9Qadwa7Cl/OUM8HkbioReS+Tv6Ku2wnfPBVlrL3nWh76+jCM0pyJfHPUXkX8Zx6x+HSpemAICAkWseaHVJGwXfUHnkq74cr9xxYdd/rD91u2Ixy3Rtpxs3q+bns0+COCntwo7talu2Y4fYjzP/Gy+1R4DtRgy+Qe2OKCn4RBficBjph17ItYbsgoyRaAIzZ62aTqRQ8Ilu2gd9mFUySEQC8AzJ6CrvBCKkIQ8CkQQyyiwCR7SfydL6K726kC4xsEtGV7EZy7NpXqPL0FObAGl4BNLwiKFlUI9PuETBJ1yi4BMuUfAJlyj4hEsUfMIlCj7hEgWfcImCT7hEwSdcouATLlHwCZco+IRLFHzCJQo+4RIFn3DJUvrXyZv7ZYtlxfrAwAAGBga2XBQhWnn8+DGABgcfALbwck3v6tWruHjxotFlaKrV26hmloY6hEsUfMIlCj7hEgWfcImCT7hEwSdcouATLlHwCZco+IRLFHzCJQo+4RIFn3CJgk+4RMEnXKLgEy5R8AmXKPiESxR8wiXzBv/ffnRYLLBYHIi8NroYYjYmDX4esXs3zXFzY9KUTBX8Yj4P5WkUwaM9OHSdYk82zxT3uU1esaDvstFVkFZiqh6fkEb5OPjZJCLXz8Ah7YLFYoHFYsEuqR8nL4QQe5Y3oERCGq8q+EWkfnJgV0cfXBduITqnlH+izMURun4Sh7p2YJcthLTORUqXGBirXjIID+lcBGkp5eArk27Y/jsKBRLcP85iMVcoB62QW0Qi4oO9E1AeZEH9PjG75eC/jmDUGUEWEnzJOCa+kSG2t5Wf1NYuQhr2YiqdwcyldrSt9WqEmMQ2AEjdDyAKQLpxC97edWK9TYBt3KNTaYRo5xNAQfq3FAAZ7sNWo+shRBefAFko0wAgY0+n0eUQog+axydcouATLn0CCBCPAEAcCy+MLocQfXwCiOjabwUQx63plNH1EKKLTwDAetgDG4DUBQ/8c8W1n/0+i9jlW6Ddg5jd8hi/0wXfdxKAJMakPXBcjyH9Z2UHKOYVpKaDcHR14NCVPNbZNQgxhdJlyW2wfhtDAg7Y/xlH9MIhRC+s/gvikAhBv/oI0UTVrE47pG9nkX4+g4nzbsi9YvknYq8dnmthzD7PYfGeE+IqL0SImXz0RZT2Thvc12xwG1ENIToxxTx+8oql/N2A5aUDrvvqT6NwffHhz/1IGlkwaXqmCD5pVUn4qzusK/p1VxR8YpAsIkf7MB/JVL5c9EcfHJP6/BMBUwT/429g1Vq8kIwumtSgQLkP9IjqHKEAcR8QfaGs+1uNYor/skBakQR3xI4OyQIkGby9ScQv2xF+pU+XRcEnhhH2O2AHMH/DAst9AOMJsJ36bNsUQx3SipLwfzEFx6spTN2rjPH1OsCl4BNjvFYwjx6I5R5egHzEDvyh6PKvISn4xBg7RfRgDIHyLE4W8ekosE+fS2Io+MQgEryvwoCzo3JScl8C7BId3JJWt9OJKeY0ZNPU4xMuUfAJlyj4hEsUfMIlCj7hEgWfcImCT7hEwSdcouATPrEtAMDVMjAwYHgN1MbGLNTjEy79Pzp6dRzcYNdSAAAAAElFTkSuQmCC;" vertex="1" parent="1">
          <mxGeometry x="880" y="400" width="190" height="208" as="geometry" />
        </mxCell>
        <mxCell id="Kt9OW5PYxR4Jgx1hHl5N-37" style="edgeStyle=orthogonalEdgeStyle;rounded=0;orthogonalLoop=1;jettySize=auto;html=1;strokeColor=default;align=center;verticalAlign=middle;fontFamily=Helvetica;fontSize=11;fontColor=default;labelBackgroundColor=default;endArrow=classic;endSize=12;" edge="1" parent="1" source="Kt9OW5PYxR4Jgx1hHl5N-14" target="Kt9OW5PYxR4Jgx1hHl5N-15">
          <mxGeometry relative="1" as="geometry" />
        </mxCell>
        <mxCell id="Kt9OW5PYxR4Jgx1hHl5N-14" value="" style="shape=image;verticalLabelPosition=bottom;labelBackgroundColor=default;verticalAlign=top;aspect=fixed;imageAspect=0;image=data:image/png,iVBORw0KGgoAAAANSUhEUgAAAL4AAADQCAYAAAC5itu3AAAT30lEQVR4nO3dX2gbZ7rH8a9CLhzogg29GEMKVfBCbRqIzVnwCHIRxVmITA5EwgFLZKGRdyF1trC1N2VXTi5iuds2Vi668S4sdg0nSIYYKbDFCqwb5aIgGU6xAzlEhYZMIQYPbMGCDVjQwJwLW3/sxP8ia0bSPB8QaJKR9Iz106uZ953Ri1E3Fo3xExj0RY0Vq0s5UGvGSiZqjF/2Gu73FQMwQDHaTwWNcOKJsWp1eQfl51XjSXLSGPrAbahtbGyn01DPWLOdmPx6b2Rt9Zkxd81tKDRg8J9HDS+FILx6c34QN55ZXeMBWIl5t93Gwnaa+b4eopYtjOFwODjScoze0RS61fVURRPOy7eJLz1j9T8GhmFgGGuspMJ4FNCmB5l6mLe6yModbsF/I8qD7AprP79uO8NEH5lYj4kfsv3LhF9tHRqtxd9BoZVUPl20upSqWrzVaQCG/65572xtt/jdoY2WwcDIhK2uxnSKs8vqEkyQZ/XfK0AnXb9UTHvVw6a9ktg37XEKAN/7TosrqZIXGpnZCCN/0VFvJBg8Yd5L13aLb2cvUkxcT8GJMIEzzVZXc6D0GR8OhwPHL47hvZMnkHxG6ppKk4k1SItfkzRiHwaI6Crhe0OoZibCZPrDKSJNzbQ4w/jfM29DpcWvORqJS6cJ3DlC8G6UUHfjpV7pj68ft/28xspSFM9qhEC7j6mn5tUgwa8lL7JM/caFb1ph8J8PmOxr0H37gsNNKCf8jN8YApKMzC6Z9tIS/FqRyzD2324G5jsI/SvJ7XMNHvoyTb9oAUB/ad54hQS/BuS/n2LgVy5Gnvcy+XCOcIMdzO5G+2ERAOWw7OPbhn7/Cu72AebeCfEgM0nQxAM88+gkfhdgbCZFVs9RbNdf6CzNXCHwmwSgMny207ySTBsqexOvG7ltsFHc9I0dtq/sFs5YXWklVoxo307bpxj+mLlnJEmLL0yg4L21SPyrIYJnVIpHL20q3svjxB9nifabe0zjMAzDMPUVhagB0uILW5LgC1uS4AtbquhcHYfDcVB1CGEqafGFLUnwhS1J8IUtSfD3oaenx+oSqs4O2whVCL5RuEa2AW89PT2W1yDbWNmtasEXoh5I8IUtSfCFLUnwhS1J8IUtSfCFLUnwhS1J8IUtSfCFLUnwhS1J8EXtW47hczjWf2jW4cBxIVbxJCESfFHz9G/jdGVK59ukjwdoHc1U9JwSfFHzlP44oe7SsrPNC4+1ilp9Cb6oMzqpewk47qSS+VMk+KJuZEYdOBytBIiyck2t6Lkk+KJuqNfW9/FXzsdprfAAV4Iv6o5y0od3VkOr4Dkk+KLmZUZ9xJbLlqcDJPqcVPJrm3UQ/Axj5X24e76NUVmHlwVyGsnpYQZ+7eJYYTtaOzh94QqRmQz6S6sLtIZ6povAO6X31vU4yspd/8Ef3C7d7Np4kS4iZs42bVt5stMDHGs5Ru+lCFPzmdLXuJ4lNTvBsN9Fa7uPie9yVhZqjfL5jg0Do8LQw2uDv0QqtlS8P/513bWbdSZPZtRNx6Wp3fdZnya48isPYwvmTZnTqF4N/kKS8Ufg+cckYQX0v82Rqpm/c5j0nq+oD1FZh5c5tJkg3uuFxkXB/YdJ0toqa4XtWFvlSXIcb1vhERlGzgdJLG/zhGJPtgQ/T+qft9Hx4D0VxPNxJ+hTpDI1k/zGkk8x9XGhW07BH0vz4FYQ9d3m0mTHTc20nx0ivpQmXBi91GOEpzPIu/LmNgc/nyY1rcNZL+426DwToBOdsftp+SNXQW4+wVihM/psmPBOs4K8pRK6M4lnY3Hpepy0vClvbFPw898mGdPBe7F3vavohJvACeBmUv7IVZB9NFG87z7v3r17rq2XQF9hIULquyoVZgNlwc+Tno8AXnwnC8fMnbj9nUCExLwNexNM1PzWkT2spdCulmYGzGqVDOHYWyn4uRSJm8AHATxHSyus7+7AxL0UEn3rtSql74XEj5WelW5fxeDnHiaYAILn3GyaXriwuzOdJPWT2eVtdRtv6+aBqtbjpzcGeFJodfbJbHqr1Honlp7IcZSJNoKfI/X1FABT3pYtI6BdDD8CmCI6b3ULo6NvKUH/v9TGAM9pjrV3MDCdrZsAtZ/wlAZibo4Qkf5506wHfzlJdHr3lRN35io6Majq9CxTlzpwj9ZHV1/TKR/DxQssMoyoHfhuJjfP/g3kczrZhQQTH/bi8icsqLTxHALQ5qMkgMF/rm4zGPSMybPA/QSpp2aX2ETTuUHGY3Msaqus/VxW189rrGqLxL8M4i4bw85cH6yT1rOTwb+Ol9WukbjaS0drC0fKvnWPtLTSofq48vdkbTc89cQwnhmTZzFg0JhbNbb17CuPARier0pTr/Oa6dkts5o2wt1ltVyeM3bYnDfy2WefHfAzrlvLThrBtp2mvF+/Ke/7jaHL7uKy+x/Pdn/yfarWNtaKwt/uEE9TJO4Df/Ti3nRUu5nzpBcPkJxJ1War06wy9GmotM/89yWyVtazD03vBZnMrvIkeZvBPjdqW+n/lPfdeC+PE82soD2O4mtNFf+vXWmxoNrGcFh7GCMJDJ1xlYbJX6fNjfcsJO9PkHgUZOiESRXuQ1OnCx+wPiz0hBUdKj6NzyyHm2k/O8jts4M7rKTx5NvCfTed7Tu0VGJHh52/fYDx272s6iSYNAhWu6JKNDWVfXjz5Bvt/PWnKRLzG/dPeOhq23FtsYM6uBBlH5Y1looLXTiP7rBu3cmT+Z8JkhtLno+8dO64vthJQwVfe5iguAd8uZN2K4s5YPmFCEOjGx9rZZDBc5VceCdqPPgZIhcipJZ375rMP4pw5XeF9lAh1LdlBLqO6fdH6D0/UryU0vvFEJ63LS2p7tV48CE/O8zpd45wzLN+WsLmwZ08uR+XSNz00dE5XNwN4GyY4KkdD9Vrij47zPB0Bu1F6d/yOZ3swxhjF47R6hkjtTFirVyMMn5RWvtKHba6gL3S7k8wfH+C4d1WbAsS/1uwoivwTfdSI3LJReTSzqupv58j+qWnvratRtV4i6/g7Nv72+zsGyedmcT7bvUqskSbl/HUCmkJ/YGp8Rbfif/uM/wvNJbmU8Tnk2S+z/LkYbZ4uV77qQ5c/+XHe8mH57363KtvUrrwnsqSfmW7vLi9Przdys5jLGLfajz4G95y0nk+SOf5mh5FeGPNp0LET4WsLsNWanxXR4jqkOALW5LgC1uS4AtbkuALW5LgC1uS4AtbkuALW5LgC1uS4AtbkuALW5LgC1uS4AtbkuALW5LgC1uS4Atbcmz8nuCbPdjh2LTc09NDT09PxUUJUS3ffPMNcMDBB6jg6Wre559/zieffGJ1GVXV6NtYyKzs6ghbkuALW5LgC1uS4AtbkuALW5LgC1uS4AtbkuALW5LgC1uS4AtbkuDXHJ3YhdLkzg6Hg7GFvTwuw5ij/HFjxRlUxKsk+DVHQyPKSmH29kyYEdVHbHmXhy2kWIytFGd9X4kt4roQ2/jZcbFVffxMuK2ohO6qpcVuN2FG0JaBnWZx7A4R7y4tKs4umNXQqJ+pfs0kLX6tW9ZYxLvvqUsz8yPQ55QZVLYhLX5N04l9HIDYCv49Bl+f8dHqTwBh0oZfWvttSItfs3RiF1oJHE8T7997fJX++MaxAbjkAHdbEvyaVAq9cU3dffXX6XYTZnH92EC8QoJfc9ZDHz+/sq/Q6zO+Td2e+sw4I3Tt+9jALuo/+C8yjKn77fOuYcsp4rOQ8Ldu6st3jO6806Kc9LFY9ndo9XeRNkK84fdF9b3MkX0YI/Khj9PuDlqL29pKh3uA2NPqvnydH9xqxD70MlLvYS931E/c8Jv3ONPlyM6EufJxpDhb+2Y62YdTaD9NQlv1qqjj4OfJjAYI3JEhmrrxYomI38Pw19a/Zxu7OluHu8u+Mo+fZmA0Rsb6WjfRZoJ4r2cABUX67OqARuzD8tArtPeHiWaesfofozjivPbvJ8x9GaS52k2yYRiGYaSNMBjsdFP8Rvy5scnr1jPDWiZsqBuvp95IG3M3Sq8fzlTvdT/77LPqPXmNqM42rhmLn6plWXIboX+tVuF1dleoYcvBbZi0Ufr0GYbB2r8XmbyogB4jPLtU5Y/hHvwYI3h+hAygXIwSvabSYnVNYmdPo4z8uXBwrhK+N0f4TLOlJe3aq9P0difBD68AsPQiX/WCdvQiw1h/gJgOdIdJ/M0vQ/I1L0/qqxGSG0vqrQlC3U2WVgR77M7M/2cVgOD77VUtZmdlPTiKn+hMCPUtC8sRe5NPk/xLYb8+yPDFTkvLKdj1ECL3fYLx6xGUi1FC5636eirvwVEJ35vC/65FpYj9+S5FpHD/shf321YWU7KlxR/BtaVXp6Xdx1hukMhVj2W7FeU9OP5YtCa+KsXeaNnSwJtXbaf5ZY7s/SmGL53G9cuyrP3SxelLw0zd18iZUNfeRm6/nyBwvAXXR0m0Khe0VW5+hIB//YIK9UaCqX7Zq68n+vNU8X5ufoze9hY6PANEplNkykdnn2ZITUcY8Byj3T1C6qfq1rVrr45hrLGanSN8TiHz116uTJsX/fzCGJ5fj23qwZG2vp7oaN+XllJ3pkju4VQE/eEYp48HiP1YtcL20uI30fyeh9CtMG4geT9jzuVsZd2W0oPTIJR2/H+cJL60edDK+HmNVS3N5B/cpesH9BiBq9W7dHLvJ6m1dayf8PStxkqViinRSVwvdVum56UHpxGEZp8Q/SKI94ST5vL383ATze+qBG89IB0ru3hmdpzoo+rUsvfgP0qv98Weaae1OrVski8MGSyM4PrF60+nKNxc10uPGyk7Q9EhF1vXlCN7OA3B2R8mfLawtMTiD9V5B3cP/osc2sIUVy4Ps4TCYJ9bLmcTe9a074MyJ10nSwlLPa3O/sWWz+AILsfItiurNxKMn7N2qFnUEwVnuwIb37tPnuvQvXuz2XzUBSQA0F9W52yB3Vv8NhX3B2GimRXSpvWqKPjvbu1d2v6WvlF6ZDhT9n935WJrqznf9xXvx/73CXuJsf5Donjf21adLo2N4KuEtgvWD2kefBXCv4dPqhBbNatugoWFmzGSu/bPL5H+unBfoctZndzV/6WHora97cZ7uRDeKQY/jqG93G7lPJnRQYYLPTknhvF0b7duZST4osqa8XwcxrOxpN8J4Pr1MFMLGrnifk+e3I8pJn7Xu3FqCoDC0BeDVOuUtjq+9FDUjbYgt2MpXBunnugPIwyoEQa2fYCC51aS8JnqHVFKiy9M4eyPkv1XCPduu+yKm6FEmrk/dFa1I0WCL0zTfCbMA22FdGycwT437cUPgRO1b5DxWJoV7QHj56t/ckpD7Oqo1wyMa1ZXIfakSUHtH0LtH7K0DGnxhS1J8IUtSfCFLUnwhS1J8IUtSfCFLUnwhS1J8IUtSfCFLUnwhS1J8IUtSfCFLUnwhS1J8IUtSfCFLUnwhS05NibEerMHOxyblnt6eujp6am4KCGq5ZtvvgEOOPgAFTxdzfv888/55JNPrC6jqhp9GwuZlV0dYUsSfGFLEnxhSxJ8YUsSfGFLEnxhSxJ8YUsSfGFLEnxhSxJ8YUsS/Fq1HMO3aVrT9RnexcGQ4NeqZQ1iK2UT3I3gknl7D4wEv1Z1h4j3l2ZRUM+EYVZDs7CkRiLBrxO6tgh9Tqo/ZYI9NMTEEA1vOcagH6LPZd7egyLBr3XLMXzvBOjKGPiPWl1M45BdnVpWFvpQleZ7tStp8WvVcgzfO3F8z6Wlr4b6bfG/G6PV4cDh8BFbtrqYg6d/GydBgsA75X35DsYWrK6sMdRpi58jefd2Q/dpK/1xjH6rq2hcddXi53M5tEcJIhe66L3ZyLEX1VYXLX5m1IHrutVViEZSVy2+EAfl1eDrGWI3r+BTjxUPqI6ppxm4OkXy+5wFJQpx8MqCn2fprz6OtboIXJ0gsVA6K0RbSDF1c4De9haOeabImlykes0onqy1flsh2mdyEaKhFIOvzQTxfJRAQyX45QOera4Vg7a2+ox0LIy3DbT7OtLui3q3HvzlGMP+GDoq4UyKyd+7cTY3FVdqanai9oeIZ1eYu9ZM03bPJkSdOAywNDtOAlBvTRDq3iHWhxU8NwZNKk2I6jkEGtlvlwA3wXOdVtcjhCkOgY52D8BNR5vV5QhhDunHF7YkwRe2dAgUnOcBUjx5anU5QpjjEDhpP9kJpJi4t2R1PUKY4hBA57lBPMDS1UHGFvLbr/1SJ3l9Avl4iHq3vo/fFiD8qQpkGFE78N1Mkv2p9AHI5zSW7kXwtbfSO5pjh4+GEHVh47TkJjr/lCSND++fUySu9pK4+voHOPuccqW/qHtlvTrNqH96QPaHOSb/GMTdXfoFF2e3l8Evojz4YZVnd/3y2y6i7r1yIUpzm4fgFx6CVlQjhEnqoh8/M7r5gmuHo5XAbOF/X70gW35gVeymLoIvGlWGsfIGa9S85kqCLyyiE7vgYrH4i9ArRB+78M2Y8yMCdRH8V6/A2u0WQrW6aLELDW0WupyFPkIF53FIPDXn96Dr4lcWRCNSCca8tKoOyBiEujOkrnuJPjenyZLgC8soJ314gcVbDhyzwI00hkk/l1gXuzqiEWUYeyeO73mc+N3SPr5ZB7gSfGGNZY1FunAWW3gF93kvPNZM+WlICb6wxlEnXYwwXuzF0UndS8Bxc06JkeALi6iEnkfB31oalDyexrgmB7ei0R31Ezf8lry0tPjCliT4wpYk+MKWJPjCliT4wpYk+MKWJPjCliT4wpYk+MKejAoAtrr19PRYXoNs48HcpMUXtvT/3SHax9HmOCsAAAAASUVORK5CYII=;" vertex="1" parent="1">
          <mxGeometry x="320" y="680" width="190" height="208" as="geometry" />
        </mxCell>
        <mxCell id="Kt9OW5PYxR4Jgx1hHl5N-38" style="edgeStyle=orthogonalEdgeStyle;rounded=0;orthogonalLoop=1;jettySize=auto;html=1;strokeColor=default;align=center;verticalAlign=middle;fontFamily=Helvetica;fontSize=11;fontColor=default;labelBackgroundColor=default;endArrow=classic;endSize=12;" edge="1" parent="1" source="Kt9OW5PYxR4Jgx1hHl5N-15" target="Kt9OW5PYxR4Jgx1hHl5N-16">
          <mxGeometry relative="1" as="geometry" />
        </mxCell>
        <mxCell id="Kt9OW5PYxR4Jgx1hHl5N-15" value="" style="shape=image;verticalLabelPosition=bottom;labelBackgroundColor=default;verticalAlign=top;aspect=fixed;imageAspect=0;image=data:image/png,iVBORw0KGgoAAAANSUhEUgAAAL4AAADQCAYAAAC5itu3AAAUNUlEQVR4nO3dX2gT6d4H8G/Eiy7sQoW9mILCRrqwLQq2vAc64d0LY7tgii+YUKEJHtD0HND0LOy2q+xJ9KJO9vgn8WLXnheWVuGVRFAS4SyNsNp4IWQKuzSC0AhKZ6GFDOxCAiskoPC8F82/atukNjOTyfP7wEDGJpnfON88eeaZmQyYaSyy0CEwjERY1uhSmqrAsnKEhc44mf2AwAAwQGA9h71Mii+xnNHlNcvrHFtKzLCJU3YmdqO0nlYmDhmzntB5ee+lkFtmcxfsTEAbBn8lwpwoB+HdyXoqxpaNrrEJslHnputYXk89t+sutLKFICwWCz7Ysx/Dl5JQja5HEx2wnrmBWHoZuT8ZGGNgrIBsUoJDAJRbPsw+Lhpd5M7t3gP3VATzmSwKrzdaTwmRpzrWo+OHbPtk6d3Wod1a/C2UW0nhu0WjS9HU4vU+BoC57+q3ZVu7xR/wl1oGBiZLRlejO8Hab3QJOigi93sWQB/6PxV0W+pu3ZZEtk15lgQAuA5YDa5EI68UyPfCCPxLhTgVh++Qfotu7RafZ6+SmL6YBA5J8Ax1Gl1NU6l3XLBYLLB8tB/O20V4EstIXhDRoWMN1OK3JAXRsx6EVRHS/QmIeiZCZ+rjWYQ7OrHHKsH9mX4rSi1+y1EQP30EntsfwHs3Av9A+6VeGI2t7be9LiCbjsCRC8PT48LsS/1qoOC3klcZzP7VBtctAb7/zGNmpE379mW7OyAcciM0NQEggcC9tG6LpuC3iryM4P/YMfawF/6fE7hxrM1DX6Pjoz0AAPWNfscrKPgtoPh8FmN/sSGwMoyZx3OQ2mxnth7lxSIAQNhNfXxuqA/GYe8Zw9w+P+blGXh13MHTj4r43z0I3kkio+ZRaddfqUjfGYfnr3EAIiaP9ulXkm6Hyt7HRkdu2+wobmpqi/WrmSTZ6Ep3IssiI1utn8DcUX3PSKIWn+hAgPP6ImI3J+AdElHZe+kW4TwTQuxZBpFRffdpLIwxpusSCWkB1OITLlHwCZco+IRLOzpXx2KxNKsOQnRFLT7hEgWfcImCT7hEwd+GwcFBo0vQHA/rCGgQfFa+RrYNp8HBQcNroHXc2aRZ8AkxAwo+4RIFn3CJgk+4RMEnXKLgEy5R8AmXKPiESxR8wiUKPuESBZ9wiYJPuETBJ1yi4BMuUfAJlyj4hEsUfMIlCj7hkgmCLyNosazdLGxbUxCy0aVvV15B4tYkxr6wYX95Pbp6ceTEOMJ3ZKhvjC5wJ4rIP08i+sMkxr44gt6umm31qU3/dWQbWLzaV/r55j4WSm/0jDXY4Cefmy/FpAZ+RvvdSWKpJldy+fLlJr9jWYEt3fQya7116nayG7/kNKphjRbruHzXxxzdDW43wcGkJ9qtY3k5G7T4aSSj6crj0E+mazdNpgj5kh29p2eh1HvqyzjG/+JAcEG/W+Y0g/p8GolGb+ymJhD4XPt1fDf4CwmEngKOH2cgCYD67zkkW+b/WUKq4Svq/RCNLrcByh0vnBfLjYsA+1czSCk5FMrrUchhKRGCs7v8ChmB417EVw0qeAeEA25M3IxhUcmh8Lq6rQq5ZaRuTsBeubG5jMCZaWh6K7j1XwQFNv+twAAHm3lR7vIIzJ8sbPm1UTs1X21Xp/ndl+1oejegMM/8QoN3BfkzxaSB6v9z31SKbbxVdkaLrk7qqpOFktn69aZDTKy5S4r0S9NL2aSrU0wheUsFjjph7wb6hjzog4rggxRaptFvI/mHcQTV0sxRCdJWdwX5UIT/9gwcpdn0xRhSJtko4jcxTBwW6t+5/JAT48fLMyqWFHWrZ+/IuuAXnyQQVAHnyeG127UcssNzCMC1hGn+k80k83S68th+3I66N8PpHoZnpDwTRvJXjQozzAfrfr/b2iVs/tQdqgl+EamHYQBOuD4vL7APdncfgDDiD/OaFUGAzg8/aOBZAnrE6p0BM0rd3WGTySL7ovzYi/7PtFtSNfj5JOLXAJzywLG3+oS17g4wfT8Jir7xuoTq90L8N+26AvorIvO/Eiafrs2J3/ng+Fi7pVWCn38cxzQA7zE71t1euNzduZVA8g/tCmnMDTi71h+o6jp4pHTwIwnFZJ/Mjg+rrXc8vcTnflQxD+VpHOETveg9GwcAWE/FEPm2r/4+wU6s7evmWOxU/YMLzmh2wz1k6DaqU+/gRw/z3lzSZLSDseaPeBSSfiZU6heZJNevPBt1Vtd3qvljXNodpKu1yTbtdrCJ6BLT8hBdeVlrLf5qApFb9T8k8dtz9Q+yGEnNYPZ0L+yXZFO0nh2HXZgcKM/JCIi9cF1LrL/7N4BiXkVmIY7ps8OwueMGVKqDz5wIXZXgO9azvsehFcYYW77pYACY7z+bfdaW2cxRVMb33/70QNMWf5GFjvlYKDrHFpUcK7yu+dPrAsspiyz2vZfZhdo6+hpqPbdLi9aw8Evordq3MbVbiw8wwMoc38TY8uv67/I+KsuphtrH5rb4jil/OBw3l999E02D36Dc+gM8ODPX9K9MrUJRyMwwbwPnsggH3GzijL0yb/9xiwNe70mf4K9XyGXZUnKGTRwWqut6MsKav3a1wX8xwxwAwzfzW/eNy88bmqkU1FLBZ2/3mc10khpj7HWOLSVuMN+InYndtWG3M+eZEIvIa0c+U1PVv23+Df3+jAh+xeslduNodf288eavXyWryz+utSATP9frGpS/GapnbLZa8FlujvkqtbhZLFv/JdthaCgYY4wts5mh8vrZ13U7m8XodSz8PFHN08kYa/ImrLz3buvf5sH+1sjegBXeBIO3kacapaOjZgisiKKpz1/fwMsk4g9Ljw850N+95bNNqeOjPdWZZwqyALQ4fmuCC1G2YVWpOaOvH9a9WzzXdIqQ/28aidKc40sn+rZ8PtlKWwVfeRxHsjxzpg89RhbTZMWFMCYulT7Wgg++Y3XP7DGl9JNYdUbsqX/+0ntq8eDLCJ8II7laf1S++DSM8b+X20MB/hG7PuPBOlAfBDB8PFC5lNJ5dULTw/lNtRCG61qioaPqxYUgfOeq39neIZt227AZOwrQbOe2Ot5rPepjoeg8W8rmakafSuP4V53rL9s7OqPJUJhWO37ZuxNs4maKLf9Z/be1Ib4Ik0as64c0NRrmK2v6OspSZXxePCWxSGKRLedqBlJeF1g2M88iU29tw4EQW2xuJYyxdeP4TXgTHYLf8NTtZTGlyWWUaBb82tMQtpjEf8xpGnrGtAz+NibBzSJKc8soKy+jxbs6AqwjjffyrCMhpOQZOD/RriJDdDsRSmaR+t6hWZ9XMx/3wHd0m9vwWQTuT7QrCVh32n8rssJ9dxnuVwrSD5OIPUxAfp7B0uMM1k7IFdBzuBe2/3LDedoFx2fm7NV3CP1wHs4g9c56OWF3uuAcaODqpVbV7cSNhBM3ttyGNtj/2wGHW79taCk1/+/3YovlnX/bwdu1vCtXruD8+fNGl6Gpdl/HcmZbvKtDiDYo+IRLFHzCJQo+4RIFn3CJgk+4RMEnXKLgEy5R8AmXKPiESxR8wiUKPuESBZ9wiYJPuETBJ1yi4BMuNfVClMHBQQwODu64KEK08ujRIwB0Bda2tPvVSUD7ryNdgUW4RsEnXKLgEy5R8AmXKPiESxR8wiUKPuESBZ9wiYJPuETBJ1yi4Leq1ShcFgsslSlYuSMK2TkKfqtaVYBoFowxMMaQmgrAdiJa+mltslMU/FY14EdstHqjS3FIAu4pUAwsqZ1Q8E1CVRaBEav57ojSolr8jigEALAahc8NRFbcmtzsmEcU/Fa3GoVrnwf9MoO7rW5YbSzq6rSymtD7B4wupr1Qi9+qVqNw7YvBtUItvRbM3+K/khEUq+PdwQWjC2oO9UkMccTh2Vc7lt8+64c3eWQeRxE+68IRey+6KuvYhV77GKIvtV28yVt8BdGzTgTaJQw1hNEY2KjRVWghj8wdCeNfh5Hc8KCEiszjWSh/zADd2lVh4uAXIV/ywHObDumYxqs0wm4HJn8yfpuVujoygpb1X6nlqevgEYxdikI2vtZ1lDteOC/KAAQINMZnAgqiZ2tDL6BnVEJEXkbuT1Y5Ql34fQlz33vRqXWTzBhjjKWYBDBsNQluFlth62z0PD0UZImJpeWJUyk2N1VdviRrt9zLly9r9+YtQpt1LLDF78SaLNmZ/+ecBsupr1zDWzu3ElKs+uljjKHw+yJmTgqAGoV0L63xx7ABv0XhPR6ADEA4GUHkgog9RtdEtvYygsA/y6fYiZDuz0Ea6jS0pLqjOh0f98F7dhwAkH5V1LygLb2SERz1IKoCGJAQ/7ebDuG3vCKSNwNIlObE69PwD3QYWhHQ4HBm8c8cAMB7oEfTYrZWM4IjuBG544f4oYHlkMYUU0j8q9yv92LyZJ+h5ZTV3YXIP48jdDEM4WQE/uNGfT3VjuCIkO7Pwv2JQaWQ7fk1iXD58Rkn7B8bWUzVWy1+ALa3RnX29LgQzPsQPucwrFtRO4LjjkZa4quSNEbJVC+fcYo96HyTR+bBLCZPH4Ht05qsfWrDkdOTmH2gIK9DXY0duX0+Dc/BPbB9mdD9fPD8wwA87rULMMSpOGZHqVdvJupKsvI4/zCI4Z496HWMIXwrCbn26OxLGclbYYw59qPHHkDyD23rqjuqw1gBucwcpGMC5B+GMX5Lv+gXF4JwfBFcN4JDbb2ZqFCeV+eSt2eRaOBUBPVxEEcOehD9TbPCGmnxO9D5mQP+6xLsABIPZH0uf6sZtqQRnDYh9MD9zQxi6fUHrdjrAnJKCjNf2avXG6hReM5pd6ll4yepdfdCBIAnCrIaFVOlIn6xOmyZekgjOO3Af28JkateOA9Z0Vm7PXd3oPMTEd7r80hFay62uRdC5Kk2tTQe/KeptbHYoR50aVPLOsXyIYOFAGwfbXw6RXmyXay+LlBzpqaFLs5uKR80cBqCdVSCdLQ8l8biC222YP3gv8pDWZjF+JlJpCHAN2Kny99Iwzq2vVNmRf/n1YQlX2rTv3jrMxiAzRLY9MniVByhY8YeaiZmIsDaIwCl792lFRUYqN9sdu61AYgDANQ32pwtUL/F7xZhPyUhImeR0m1URYD77tujS5tPqanqKyW55m936eJso1kPuCqPo78soZEYqy/ilcfObm2GNErBF+HfLFgvUpi/6Ye7gU8qIW/rFO3wlmeuRZGoOz6fRuqn8mMB/VZtcmf+Sw9Ja/vYDueZcnhn4fs6CuXNZk8uQr7kw2R5JOfQJBwaXWRPwSca64TjawmO0px62wPbF5OYXVCQr/R7isj/lsT034dLp6YAgICJqz5odUqbiS89JKbR7cWNaBK20qkn6uMwxsQwxjZ9gQDH9QSkIe32KKnFJ7qwjkaQ+dkPe70uu2DHRDyFua/6NB1IoeAT3XQOSZhXskhFQ/CN2NFT+RBYIY74EIqmkFXmETqu/ckpbdHVES8wsAtGV0Ea0iFAHJ2AODphaBnU4hMuUfAJlyj4hEsUfMIlCj7hEgWfcImCT7hEwSdcouATLlHwCZco+IRLFHzCJQo+4RIFn3CJgk+4RMEnXLKUboj1fi+2WNbNDw4OYnBwcMdFEaKVR48eAWhy8AFgB2/X8q5cuYLz588bXYam2n0dy5mlrg7hEgWfcImCT7hEwSdcouATLlHwCZco+IRLFHzCJQo+4RIFn3CJgt+qVqNwrbut6dod3klzUPBb1aoCRLM1N7gLwEb37W0aCn6rGvAjNlq9i4I4JAH3FCgGltROKPgmoSqLwIgV2t8ygQ9tcWOItrcahc8NRFbovr3NQsFvdatRuPZ50C8zuPcaXUz7oK5OK6sJvV+j+73yilr8VrUahWtfDK4Vaum1YN4W/9cguiwWWCwuRFeNLqb51CcxxBGHZ1/tWL4FwQWjK2sPJm3x80jcvdHWY9rCaAxs1Ogq2pepWvxiPg/laRzhE/0YvtbOsSdaM0WLL1+ywHbR6CpIOzFVi09Is7wbfFVG9No4XOL+yg7VfvEIxs7NIvE8b0CJhDRfTfCLSP/gwv4uGzznphFfqJ4VoiwkMXttDMM9e7DfMYuMzkWKF1jlZK21KYvIiM5FkLZSCb5yxwvHl3EoEOH9fh7LuUIlaIXcMlJRCc5uQHmggtp9YnZrwV+NYtIdhQoRkpzEzD/ssHZ2VJ7U0WmFOOpHLJPF3IVOdGz2boSYxG4ASN8LIQ5AvD4N/8AWsd4twDHl06k0QrSzC1CQeZIGYIf3WJ/R9RCii12ACuU+ANjR2210OYTog8bxCZco+IRLuwAB1uMAkMTSS6PLIUQfuwArej7vA5DE9P200fUQootdANB3zAcHgPQ5H4ILxc2f/UZF4uI06ONBzG6tj9/tgfSdCEBGQOyF61oCmT+qH4BiXkH6fhiuni4MX8pji48GIaZQOi25A33fJpCCC85/JhE/N4z4uY1fYB2x0pX+xPRqRnU6IX47j8yLOcx844V9oPoLLtYBJ3xXI5h/kcPyXTf9tgsxvXcuROnsdsB71QGvEdUQohNTjOPLl9ZfcG2xdMFzr/zXdy/Iph9YJfWYIvikXckI1jZYl/Rrrij4xCAqoidsWKz8InQWkWc2uO7o8yMCpgj+u1dg1Zv8EI0umtShQLkH9FvLY4QCrAeB+Et9fg/aFL+yQNqRCG/UiS7RAsgM/gEZyYtORFb0abIo+MQwwucuOAEsXrfAcg/AVApMp59LNEVXh7QjGcF9MbhWYojdrfbx9drBpeATY6wqWEQ/rJUWXoD9uBN4pujy05AUfGKMvVb0I4BQZRRHRfJ+HDiozykxFHxiEBH+lQjg7qoelDyYArtAO7ek3e11I8bchiyaWnzCJQo+4RIFn3CJgk+4RMEnXKLgEy5R8AmXKPiESxR8wie2AwC4mgYHBw2vgdaxORO1+IRL/w80nnbxPkImBwAAAABJRU5ErkJggg==;" vertex="1" parent="1">
          <mxGeometry x="600" y="680" width="190" height="208" as="geometry" />
        </mxCell>
        <mxCell id="Kt9OW5PYxR4Jgx1hHl5N-16" value="" style="shape=image;verticalLabelPosition=bottom;labelBackgroundColor=default;verticalAlign=top;aspect=fixed;imageAspect=0;image=data:image/png,iVBORw0KGgoAAAANSUhEUgAAAL4AAADQCAYAAAC5itu3AAAUpUlEQVR4nO3db2gT2d4H8G/EByrsQoV9MQUXNtKFbVGw5VnolLsvTNsFU7xgQgVTvKDxXtB0L+ymKntTfdFO966a+GK33Qf2aRUeSQqVRtilEdTGF0KmsEsjeGkEpSMoJLALCSgkUOE8L5rJH22btM3MZHJ+HxhIbJr5HeebkzNnZjpgprHE/IfAMBBkSaNLqaksS8pB5j/rYLYDAgPAAIG1HXYzKbzM0kaXVyurabYcmWLeUzYmtiLfTisT+4xpJ3Re37Zk0yts/pKNCWjA4L8MMgfUILy/WE/NsRWja6yBZMixYRvVduq5XXehni2Ow2KxYM/e/egfiyJldD2aaIL17ATm4itIv2ZgjIGxLJJRCXYBUG56MP0wZ3SRO7d7L1yjQSwkksiurtdOCcHHOtaj44ds62Tp/d6h0Xr8Tai9pPDdktGlaGrpegcDwFyz+m3Z+u7xu3z5noGByZLR1ehOsHYaXYIOckj/kQTQgc5PBd3Wulu3NZEtU55EAQDOA1aDK9HIGwXy7QBG/p2COBqG55B+q67vHp9nb6KYvBwFDkkY7Gs2upqaSs04YbFYYPlwPxy3chiMrCB6SUSTjjVQj1+XFITODSKQEiHd8ULUMxE6Sz2cRqCpGXutElyf6ddQ6vHrjoLw6R4M3toD92wQvq7GS71wYm5tv201i2Q8CHs6gME2J6af61cDBb+evElg+m/dcN4U4PllAVMDDTq2V+1ugnDIBf+oF0AEI7fjuq2agl8vMjLG/2rDmfvt8N2LYOJog4e+RNOHewEAqbf6Ha+g4NeB3NNpnPm8GyMv+zH1cB5Sg+3MVqI8WwIACLtpjM+N1N0h2NrOYP5jHxbkKbh13MHTTwrhfwxifCaKRCqDQr/+JoX4zBAG/xYGIGL4SId+Jel2qGw71jty22BHcWOjm7SvZJFkoyvdiSQLDmzWPoG5QvqekUQ9PtGBAMf1Jczd8MLdJ6Kw99IqwnHWj7knCQRP6LtPY2GMMV3XSEgdoB6fcImCT7hEwSdc2tG5OhaLpVZ1EKIr6vEJlyj4hEsUfMIlCv4W9Pb2Gl2C5nhoI6BB8Jl6jWwDLr29vYbXQG3c2aJZ8AkxAwo+4RIFn3CJgk+4RMEnXKLgEy5R8AmXKPiESxR8wiUKPuESBZ9wiYJPuETBJ1yi4BMuUfAJlyj4hEsUfMIlCj7hkgmCL2PcYlm7WdiWlnHIRpe+VRkFkZvDOPNlN/ar7WhpR8/xIQRmZKTeGl3gTuSQeRpF6MdhnPmyB+0tJdvq027928jWsXS1I//nmzuYP77eK9ZgnT/5XHsxJlXxZ7TfXyQWq3El33//fY3fUZVlyzfczFqpTa0ONvFbWqMa1mjRxpVZD7O3VrndBDuTHmnXRnU96/T4cURD8cJj/6+m6zdNJgd5zIb209NQKr30eRhDn9sxvqjfLXNqIfV0EpFqb+yWimDkC+3b+H7wFyPwPwbsP09BEoDUT/OI1s3/s4RY1VfU+yAaXW4VlBk3HJfVzkWA7espxJQ0smo7smksR/xwtKq/IWPkmBvhVwYVvAPCARe8N+awpKSRXS1uq2x6BbEbXtgKNzaXMXJ2EpreCq78iyDLFr4VGGBnU8/UIY/AfNHspl8bpUvtlQ51aj982YqaDwOyC8wnVHlXkNcxJnUV/587RmNs/a2yM1oMdWJXHcwfTVauN+5nYsldUqTfal7KBkOdXAzRmyngiAO2VqCjbxAdSGH8bgx10+k3kMz9MMZT+SdHJEib3RXkAxG+W1Ow55/GL88hZpKNIp6fg/ewUPnO5YccGDqmPklhWUlt9uodKQt+7lEE4ynAcbJ/7XYth2wYPATgWsQ0/8lmkng8WXhsO2ZDxZvhtPZjcEB9EkD0d40KM8yesr/fbW0RNn7pDpUEP4fY/QAAB5xfqCvsgM3VASCA8P2MZkUQoPmDPVW8SkCbWLwzYEKpuDtsMkkkn6mP3ej8TLs1FYOfiSJ8DcCpQdj3FV+wNtwBJu9EQdE3XotQ/F4Iv9BuKKC/HBL/I2H48doz8TsP7B9pt7ZC8DMPw5gE4D5qQ9nthdXhzs0Ion9qV0h1JuBoKT9Q1XKwJ3/wIwrFZJ/Mpg+KvXc4vsznflQuA+VxGIHj7Wg/FwYAWE/NIfhtR+V9gp1Y29dNs7lTlQ8uOELJdfeQodusTqWDH23MfWNZk9kOxmo/45GN+phQqF9kkly58mTIUWzvaO3nuLQ7SFdqg23aamfe0DLT8hCduq61Hv9VBMGblT8k4VvzlQ+yGCmVwPTpdtjGZFP0nk2HnRjuUp/JGBHb4bwWKb/7N4BcJoXEYhiT5/rR7QobUKkOPnPAf1WC52hb+YhDK4wxtnLDzgAwzy8bfdZW2NQRFOb33/30QNMef4n5j3qYPzTPlpQ0y66W/Gg1y9LKEpv7wc1sQmkdHVX1nlulRW+Y/c3/Tu1bWBqtxwcYYGX283NsZbXyu2xHYT3FUHvY/CbfMeqHw35j5f030TT4VUqXH+DB2fmaf2VqFYpsYoq5qziXRTjgYt6ztsJz28+bHPDaJn2CXy6bTrLl6BTzHhaKbT0ZZLVvXWnwn00xO8BwfmHzsbH6ur6pQkF1FXz27pjZTCepMcZW02w5MsE8AzYmtpaG3cYcZ/0sKK8d+YyNFn+28Tf09hkR/ILVZTZxpNg+d7j27StkdeXntR7Ee6/S0ED9ZiiesVlvwWfpeeYp1OJic8nKv7IVhoaCMcbYCpvqU9tnKxt21orRbcze8xbzdHKO1XgTFt57t/XvC2B/r2ZvwAp3hMFdzUuN0tRUMgWWQ87U56+v43kU4fv5x4fs6Gzd9NWm1PTh3uKTJwqSALQ4fmuCC1G24JVSckZfJ6z7Nnmt6eQg/98kIvln9n860LHp68lmGir4ysMwouqTsx1oM7KYGsstBuAdy3+sBQ88Ryue2WNK8UdzxSdiW+Xzl7apzoMvI3A8gOiryrPyuccBDP1D7Q8F+AZs+swH6yB1dwT9x0YKl1I6rno1PZxfU4sBOK9Fqjqqnlsch+dC8Tvb3det3TasxY4CNNu5Lc73Wo94mD+0wJaT6ZLZp/w8/lVH+WV7R6Y0mQrTascvOetl3hsxtvK6+G9rU3xBJg1Yy6c0NZrmU9W8jbJUmJ8XT0ksGFliK+mSiZTVLEsmFlhw9J1t2OVnS7WthDFWNo9fgzfRIfhVL61uNqfUuIw8zYJfehrCJov41bymoWdMy+BvYRFcLKjUtgyVuo46H+oIsA5UP8qzDvgRk6fg+ES7igzR6oA/mkTsB7tmY17NfNQGz5EtbsMnQbg+0a4koOy0/3pkhWt2Ba43CuL3o5i7H4H8NIHlhwmsnZAroO1wO7r/2wXHaSfsn5lzVN8kdMJxOIHYe+1ywOZwwtFVxdVL9arVgYmIAxObbsNu2P5ih92l3za05Lv/7f2yxfLev+3g7erelStXcPHiRaPL0FSjt1HNbJ0PdQjRBgWfcImCT7hEwSdcouATLlHwCZco+IRLFHzCJQo+4RIFn3CJgk+4RMEnXKLgEy5R8AmXKPiESxR8wqWaXojS29uL3t7eHRdFiFYePHgAgK7A2pJGvzoJaPw20hVYhGsUfMIlCj7hEgWfcImCT7hEwSdcouATLlHwCZco+IRLFHzCJQo+4RIFn3CJgk+4RMEnXKLgEy5R8AmXKPiESxR8wiXzB/+NjHHRAotlbRlfNLqg7cm9iCMyM4nh0z3oOdhSaI/l0270HB9CYEZGqvIN3s3jbQaJhyEEzjnRY2tHi9peSwvabWcQeq7x+mtxs9zSRV8rLHhSKFu/JGu3Ni1u8JyNTzDXAaHKGx/bmDes7S2etbqJdVGaLYe8zCZs3lattiPMcYPnzeQgjw1i8FbK6EJ2JJOIIvSfKtuQiiLg6MbgjKJtUVp5E0fgr21odwUQNXiz5YMvY9xSHC6ULi0He3BmLAS5zvKlzLjhuCwDECAIRldTA0IbXOenMBdfQfo1A2P55XUSyxEJ9kIbUwh9E0DkTyOL3Q4FoXN2DP+qBklA2wkJQbm8vdk/ljH/gxvNWt96fO0LIMakil+zLjb3cv2vjdJFD1lZYmJ+feJojM2Pmneok5z1Mu+NGEuuVnihEmSukuGBI5SseS2MaTXUybKl78SyIZvvXlqD9VSG9Yc6EmKspLdhDNk/ljB1UgBSIUi34xp/DKvwIgT3sRHIAISTQQQvidhrdE07IAz44T8lQqjUw33iwvA3HYWn4ecmGu48D2LkX3L+iQjpzjykvmZDS6o4xm/6qAPuc0MAgPgbg6cV3sgYPzGIUApAl4TwTy5Yja1IVy37zNjaHKI3RhDJPxOvT8LX1WRoRUCV05m512kAgPtAm6bFbE5B6JwDI4sABBeCMz6IHxhYDqlOLobIv9VxvRvDJzs2fbleKu5CZJ6G4b8cgHAyCN8xo76eSmdwREh3puH6xKBSDKQ8jxUeO1pN0vv/HkVAfXzWAdtHRhZT9E6PP4Lud2Z19rY5MZ7xIHDBbtiwonQGxxUK1sVXpe5yUcz/pPacdtg/N8dUlpKQC48dYhua32aQuDuN4dM96P7UUn6g7vQwpu8qyOhR2Nq+bhWzOgATv5pnK+vsIUPDWZ30PV/ZDE52ndfETDyrU53yWRHh/MK6/w+1UOs2xi4Vt43tpJvZWyvnTDjsYwt/1LSMAnUdFWd1GMsinZiHdFSA/GM/hm7qN5uQWxyH/cvxshkcDvt65BYD8KizIoIH0xdsJvl/SEF5WnwWvTWNSBWnIqQejqPn4CBCLzQrrJqd2yY0f2aH77oEG4DIXRm6HMsqmbbkcQZHlXscgFP9f4AI6Y4f9joZJ2/ZRgfpVrNIKzFMfW1D8ThdCIMXQpplrfpTFlrbIQLAIwVJjYopSiF8uThtGbvP6QzOixDcR4YRSQGNsH/ju72M4FU3HIesaC7dnrub0PyJCPf1BcRCrmL4b/sRfKxNLdUH/3FsbS62rw0t2tRSJqceMlgcQfeH659OoS7dl4u/N1JypqbluHY9htZyT6cxKOY//BDgCsUQPGHu77w9VZyGYD0hQTqiPotj6Zk2W7By8N9koCxOY+jsMOIQ4Bko+Toimsg9DsB5+Ew+9Fa4Z80b+qYtf0FZ0flFMWHR59qML975DI6g2zKy4YvF0TD8R4091NzoMvdHCjv0gAjPL0FMHDVn6AEB1jYByH/vLr9MAV2Vu83mfd0AwgCA1Fttzhao3OO3irCdkhCUk4jpNqsiwDX77uzSxktstPibklzys1mXib6dckjcPINONfSCDdKjiIlDv8Z6wFl4HPptGdXEOPUsXHis1YG6fPBF+DYK1rMYFm744Krik0q2K4Po5X7YTk9DAYBWN4LyAnx/Mf+3a7Nog1t9ci1UxenUccR+VR8L6LRqkzsTX4jSIPIXZ/SMRZECIByWEPttqnFOyfjIBsdZNbzT8HwTgvJ2oxfnII95MKzO5Bwahr1Lm7Io+IZKYLKvs3BxhvVUELF7Pojm7+hLNMP+jQR7/lnq1iC6vxzG9KKCTGHck0PmRRST/+jPn5oCAAK8Vz3Q6pQ2Cr6hMsiUXByv3BzE/v/afOq2bDHLdG2rGxMl8/OphwGcEfdj7x61LXuw19qDof+N5tsjwH49AqlPuz1KCj7RhfVEEIl7PtgqDdkFG7zhGOa/7tB0IoWCT3TT3CdhQUkiFvLDM2BDW+FDYIU44IE/FENSWYD/mPYzWVpf0qsL8RIDu2R0FduxNpvmM7oMPTUJEE94IZ7wGloG9fiESxR8wiUKPuESBZ9wiYJPuETBJ1yi4BMuUfAJlyj4hEsUfMIlCj7hEgWfcImCT7hEwSdcouATLlHwCZcs+T+dvL1ftljKnvf29qK3t3fHRRGilQcPHgCocfABYAdvV/euXLmCixcvGl2Gphq9jWpmaahDuETBJ1yi4BMuUfAJlyj4hEsUfMIlCj7hEgWfcImCT7hEwSdcouATLlHwCZco+IRLFHzCJQo+4RIFn3CJgk+4RMEnXDJv8H8fR4vFAovFidAro4shZmPS4GcQmZ0wx82NSV0yVfBzmQyUx2EEjnei/xrFnmyfKe5zK49Z0H3Z6CpIIzFVj09Irbwf/JSM0LUhOMX9sFgssFgs2C/24MyFaUSeZgwokZDaKwl+DvEfndjf0o3BC5MILyqFnyiLUUxfO4P+tr3Yb59GQucixUsMjJUuSQQHdC6CNJRC8JUZN+z/DEOBCPcPC1hJZwtBy6ZXEAtJcLQCyt0UqN8nZrcW/FchDLtCSEGEJEcx9ZUN1uamwouamq0QT/gwl0hi/lIzmjZ6N0JMYjcAxG/7EQYgXp+Er2uTWO8WYB/16FQaIdrZBShIPIoDsMF9tMPoegjRxS4gBeUOANjQ3mp0OYTog+bxCZco+IRLuwAB1mMAEMXyc6PLIUQfuwAr2r7oABDF5J240fUQootdANBx1AM7gPgFD8YXcxu/+m0KkcuToI8HMbu1MX7rIKTvRAAyRsR2OK9FkPiz+AHIZRTE7wTgbGtB/1gGm3w0CDGF/GnJTej4NoIYnHD8K4rwhX6EL6z/C9YBKwT96iNEEyWzOs0Qv11A4tk8ps67YeuyFn5i7XLAczWIhWdprMy6YF3njQgxk/cuRGlutcN91Q63EdUQohNTzOPLY5bCtQFrSwsGb6s/DWPw43d/Pg7ZyIJJ3TNF8EmjkjFe2mGN6dddUfCJQVIIHe/GUihZvLjoSTecM/r8EQFTBP/9K7AqLT6IRhdNKlCg3AY6reocoQDrQSD8XNn0t2rFFH9lgTQiEe6QAy2iBZAZfF0yopcdCL7Up8ui4BPDCF844QCwdN0Cy20AozGwffqs2xRDHdKIZIx/PAfnyznMzRbH+Hrt4FLwiTFeKVhCJ6yFHl6A7ZgDeKLo8qchKfjEGPus6MQI/IVZnBSid8LAQX1OiaHgE4OI8L0MAq6W4kHJgzGwS7RzSxrdPhfmmMuQVVOPT7hEwSdcouATLlHwCZco+IRLFHzCJQo+4RIFn3CJgk/4xHYAAFdLb2+v4TVQG2uzUI9PuPT/T1p9RbGRQVAAAAAASUVORK5CYII=;" vertex="1" parent="1">
          <mxGeometry x="880" y="680" width="190" height="208" as="geometry" />
        </mxCell>
        <mxCell id="Kt9OW5PYxR4Jgx1hHl5N-39" style="edgeStyle=orthogonalEdgeStyle;rounded=0;orthogonalLoop=1;jettySize=auto;html=1;strokeColor=default;align=center;verticalAlign=middle;fontFamily=Helvetica;fontSize=11;fontColor=default;labelBackgroundColor=default;endArrow=classic;endSize=12;" edge="1" parent="1" source="Kt9OW5PYxR4Jgx1hHl5N-17" target="Kt9OW5PYxR4Jgx1hHl5N-18">
          <mxGeometry relative="1" as="geometry" />
        </mxCell>
        <mxCell id="Kt9OW5PYxR4Jgx1hHl5N-17" value="" style="shape=image;verticalLabelPosition=bottom;labelBackgroundColor=default;verticalAlign=top;aspect=fixed;imageAspect=0;image=data:image/png,iVBORw0KGgoAAAANSUhEUgAAAL4AAADQCAYAAAC5itu3AAAVEUlEQVR4nO2dX2gb+bXHPwp5cKEFB/ZhDAlUiwv1soHYcMEjyEO1TmEV9kIkHLDEFlLlFnadW2jizdJK8YMz2nY3dh7adS/cGzcPQWOIkQJd4kCzUR4WNIYWeyGwXtgQFRzQQBdsaCCGXZj7YEmWHP+VpZnRzPnAgCRrZs5Y3znz+53f+Z0fVsewaE2ewmI4a5WdNqWlvLTKRtaafC9qhd9ULMACxer7WdLS8l9Zq06b1yq+W7W+mr9lXbkQttReKtcZtNQzzlwnNp+vKV6uPrPuXwtbCh4U/krWilIVwqtb8ELOeua0jS2grEd3vMbqddr5ux7BzSxkCAQC/ODY65y9XsB02p620EXwvU/JLT1j9d8WlmVhWS8pFzQiCpRujzLzeN1pIw/P0WPEJ7I8Wi7z8rvtrlMj+6WN9th4kx0cQ3vVO3jN4+9C1UsqHy06bUpbWbzZbwFW/K59v6y7Pf5gquIZLCxDc9oa21GCA06bYAPrrP6rDPQz8BPFtrMete1MwoEpPSkAEHsz6LAlbeJFCWNuivTvTdSJPKOn7Du1uz2+n3lRYHq8AKc0Eme6nbampZizMQKBAIEfvU70zjqJ+WcUrql02WiDeHxXUkJ/P8GUqaLdu4JqpyJsxnw8w1RXN8eCGvGf2neh4vFdR4n8L98icecHJO9mSQ16T/XKSG6j3/bdS8pLWSKrUyT6Ysw8tc8GEb6beLHMzC9CxG4rjP71EbeGPdq2r3K0C+VUnMmJK8A86bkl204twncLawaZ/wxz8eEbpP42z6fveFz0dXT96BgA5vf2jVeI8F3A+tczXPyPEOmVs9x6fB/NY53ZvSh9swiAclTa+L7BfHCJcN9F7p9I8ci4RdLGDp59mOR/lSAzW2DZXKPm11+YLM1eIvGLPKAy9na/fSbZNlTWDNuN3HpsFLc4scv11W2a4bSlh6FsZYd3uz7Fiuv2ZiSJxxdsQCF6c5HcX66QPKNS6730qkTfmyT3ZJnsiL19moBlWZatZxQEFyAeX/AlInzBl4jwBV9yqFydQCDQKjsEwVbE4wu+RIQv+BIRvuBLRPgHYGhoyGkT2o4frhHaIHyrOkfWg9vQ0JDjNsg1Hm5rm/AFoRMQ4Qu+RIQv+BIRvuBLRPiCLxHhC75EhC/4EhG+4EtE+IIvEeELvkSE7xkMMoHARjHWQIBAIIPhtEktplZstrLFZptfKkSE7xUWCizq5VpOSllfJHRe99AqMiaFewMUa3k3RQbiPWQWmjuaCN8rDKbIjWwurKAEB2CuRMlBk1qLQvxuCrX2PkhwGBZLzd3aInyPYjxMw3AQz1bgfF4gNwcDweZWURHhe4xqOzg0rlG8G8e+xXXsotKXOZEAvUxqsLmjiPA9Rq32vAEhD3ZwQSVlWVhWmdi9nqY7uCJ8rzIYRmOR0nOnDWkXCuFzUfJPm+vFiPA9gjkba4hwmLOTpBkgeNw5m1qLQaYhSmUwE88T7W2uF+Nq4W+N2x50azbU1Ykop2MsqpvX3hMfoGjVR0E6HZXwyQQ9td83xKJebohkHYRthb90Y6By8AGm7FxtWmie43FyDfNLvST6DdRrjfNnmxU9bCv8JQr6Uu315Gfe6x4JwqvCX5hn8kuI/O8tNAXMP9+nYN/SRA3UIhQH2FbzSWeMFTqKLcJfp/DXTzGJEP1ZksjlfjBnKBgOKf+grBtMT8xsvFZG6e911hzBvTQKf71I4bYJb0cJ90L/mQT9mGQeFOkE6ZfuaKQrfRL1apLIa87aI7iXBuGvfzFPxoTou2c3hrpPhUmcAm7MU3S78r+dZ2p8fuO1cgXtv2xcSEzoOOqEv07x4RQQJXa62lvuJxzvB6bIP1xzwLz9s3RHY7oS5I18NEr4h87acxiM66+GZg+Tgus6nuvEXgk/2zvKvCn8tQL5G8CFBJG6QY+N5g5M3yvgWuk/19EuV/5tpzTSNi8k1hYmii0L3bmTKNkV58KvNeGvPc4zDSTfCdOwvHC1uXN7nsK3Nlq2b9Yp/PkK+cq76NUkqheXihVaSkX4axQ+24iGzESPbXkEDTD2JcAM2YcufNw+zTL1+4pdpyZJe8Uzjoe82cypkSdxwrnZYhvCfz5P9vbeX87fue+yiQ1rzN9Ms9GlVRidSOKFLm3DCOVKFg4x08iVbBllLk6kbZ8tdgSg9DBLHhj96+oOA0PPuPU28CBP4amN1u3B+sI06f+p/LsGx0i+0737Dp3I8ThjE83PNOoE1AtZojbPFjsCJQpz88AokdM7CSdIeDgCzJP/wi0+3yR/M81GcoXClYlRT3h7wR6O8LRA/gHwQZTwLg4zeDpKBJifLbiiubP+cJIrc5U3b2uMnvFKj9Ygc72uxftcZ3K8PsTc+ZizGfS6eQLG7QT5ibC9UZ3SY5154MqZELtKpzdM9G3g4TR5xzM2l5gen6q0CfvRxhMemlsaJPhks2MbOJFgwMgR90xePShB6jq2AUJPspSv2ZxLah0C4JXNDlbzyc1zDmetsi1ntaw//OEPNp3JObx+jVXduHoiyrbUJ6LRz+TvvDihWmg3HSf8+kQ05T2N5Cln7RE6k84S/osC09VENCJolyN4MIAp2EBHCX/p/9JMVcLZygdXSEi+vdAknSP8+kQ0Imi/Cu8ehRKEXegQ4TcmovVPpMXbb0NjVQovFpNqrAjt/WrJ9YloRBm7oIq338pCplJSxLn8l/Ziop8PbVaEPmwOUytiotgcx3cK98a4y1Z2GCuq141orGStKFEru3KwI7n2Gg3NAs0q1n1UnMBiorjjLttBx8bxhf1xPMgAeQ+XEIRgbxSelJp6qonwPUGljuS9goeaNlsYDKORptCi9OyjrTmM4DTKyDTZez30BBJ1n0bJeibHRyVlaATUAOn6jyfGmhq5F4/vGRTidxsnsESHY4Q9I3xgMNUwT6Q4AdqZ5pLbxON7EoPMiQQDhuXZPCZzNlbJ6mxuf/H4nqE+xj1JcMVqerUQt1I/TtHzdAzrECu+iMf3DBsrhaScNqONKCM5rJHWHEs8vuBLRPiCLxHhC75EhC/4EhG+4EtE+IIvEeELvkSEL/gSEb7gSwKV5Pzmdg4EGt4PDQ0xNDR0aKMEoV18/vnnQIuFD3CIw7mejz/+mA8//NBpM9qK16+xqllp6gi+RIQv+BIRvuBLRPiCLxHhC75EhC/4EhG+4EtE+IIvEeELvkSEL/gSEb7rMNHPB+rKfQf2WRG4sYS2N8uEtw4RvusoUSJLuVoxzNBIq7GGdWG3ZaGwWULbsijrix4rE95apK6O61BJ3a0ri1cpllp6DuxWDnAwRa6ugJQSHIC5EiXwbDW1wyAe3+08L7FIlOABa2AaD9MwHPTQwtetRTy+qzHRLydAL+97ZXNzNkZPPA9oFC1ZA3gnxOO7FhP9fA+Jk0VyI/uXrzKSq/QNICQd3B0R4buSTdFb15org73RN1j09Iooh0GE7zo2RJ87Vz6Q6M3ZWEPY05ydJM3AgfsGfqHzhf/CIKMeNObtYp4XyM1BPt7TEMsPXN+90aKcjrFY93/YWAExRZPPi/bz/RrLj3Wm3o/xVvgNemrX2sMb4YvoT9t7+g7v3JbQ34+S7nSx13M8Ts6K27ef7ayxPKtx6fIUhW0HGUyWH89Q+vYWtHEt4w4W/jrG9QSJOzJE0zG8WGIqHmHsM+d/s0pTZ+twd90j8+RbXLyuYzhvawOl2STRcQNQUCRm1wGU0N+vF71C34hG1njG6r8317V6+a+vuP/HJN3tdsmVpXItbZvFmhs2JW7lVrZfLBebF3h+aWiWWjmfOlG07k9snl8z2nde1y5+3ELac40vrcWP1Dotha3U31bbcJ69YfsFnrXakvBW7Q5c5Na7Cpg62txSm2/DffBPneS5NAagvJsle03lmNM2CbvzNEv6d9XOuYp27z7amW5HTdozqtP1Wj/J9y8BsPRive0G7coLg8xIAt0EBjXyf47LkLzrWafwlzTzlXfqzWlSg12OWgT7DGeu/3sVgOSbfW01ZnfqIjhKnOxsCvWHDpoj7I/1IvO/r7brk4y92++oOVX27EKsfZ1ncnwK5d0sqXNOPZ7qIzgq2r0Z4j92yBThYPyjwFT19XtRwq85acwmWzx+mtCWqM6xvhiZtVGmrkYca1bUR3DietYVj0phf5SWNwfeomof3d+vsfxghrFfvkXoJ3Va+0mIt345xsyDEms22LW/kduvp0mcPEbo1/OU2mzQVtYepknENyZUqBN5ZkakVd9JmCuF2uu1hxnO9h3jjchFpm4XMOpHZ58aFG5PcTHyOn3hNIVv22vXnlEdy3rJ6vJ9tHcUjD+d5dJt+6S/vpAh8vNMQwRHfH0nYVL6evNd4c4M8/tIRTAfZ3jrZAL9n20zbD8ev4vun0ZI3dQIA/MPDHums9WFLSWC4xGUPuIf3CK31DhoZX33ktVSkVu/CW/OHzB1ElfbN3Vy/0lqvW9sJDx9UaLcJmM2McmPb4Ytiw8lguMFUnNfkf0kSfRUkO763/NoF90/VknefERRr5s8MzdJ9sv22LJ/4X9Z3IjFnumjpz22NLBeHTJYSBP60fbpFNUtNL65X7ouQzEgk61dxQ/2kYYQHNHQ3q6+W2Lxm/b8gnsL/8UapYUZLr03xhIKo8Nhmc4m7JuuA3fKggyc3lRY4Wl72hdb7sE0oUB6xy+rE3km33F2qFnoJBSCfQpUnrtfrZgwuLfb7D4eAvIAmN+3J1tgb4/fqxK+oJE1yhRti6ooxO9ujS7tvBUnNvfUjLq/3ZXJ1k4TfDNWe63//Sv2I2Pzm3ztdbS3PSGNivBVUjsJ65sij/6SIr6PO1UQttKthklW39zQmd8zPr9E8bPqa4WBYHt01/lTDwV381qY6HtV8c4welmn9P1OX17HuD7KWDWSc2qMyOBO3z0cInyhzXQTuawRqbwz7yQI/XyMmYUSa7V2zzpr/yww/auzldQUAIUrn4zSrpS2Dp56KHQMvUk+1QuEKqkn5uMpLqpTXNxxB4XIzXm0M+3rUYrH9xDmbMy11ZKDI1mW/5YivFeTXQlzJV/k/m/62xpIEeF7hYVMpaRINdKVdl215O4zGo9KZYr6JKPDYfpqN0EQdXiUSb1IufSIyXPtT07xRFNHvWZhXXPaCicx0W+mierlWh0d9UKW6IkchefxfdfdtIUuBXXkCurIFUfNEI/vVY4HGSAvJQR3QITvCRTC56Lk7xVc1bRxM55o6gigjEyTvddDTyBR92mUrJuaOS5CPL5n2JLmsZIlOhwjLMLfFvH4nsQgcyLBgGFJrtIOiMf3DPVlICcJrlik2jTc7wXE43uGjUTDlNNmdAji8QVfIsIXfIkIX/AlInzBl4jwBV8iwhd8iQhf8CUifMGXiPAFXxKoLIjV3M6BQMP7oaEhhoaGDm2UILSLzz//HGix8AEOcTjX8/HHH/Phhx86bUZb8fo1VjUrTR3Bl4jwBV8iwhd8iQhf8CUifMGXiPAFXyLCF3yJCF/wJSJ8wZeI8AVfIsJ3HSb6+cblTDMLTtvkPUT4rqNEiSzlakU0QyOtxtCl+GtLEeG7DpVU/WqNg2E0qXrcckT4bud5iUWiBKUGZkuRSmquxkS/nAC97K7FHTyACN+1mOjne0icLGKNSOnXViNNHVdSJ/pr6t5fFw6MeHzXsSH63LmyePo20rke/x8ZegIBAgGPhfqeF8jNQT7e0xDLD1x30+KdnU+Hevw15u9+6s31no7HyVlxp63wPB3l8dfX1ih9mWfq/ABnb3hS9oJNdITHN64HCI07bYXgJTrK4wtCq3hV+KaBfuMSMfX1WsfqdfUtLl6dYf7rNQdMFITWUyf8dZb+FOP1nhCJq9PkF0q1v5QWCszcuMjZvmO8Hplh2WYj1Wt1y1haFpZVJjtssxGCp6gJvzSbJPLrPCVUkn98xLPVlzWhvVx9RlHXiPZC6YGJ+P32YlxvTEsOBALEZj3UmX+uEwtsvcYMdgZsj1QNGYvrmKhoRoFb/x0m2N1V+1JXdxB1JEVuucz9a9107XQ0oXVMFBuecjnPDWZFya7UP8VT2DlGfRRgaW6SPKDenCY1uIusjypEJkZtMk0Q2scRKLH8xRIQJvlOv9P2CFXGQ95s5tTIkzjhTDMH4AiYlO4BhHmj1+azC9vS0JlfyUK8x1vTD4/HydU144oTaULndVtH4iWO73aOxxmbgMWSF73+BuqFLNG5EqW9v9oyRPiCLzkCCsFzAAW+euq0OQIYZOozMZ/rTI5HiZ32TlTHnM00ZNQatxPkJ8K2RnWOQJC+0/1Agel7SzaeWtieIMEnmx3bwIkEA0bOU1MPlSB1HdsAoSdZyjZPuDkC0P/OKBFg6eoomYX1nb/9vcn8+DRye7QThfjdxpHq1KDTNrWYwVTjSHx9VQmb2Gjj9ybQPlIBg7T6BrEb8yx/u3kDrK+VWLo3Rayvh7PX19jl1hCEjqCSltxF/2/nKRIj+rsC+atnyV/dfofgcND2u1MQWk1dVKcb9bePWP7mPrc+SBIeDNb+EhyMMvpJlkffrPLsbpzgNgcShE7ilYko3b0Rkp9ESDphjSDYREfE8V/NVuwhMVf9a74hQuDUELjQWXSE8IX9Yc7GOubmb3Rm+7XVINOiVG0RvldYyNATH6DoYP7LfjFnYxux+4qtZX1xH7aa6OdDLOrlluQwdYTwX52Btddmb26385joN9NE9WTtujfyX3IUXFhzqPQ0Dyc3o4NKcAD2ytVZmCExpzFWnZdQyWFKP2zuudYRwhea4HiQAZeWF1cvZImOh2pFsoyHjTftfgn2RuFJqamnmgjfEyiEz0XJ3yu4smnzCsfDxIYh+mRyI2VhvM6T78RgGI00hRalZ4vwPYIyMk2WRKWsYoBAIETapXX1jesbtUFzd3Obbfw9O7gqKUMjrW52bnvijU2mgyDC9wxbcnxWskSHY4RdJ3yT0hMYCG7KVTkdI8ri3s2yLTk+xQnQzjTXmxPhexKDzIkEA5ftT/7aG4XgSUjf3IzimF/kyDNwoKdTNTKUbDKBT4TvGepj3JMEV9yb1aleKzc0yzbCsHtH4urHKXqejh0qq7MjamcK+0ElZVmknDZjX2w0yw5aE1oZyWGNtMYC8fiCLxHhC75EhC/4EhG+4EtE+IIvEeELvkSEL/gSEb7gS0T4gj+xDgHgq21oaMhxG+QaW7OJxxd8yf8DuagM0oIVrJEAAAAASUVORK5CYII=;" vertex="1" parent="1">
          <mxGeometry x="40" y="961" width="190" height="208" as="geometry" />
        </mxCell>
        <mxCell id="Kt9OW5PYxR4Jgx1hHl5N-40" style="edgeStyle=orthogonalEdgeStyle;rounded=0;orthogonalLoop=1;jettySize=auto;html=1;strokeColor=default;align=center;verticalAlign=middle;fontFamily=Helvetica;fontSize=11;fontColor=default;labelBackgroundColor=default;endArrow=classic;endSize=12;" edge="1" parent="1" source="Kt9OW5PYxR4Jgx1hHl5N-18" target="Kt9OW5PYxR4Jgx1hHl5N-19">
          <mxGeometry relative="1" as="geometry" />
        </mxCell>
        <mxCell id="Kt9OW5PYxR4Jgx1hHl5N-18" value="" style="shape=image;verticalLabelPosition=bottom;labelBackgroundColor=default;verticalAlign=top;aspect=fixed;imageAspect=0;image=data:image/png,iVBORw0KGgoAAAANSUhEUgAAAL4AAADQCAYAAAC5itu3AAAVI0lEQVR4nO3dX2gbZ7rH8a9CLlzYggO9GEMCq+DCOjQQGxY8hl6s4ixUoQcikYAlupCVdyF1TqGxm7IrxRfOqLtt7BzY1l04J95cBI0hwTLsEhWaWrkoSIYtdiFLXEiIFhzQQAsWbMCGFuZc2LKkxH9kR5oZzTwfEEix5Hkm/unVO++8mhezZSyY4ycwOZsyi3aX0lCrZjGfMscvhMzAG4oJmKCYXb+KmVr6oblid3mN8uOK+TBzwxw+HzDVTjb202+qp+zZTyze3r6srjwx714JmAouDP5yygxRDsKLN//5GfOJ3TU2QFEPbbuP5f208u96ACebT+Lz+Xjl0FFOX81i2F1PU7Thv/AZM4tPWPmPiWmamOYqxaxGUIHCzSGm7q/ZXeTLO3iIyFiKuaUiqz9utZ8aqW8trMfCN9ne5bUXWwe3tfg7KLeSykcLdpfSVAvXu03AjNy27i/r7Ba/N77RMpiYec3uaiyn+HvsLsECa6x8XwS66XldsWyrBy3bktizwoMsAOE3/DZX0iTPCuTvTJD4k4E6lmbohHWbdnaL72XPskyOZuGERvRUu93VNJQxHcbn8+F79SihW2tEM0/IXlFps7AGafEdqYD+bpQJQ0WbHUa1MhEWM+5PMdHWziG/RuQX1u2otPiOUyD925NEb71C7HaKeK/7Uq8MzKwft/24SnExRXBlgmhXmKnH1tUgwXeSZ0tM/aaP8E2Fob/PceOsS/v2ZQfbUE5EGB8bBjIk7ixatmkJvlOU8iT/K8DgvWPEv8zw2dsuD32VtlcPAWD8ZN35Cgm+A6x9N8XgL/tILJ/mxv27aC47mN1N4dECAMpB6eN7hvHFRQJdg9w9Emcuf4OYhQd41jFI/z5KcjrLklFis11/ZrA4fZHob9KAyshb3daVZNmpsv3Y6syty87i5sZ22L+qm5a3u9KXUTRTZ3faP8WM6NbOSJIWX1hAIXR9gZm/DRM7pbJ59NKpErowzsyDJVID1h7T+EzTNC3dohAOIC2+8CQJvvAkCb7wpJeaq+Pz+RpVhxCWkhZfeJIEX3iSBF94kgR/D/r7++0uoem8sI/QhOCb5e/IuvDW399vew2yjy93a1rwhWgFEnzhSRJ84UkSfOFJEnzhSRJ84UkSfOFJEnzhSRJ84UkSfOFJEnzhSRJ84UkSfOFJEnzhSRJ84UkSfOFJEnzhSRJ84UmODv7mImH7vCXn7d6DPXhWYHF2isS7YU6qR6v2o4NjgZMMXp4i87hkd5WusWXwF6/1bPyn9zBh5WrTXlTKMxE5RserR+kJDZL8a5rsfKHqCQZL97NMXRvk9OuH6HtPZ+mZbdW6xhbBXySrL27eH/9H3tKCPOdZgdz0EkadT89/GiXwrk5h96eKHbwY/PkM499C8H9voClgfH6XrHVLE9XYXB1vD7eVdMyeYl+an+CFcVLZhxRXViv79OMqxaW7jFctBGfcipKclW7Py3gu+Gtk//4ZBkFCv4oRvNQNxhTZvE3J36u1PJNjU+v3lSG6O+0tpz5t+N9PsfD9E+5+PkzkV10o7VXLAR1sQ/lFkOHbOWYuVJa8n5rN1v0pIV5UG/y1HNmbBrwVItAJ3aeidGOQ/CJHK0S/cEsjsXFMol6OEXzN3nrqcjjE+PUI3bvWqhCKVH2a3Vui2My6XK4m+GtfZ0gaEHrn9PpyLScCRE8A1zLknJ78HzJMjGbW7yvDaL+zcCExqxx8pXJf9eOttREbqyr4a+TuTQAhwm+WP1K7CUS6gQnS95zdp1y8pTG58dkf/GiIwM/sracZSsXKIW232kXLroT7VCf8wvBzEiuHUSrBL2VJXwPORwkerjxhvbsDk7NZHBv9pzrapY3/thMaCYsXErPEDxm0zeOXCImBVv9EC5Farh6YiKNauPXN4Jfup5kEYm8Haj9Cy92dmxmyP1hYWd3WyH4+THrjUehyDNVFS8WuGUtkb45w8vjp9XMqSgBtdorQ4V1fKnZimqZpmivmzPnd11oN6bWrym71HMs9umEGy9s/MW4uNHFTf/7zn5v42yuKemjLtWC7BsbNuSYv7GvJPi6nzFDNvmlmrvlbNU2zktn1Fv9phtTN3d8k6Vt3HXbipETmeoL1Q1qFobEYrd4B2E7g/Qk+G43Rp+z+XMc7HGGm6txLbixB3znd0uHZAwCFeynSwNDfV7Y5MfSEG28BX6TJPrawul2szU+S+OvGf1fvCLG33TvOkf2fKCe7DuE/HmXyG8cebe2Lej5F6E7B0kb1ABTI3skAQwTf3C44fgJng0CG9NdOafMN0tcTrE+uUBgeG3JNa19zxvrHVVYKC8x8EsIPGP/SufjLIMl5p48vO9xmH/mDOXN1p85R+XmnbphPnusvYUMff/XLYVMpb/etSk3NZFUffzsrmap9btLxjBX7WNQ1M7VceZwbw2TMml5+OacHCvd1MsDwqT52HAzpDBB6C7g3Sdr2GZuLTI5ObPQJu9FGo607pr0H7W8NoZ3aePDtOJlvbC1n3xQ/RI9UxvD7HqQoXrFyMBMO+n83h/m7ep7qJ5YxccIUsNLsJCPlufZnR4j1umj8ckev8Mpmb9SgWCxBK56/7Y1jmnFbS3D0F1G2VD0RjW7G/xjBDQMdwlotF/zqiWjKBY3YCXvrsdQPObJ3yg+68R9pwdbeIVor+M+yTJYnohFEuxRsxQ/6KgbpSyNMzdczgl1AvzRE+bOOE1ECXnrTN1hLBX/x/xJMbGRE+WCYaEvMt9/Z2tMJBtUOOo6f5uKnafLfGZSqRirXSgUWZycZDPQRvVV+g7j7ZJ0VDtpdQN2qJ6IRRPt9YOdRqBZj/CvD5HsZJut4rjqWZtzFJ+us0CItfu1EtO6xhCtae2jDr0boqvfoXAkwrD8ke0V11Zu+fnmSVVOZw9P7n+TQGsF/nGLiT+WdDDFy3i1/+HbU91M8LK6ysjRH6i/DxE4FUKvf1J0qgfPDfKbnKBbmGB/ocsm+75WBfq6PBb24fkZ7OQWRjv1fQqYRZ8Gwc3amhew+c2sFx+5jXnthFud+zvhSMztTiBbk7wzBg8K+ZnVK8EVr6A2gkSDboKvjtc6ojvA4lXhew6f6SFT/89jIvs7cS4svWkdvvOZ7Irkx0E7tb3KbtPiiJRnT4Y1Znft7vbT4omVUXz274/EI5u39T1CUFl+0DGVgBnOgMb9LWnzhSRJ84UkSfOFJEnzhSRJ84UkSfOFJEnzhSRJ84UkSfOFJvo3J+ft7sc9X87i/v5/+/v6XLkqIZvnqq6+ABgcf4CV+neN9/PHHfPjhh3aX0VRu38dyZqWrIzxJgi88SYIvPEmCLzxJgi88SYIvPEmCLzxJgi88SYIvPEmCLzxJgu84Bvq5yqWwfT7f/q8ILLYlwXecAgVSFMtXDMtrJNQw+lO763IXCb7jqMSrL5TUG0AjTUGC31ASfKd7WmCBEP7DdhfiLnIlNUcz0C9FQS8SkeA3lATfsQz0cx1Ej+cwB2QJ60aTro4jVYX+yv4ugy12Ji2+46yHfuZMUVr6Jmr9Fv9ZnqTqojHvp1lm7kA60lEzlu+7mt/9ta3kpxJL93Um3g1zMnCMjs197eBYYBD9cXM33+ItfgH93RCJVg97tcMRZsyI3VU0UYmlaY2LlybIbrlqm8HS/SkKP9yAJq5l3MLBXyN/NVq1zL1wvGeLTESCjPzD/r/ZRlendsXo6lvH8ZMMXtXJ219rjcJ0jNBoHlBQpCvcAgro71aHXqFrQCOVf8LKfyrrWq1+/5C7f4nR3uwmeWOpXFPbYrHmmpsSMWeWt14sF4sXeF7Na6a6sT11LGfeHatsX8s3b7uOXfy4gZqzj6vmwkdqVZYCZvzLlSZsZ3dsvcCzRq5qVTnTNFn9foEb7yhg6Gh3Fpv8NqzDv3ViZxLkAeWdFKkrKofsrkns7HGKxB/LB+cq2uxdtFPttpa066hO22vdxN69CMDis7WmF7SjZ3mSA1F0A+jVSH8ewW9vRWJXa2T/liCz8Ui9Pkm8t83WiqDO4cy1/6wAEHujq6nF7KxqBEeJkJqOo/7MxnJEfdZyZP5U7tfHGHmn29ZyynY9hCh9l2Z8dALlnRTxM3Z9PFWP4Khos1NEfm5TKWJvvskyUb5/IUTgNTuLqXiuxU/Q99yozqGuMMnSEBOXg7Z1K6pHcCJ6yhEflaI+haXKibeQ2kX7TyWWvphi5Lcn6Xu9Kmuv93HytyNMfVGgZEFd9Z25/W6S6PFD9L2XodDkgp5XupcgGtExAHUszdSA9OpbibGc3bxfupfkdNchjgUHmbiZJV99dvZxnuzNCQaDR+kKJMj+0Ny6dh3VMc1VVpbuor2tkP/0NBdvWhf9tfkkwV8na0ZwpK1vJQaF7yqPsremyNQxFcG4n+Tk8Sj6v5tWWD0tfhvtvwgSv64RADJf5LHkXFbVsKWM4LiE0kXkgxvMLNaetDJ/XGWlkOPG+4HKN88MnehlvWlZq3+SWucxVICvCxSbVEyFQXq0MmyZuycjOG4Qv/OQ1CcxQif8tFf/PQ+20f5zldj1OXJ61dcu74yT+rY5tdQf/G9z62Oxp7roaE4tNdbKpwzmE/S9uvV0ivKtb7TyukTVTE3fuea1GGLvXqljGoJ/QEN7q/xokYVHzfkL7h78ZyUK81NcvDDCIgpDZ6s+joTYRdueD8r89LxZSVj2cXP6F8+9BxP0+RLbPlkdSzP+tr2nmkUrUfB3KbDxuftw2YDe3ZvN9sN9QBoA46fmzBbYvcXvVAmc10jli+QsG1VRiNx+fnRp+1turPJKLV/1s+rLdAhb+N8Ib97X//mQemJsPEpv3g91NmdIYyP4KvHtgvUox9zf4kTqeKcK8bx2NUCs/OCaTmbX8flFcv8o31fo8Tcnd63/1UPhbK8FCF0oh3eKoUs6hZ+2e/Ia+atDjJRHck6MEOxtTlkSfNFk7QQvaQQ3Hhm3ovT9eoSp+QKlzX7PGqV/Z5n8/emNqSkACsOfDNGsKW0t/NVD0TI6Y3ymZ+nbmHpi3J9gUJ1gcNsXKASvZ9BONe+IUlp8FzGmw1XnN9anejiFfyDF0pdxArt12ZUAw+kcd9/vbupAigTfLeaTdER6Nuda5cYS9DnsBF77KY25QpGcPs7Q2QBdm28CP+rZIcb1HMXCHONnmj85xRVdHfWKiXnF7irsZKBfTxDSi5Svu6aeTxE6MkP2acRZ191sU1AHhlEHhm0tQ1p8tzrsp0cuL74tCb4rKATOhEjPZh3VtXEyV3R1BCgDk6RmO+jwRav+NUTKSd0cB5EW3zWem+axnCJ0NkxAgr8lafFdKU/ySJSevClzlbYhLb5rVF8Gchz/skm8Saf73UBafNdYn2gYt7uMFiEtvvAkCb7wJAm+8CQJvvAkCb7wJAm+8CQJvvAkCb7wJAm+8CTfxoJY+3uxz1fzuL+/n/7+/pcuSohm+eqrr4AGBx/gJX6d43388cd8+OGHdpfRVG7fx3JmpasjPEmCLzxJgi88SYIvPEmCLzxJgi88SYIvPEmCLzxJgi88SYIvPEmC7zgG+rna5UyT83bX5D4SfMcpUCBFsXxFtLxGQg2jy8VfG0qC7zgq8erVGnsDaHLV44aT4Dvd0wILhPDLNTAbSq6k5mgG+qUo6EVnLe7gAhJ8xzLQz3UQPZ7DHJBLvzaadHUcqSr0V9Tdny72TFp8x1kP/cyZorT0TdS6Lf43STp8Pnw+lw31Pc0ycwfSkY6asXzfVSct3tn6WrTFL5G5/Zk713s6HGHGjNhdheu1VIu/VipR+DbNxLkeTl9zZeyFRVqixc9f9dE3ancVwk1aqsUXolFeDL6RR792kbB6dPPA6qh6ksHLU2S+K9lQohCNVxX8NRY/DXO0o4/o5UnS84XNnxTms0xdG+R01yGOBqdYsrhI9UrVMpamiWkWSZ21uAjhKpvBL0zHCL6XpoBK7C9zPFlZ3Qza6soTcrpGqBMKXxhIu99c+au105J9Ph/haRcdzD/VCfue38ckVg7YHigXMhLRMVDR8llu/HcAf3vb5pPa2v2oA3FmlorcvdJO23a/TTTOWK7mU27GdSezQqSWqz/F41h5jvogwOKdcdKAen2SeO8OsT6oEBwbsqg0IZrnABRY+noRCBB7u9vuekTZaJ87uzmb0kSP2NPNATgABoVZgADHOi3euthSzcH8cgoiHe76+uHhCDNV3bjcWIK+c7qlZ+JlHN/pDkcYGYOFghtb/XXq+RShOwUKuz+1YST4wpMOgIL/DECWh4/tLkdAnmT1TMynOuOjIcJvumdUx5hO1syozd+Mkh4LWDqqcwD8dL3ZDWSZnF20cNNia378DyoHtr4jUXryM6766qHip+rA1kffgxRFi79wcwCg++0hgsDi5SGS82vbP/sng8zoJPL2aCaFyO3aM9XxXrtrarDeeO2Z+OqrSlhkvY/fGUX7SAXyJNRjhK9lWPqh8gZYKxVYnJ0g3NXB6asldnhrCNESNqYlt9H9hww5woT+mCV9+TTpy1u/wH/Wb/m7U4hGqxrVaUf9wxxLj+5y44MYgV7/5k/8vSGGPkkx92iFJ7cj+Lf4RUK0khe+iNLeGST2SZCYHdUIYZGWGMd/cbZiB9E75Z+ma0YI7DoFLlpLSwRf1MeYDrfMm7+2Mau31jzJBk3VluC7xXySjkgPORvnv9TLmA6vj91v1FrUF+qo1UA/18eCXmzIHKaWCP6L38Da7Wbt3G77GejXE4T02OZ+r89/mSHrwGsOFR6n4XhldFDx98Buc3Xmp4je0Rgpfy9hYw5T4t7+PtdaIvhiHw776XHo5cXV8ylCo32bF8nK36t909bL3xmCB4V9fapJ8F1BIXAmRHo268iuzQsOBwifhdCD8fUpC6NVLfl2egNoJMg2aHq2BN8llIFJUkQ3Lqvow+frI+HQ6+rnr65fG3Tm9kylj7/rAa5KPK+RUCsHtx2R2i7TXkjwXeO5OT7LKUJnwwQcF3yDwgPo8VfiqrwZJsTC7t2y5+b45MZAO7W/ozkJvivlSR6J0nPJ+slfu1PwH4fE9coojvH1DGl69vTpVB4Ziu1zAp8E3zWqx7jH8S87d1aneqVY0y1bH4bdfSSu+jxFx+ORl5rV2RLXzhT1UImbJnG7y6jLerdsr9eEVgZmMAcaU4G0+MKTJPjCkyT4wpMk+MKTJPjCkyT4wpMk+MKTJPjCkyT4wpvMlwB46tbf3297DbKPjblJiy886f8BxGsuN7xAj/wAAAAASUVORK5CYII=;" vertex="1" parent="1">
          <mxGeometry x="320" y="961" width="190" height="208" as="geometry" />
        </mxCell>
        <mxCell id="Kt9OW5PYxR4Jgx1hHl5N-41" style="edgeStyle=orthogonalEdgeStyle;rounded=0;orthogonalLoop=1;jettySize=auto;html=1;strokeColor=default;align=center;verticalAlign=middle;fontFamily=Helvetica;fontSize=11;fontColor=default;labelBackgroundColor=default;endArrow=classic;endSize=12;" edge="1" parent="1" source="Kt9OW5PYxR4Jgx1hHl5N-19" target="Kt9OW5PYxR4Jgx1hHl5N-20">
          <mxGeometry relative="1" as="geometry" />
        </mxCell>
        <mxCell id="Kt9OW5PYxR4Jgx1hHl5N-19" value="" style="shape=image;verticalLabelPosition=bottom;labelBackgroundColor=default;verticalAlign=top;aspect=fixed;imageAspect=0;image=data:image/png,iVBORw0KGgoAAAANSUhEUgAAAL4AAADQCAYAAAC5itu3AAAU+0lEQVR4nO3dX2gbZ7rH8a9CLlzYggO9GEMKVXChDg3EhgMeQy+qOAtRyIHIOGCJLqTKLqTOLjR2U3al5MIZd7eNnQPduAsHu7kIUiDBMnSxCk2tXBQkwyl2oBAXEjwLCWigBRsasKGF91zY+uPEf2RHoxlpng8IpFjSPBP95tU774zmRdWNOTVyFEVvQuWdLqWqVlQ+l1Aj50Mq8LamAAWaans3qozUQ7XkdHnV8uuSepgeVwNnA0pvZX09/Uo/7sx6UuPl7cnK0qKavhxQGg0Y/CcJFaIQhBdv/rOTatHpGqsgnwxtuY6F9azl57oPN5sdxufz8cqBQ5y8msFyuh5bNOE/f4PJ+UWWflEopVBqhXzGIKiBebOfifurThf58vYfIDyUYGYhz8qvm62nQeJBDeup4Ua2eznjxdah0Vr8bRRaSe2TOadLsdXc9XYFqPCd2n2y7m7xO2PrLYNC5Qynq6k5zd/hdAk1sMrST3mgnY43tZotdX/NliR2zfwhA0DP236HK7HJM5Pc3VHif7fQh1L0H63dot3d4nvZswxjVzJw1CByvNnpaqrKut2Dz+fD9+ohQrdWiaQXyVzWaaphDdLiu5JJ8oMIo5aOMTWAXstE1Jh1f4LRpmYO+A3Cb9VuRaXFdx2T1PvHiNx6heidBLHOxku91je5tt/26wr5+QTBpVEibT1MPK5dDRJ8N3m2wMQfuui5qdH/1QzjvQ3aty/Y34R2NMzI0ACQJn53vmaLluC7xXKO4f8OcO7eYWLfpLlxqsFDX6bp1QMAWL/V7niFBN8FVn+c4Nx/dRF/cpLx+9MYDbYzuxPz0RwA2n7p43uG9fUFAm3nmH49xkxunGgNd/BqxyL1pwjDtzMsWMsU2/VnFvO3LxD5QwrQGTzRXruSanaobC82O3LbYEdxs0PbrF/Zzcg5XenLyKtE73brp6lwsrZnJEmLL2pAI3R9jskvB4ge1ynuvbTqhM6PMPnDAom+2u7T+JRSqqZLFMIFpMUXniTBF54kwRee9FLn6vh8vmrVIURNSYsvPEmCLzxJgi88SYK/C93d3U6XYDsvrCPYEHxV+I1sA966u7sdr0HW8eVutgVfiHogwReeJMEXniTBF54kwReeJMEXniTBF54kwReeJMEXniTBF54kwReeJMEXniTBF54kwReeJMEXniTBF54kwReeJMEXnuTq4BcnCdvjbXjW6TXYhWcm81MTxD/o4Zh+qGw9WjgcOMa5SxOkHy87XeUe5Rje02c4TM6mijYN/vy1jvUFdzBay9mmvWg5x2j4MC2vHqIjdI7hf6XIzJplT7BYuJ9h4to5Tr55gK6/JFl45li1DWOT4M+TSc4X74/8265tTgDwzCR7ewGrwqfn/hkh8EESc+enim28GPzZNCMPIPi/4xgaWF9Mk6nd1EQbFGfH28VtKRV1ptiX5id4foRE5iH5pZXSOv26Qn5hmpGyieCsWxGGp+q122OQrfjzjKHbVMVzwV8l89UNLIKE3o0SvNgO1gSZnEPJ363VHGNDE2v3tX7aW50tpzJN+D9MMPfTItNfDBB+tw2tuWw6oP1NaG8FGbiTZfJ8acr7ialMxd8S4kUbg7+aJXPTghMhAq3QfjxCOxbDX2eph+ibtwzi6/sk+qUowdecraciB0OMXA/TvmOtGqFw2bfZvQXydtbV4DYEf/W7NMMWhN47uTZdy9EAkaPAtTRZtyf/5zSjV9Jr97UBjD/WcCKxWtn/Sum+7sdbcyNWV1nwV8neGwVC9LxT+EptJxBuB0ZJ3XN3n3L+lsHY+nd/8JN+Ar9zth47LOdLu7TtehvemQm3+krBX86QugacjRA8WHrCWncHxqYyuDb6T5MYF9dHn44axGs8kVhN/JzGKO6/hIn3NeA3Wg0Vg798P8UYED0V2PgVWuju3EyT+bnW5VVilcwXA6TWH4UuRdEbaKrYVWuBzM1Bjh05uXZMRQtgTE0QOrjjS13qBqGWjQeqWo4c49iZC4zezmDWqnVVSimlltTk2Z3nWg0lN84qu9lzau7RuAoWln90RM3ZuKh//OMfNr57ST4Z2nQu2La+ETVj88S+9qxjVhkVzOULKLQ2Ff3yoVqxoQqlSplda/Gfpknc3HkjSd2adtmBk2XS1+Os7dJq9A9FadQOQODDUW5cidKl7fzcumYtMPH+YQJXc7aOJO4DMO8lSAH9Xy1tcSBhkfETwNcpMo9trGaXVmfHiP9rfY+2c5DoqcYd58j8T4RjbQfwH4kw9r1r97a20ETTqX5GktPMmUus/Ko2HKBbMueY/DxKoGyjzl3pZ3TWxugrtajGT6CgX00vbf0VsfhlUAEq+GVp6nUc7eqUTxOvqYFv7PpyLKlVV2eDX1fUkjmnJj8LKX/x/1lXRs6e9XVkHQuWssroLMvT+Wm1TST3pPjexT7yRzPb96sKzzs+rhaffxMHgr/yzYDSCss9UarJTo6GQim1lC5bZ5v2Z5xex5VMrLSOGCpb5fcv5HSfeT9JGhg43sW2gyGtAUIngHtjpBw/Y3OesSuj64fs2zGuRDwxpt18oh/j+PqDByOkv3e0HFs0tXfRU3z0kLxN52Xs9/9xBvXHSp7qJ5pWuOEUsOWpMQYL59r3DhLtbKDxy229wivF3RiLfH4ZGu34bVNTWQO8yupv9izG1T9E2VT5iWi0M/K3MI0+0OEpT03miw868Nt0vKLugl9+Ipp23iB61Nl6aurnLJm7hQft+F9vsNYeMO+nyBQenG+nzabl1Ffwn2UYK5yIRhDjYrDOv+gtUhcHmZitpCNrkrzYT+G7jqMRAnWx0ecYPTNK5unOQ5OrD0a58KfC56sR6w3Y9/lWYw+ZGo3qzF3Xi8vRdhqFskH1RzxKQ7La20HV//mkyi7k1VLZiq0sLaq51A0VfVfbcBS3/6tqD/Stqf46lo7a+k/0q5HkjHqYXyr77DYbrrVvpK74/lV5k1oE/0lChYrLCarxR/Ytait2Bn83N30oa9tGb2fwK761RtWkWeUy1hWWUSddnY0norUPxYnUxa+rdtKEXw/TVuneuRZgIPmQzGV9+6FnV9Hw91Y+2OzvHSGbGyf0hn0VAXXS1Sk/EY2QSjyxZzE7se/gzopaWphRic8HVPR4QOmt5a2frgJnB9SNZFbla9C3s20df1lUc6lxFTsfUoF328oOUmmq7d2Ain40rqYX7Om+lSv8v+63ebuqjtYo08oNRxDs0kTzWwHCbwUI/9npWmzyOz/tp6O0n3bH51gnXR0hqkuCLzxJgi88SYIvPEmCLzxJgi88SYIvPEmCLzxJgi88SYIvPEmCLzxJgi88SYIvPEmCLzxJgi88SYIvPMm3/quUvb3Y59vwuLu7m+7u7pcuSgi7fPvtt0CVgw/wEm/nep9++ikff/yx02XYqtHXsZBZ6eoIT5LgC0+S4AtPkuALT5LgC0+S4AtPkuALT5LgC0+S4AtPkuALT5Lgu45F8owPn690G57d+VVidyT4rmNikiBfmPk7ZxDXe0g+dbquxiLBdx2d2J2ymRw7AxikMCX4VSXBd7unJnOEbJv20qvqY2IIz7JIXoxAMk9Ygl9VEnzXskieaSFyJIvqkymsq026Oq5UFvrLutPFNCRp8V1nLfSTp/PS0tuo/lv8ZzmG9QYa836aYfIupMItG8byfVdzTldWXb8ts3A/yegHPRwLHKaluK4tHA6cI/nY3sXXeYtvkvwgRLzew17uYJhJFXa6Chsts3Db4MLFUTLWZn+3WLg/gfnzONg4l3EdB3+V3NUIkVub/u8JN3o2z2g4yOC/nf/M1rs6OYZ9Gw+TF24tR45x7mqSnPO1bmDejhK6kgM0NOkK1wGT5Afloddo6zNI5BZZ+mX9KLVSrPz0kOnPozTb3SSvzfecVcYms5RvuGlhNflk81misXtm8+es5Aylry9PH8qq6aHS8o2cfcu1b2Zz97BnHVfU3Cd6WZYCKvaN/bOYb6ZQw3M7twZZVdr6lFKs/DTH+HsaWEmMu/M2b4YV+E+S6Ok4OUB7L0Hiss4Bp2sS23ucIP63ws65jjE1jXG82dGSdhzVaXqtnegHFwCYf7Zqe0HbepZjuC9C0gI6DVJfhPE7W5HY0SqZL+Ok1x/p18eIdTY5WhFUOJy5+ssSANG322wtZntlIzhamMTtGPrvHCxHVGY1S/rvhX59lMH32h0tp2DHXYjlH1OMXBlFey9B7LRTX0/lIzg6xtQE4TccKkXszvcZRgv3z4cIvOZkMSXPtfhxup4b1TnQ1sPwcj+jl4KOdSvKR3DCyYQrvipFZcyF0oG3kN5G82/LLHw9weD7x+h6syxrb3Zx7P1BJr42Wa5BXZUduf1xjMiRA3T9JY1pc0HPW74XJxJOYgH6UIqJPunV1xPrSaZ4f/neMCfbDnA4eI7Rmxly5UdnH+fI3BzlXPAQbYE4mZ/trWvHUR2lVlhamMY4pZH750ku3Kxd9Fdnhwn+fnjDCI609fXEwvyx9Chza4J0BaciWPeHOXYkQvI/thVWSYvfRPNbQWLXDQJA+uscNTmWVTZsKSM4DUJrI/zROJPzGw9aqV9XWDKzjH8YKP3yzEoSuZS0LWuVn6TWehgd4DuTvE3FlFikrpSGLbP3ZASnEcTuPiTxWZTQUT/N5Z/n/iaa39CJXp8hmyz72eXdERIP7Kml8uA/yK6NxR5vo8WeWjZYLRwymI3T9ermp1MUbl1XSq+Ll52p6TtjX4shdu+VCk5D8PcZGCcKj+aZe2TPJ7hz8J8tY85OcOH8IPNo9PeWfR0JsYOmXe+U+el4p5SwzGN7+hfPbYNxunzxLZ+sD6UYOeXsoWZRTzT8bRqsf+8+fGJB587NZvPBLiAFgPWbPWcL7Nzit+oEzhokcnmyNRtV0QjfeX50aetbdqj0SiNX9rfyy3QIR/jf7ineT/7fQyqJsfUoVbwfarVnSGM9+DqxrYL1KMvMlzHCFWypQjyvWQ8QLTy4liS94/j8PNl/F+5rdPjtyV39//RQuNtrAULnC+GdoP9iEvO3rZ68Su5qP4OFkZyjgwQ77SlLgi9s1kzwokFw/ZF1K0LX7weZmDVZLvZ7Vln+T4axP51cPzUFQGPgs37sOqWtjn96KOpGa5QbyQxd66eeWPdHOaePcm7LF2gEr6cxjtu3RyktfgOxbveUHd9YO9XDLfx9CRa+iRHYqcuuBRhIZZn+sN3WgRQJfqOYHaYl3FE81yo7FKfLZQfwmo8bzJh5sskR+nsDtBU3Aj96bz8jySx5c4aR0/afnNIQXR39skJddroKJ1kkr8cJJfMUrrumn00Qen2SzNOwu6672aSh9w2g9w04Woa0+I3qoJ8Oubz4liT4DUEjcDpEairjqq6NmzVEV0eA1jdGYqqFFl+k7F9DJNzUzXERafEbxnOneTxJEOrtISDB35S0+A0px/DrETpySs5V2oK0+A2j/DKQI/ifKGI2He5vBNLiN4y1Ew1jTpdRJ6TFF54kwReeJMEXniTBF54kwReeJMEXniTBF54kwReeJMEXnuRbnxBrby/2+TY87u7upru7+6WLEsIu3377LVDl4AO8xNu53qeffsrHH3/sdBm2avR1LGRWujrCkyT4wpMk+MKTJPjCkyT4wpMk+MKTJPjCkyT4wpMk+MKTJPjCkyT4rmORPLNxOtPhWadrajwSfNcxMUmQL1wRLWcQ13tIysVfq0qC7zo6sfLZGjsDGHLV46qT4LvdU5M5QvjlGphVJVdSczWL5MUIJPPumtyhAUjwXcsieaaFyJEsqk8u/Vpt0tVxpbLQX9Z3frrYNWnxXWct9JOn89LS26h+W/zvh2nx+fD5Gmyo72mGybuQCrdsGMv3XXXT5J31r05b/GXSd2405nxPB8NMqrDTVTS8umrxV5eXMR+kGD3TwclrDRl7USN10eLnrvrouuJ0FaKR1FWLL0S1vBh8K0fy2gV69EPFHatD+jHOXZog/eOyAyUKUX1lwV9l/p89HGrpInJpjNSsWfyLOZth4to5TrYd4FBwgoUaF6lfLpvGUimUypPorXERoqEUg2/ejhL8SwoTnejnMywurRSDtrK0SDZpEGoF82sLafdFvVsL/tMkg+EkFjpGLsP4nwP4m5uKT2pq9qP3xZhcyDN9uZmmrd5NiDqxH2D+7ggpQL8+Rqxzm1jv1wgO9deoNCHssw9MFr6bBwJET7U7XY8QNbEPLMwpgACHW50uR4jakHF84UkSfOFJ+0DDfxogw8PHTpcjRG3sAz9t77QDGcam5p2uR4ia2AfQfqqfIDB/qZ/h2dWtn/2bRfrKGLJ5iHq31sdvjWB8ogM54vpheq6lWfi5tAGsLpvMT43S09bCyavLbLNpCFEX1k9LbqL9r2my9BD6W4bUpZOkLm3+An+vH/lBnKh3ZaM6zeh/nWHh0TTjH0UJdPqLf/F3huj/LMHMoyUW74Txb/JGQtSTF36I0twaJPpZkKgT1QhRI3Uxjp+7uvEiqj5fC5G7hb+miLz+/N+HkZ9mi+3URfBFZazbPXWz8W9szCqtNcdwWQPXc3vvv7uW4DeK2WFawh1k139DkR2K03Um6corUVi3e+j6oXRF6HxyroJaLZJnuphL5td+J/IkAeGWPV9CvS6C/+IvsHa6xfDW9ccsktfjhJLR4nrrZxOE7k6SceE1h8zHKThSGh3U/B1w18Tc7kWzE0TuGgwWLrJ1MMzgEMTv7e17rS6CL/bgoJ8Ol15eXD+bIHSlq3iRrNy9jRttpfytIfjB3NO3mgS/IWgETodITWVc2bV5wcEAPb0Q+mEEn89H15WylnwrnQEM4mSqNDuMBL9BaH1jJIisX1bRh8/XRdyl19XPXV27NujknclSH3/HHVydWM4grpd2blvCG7tMuyHBbxga4Ttl+zlPEoR6ewi4LvgW5g/Q4S/FVXunhxBzO3fLOmMb9uWyQ2Ac39venAS/IeUYfj1Cx8WwC08v0fAfgfj10iiO9d0kKTp29e1UGBmKdu6tCgl+wygf4x7B/0QR22Mo7KZfzm/olq0Nw+48Eld+nKLl8SDqzt437Lq4dqaohE5MKWJOl1GRtW7Zbq8JrfVNovqqU4G0+MKTJPjCkyT4wpMk+MKTJPjCkyT4wpMk+MKTJPjCkyT4wpvUSwA8devu7na8BlnH6tykxRee9P8IwhdpR6EEUAAAAABJRU5ErkJggg==;" vertex="1" parent="1">
          <mxGeometry x="600" y="961" width="190" height="208" as="geometry" />
        </mxCell>
        <mxCell id="Kt9OW5PYxR4Jgx1hHl5N-42" style="edgeStyle=orthogonalEdgeStyle;rounded=0;orthogonalLoop=1;jettySize=auto;html=1;strokeColor=default;align=center;verticalAlign=middle;fontFamily=Helvetica;fontSize=11;fontColor=default;labelBackgroundColor=default;endArrow=classic;endSize=12;" edge="1" parent="1" source="Kt9OW5PYxR4Jgx1hHl5N-20" target="Kt9OW5PYxR4Jgx1hHl5N-21">
          <mxGeometry relative="1" as="geometry" />
        </mxCell>
        <mxCell id="Kt9OW5PYxR4Jgx1hHl5N-20" value="" style="shape=image;verticalLabelPosition=bottom;labelBackgroundColor=default;verticalAlign=top;aspect=fixed;imageAspect=0;image=data:image/png,iVBORw0KGgoAAAANSUhEUgAAAL4AAADQCAYAAAC5itu3AAAVEElEQVR4nO3dX2gbZ7rH8a9CDjiwBQd6MYYUquBCHRqIDQc85vQisrMQhSxExgVLdCFVdiFRdqGxm7JrxxeO3N02Ug504y6cYzcXQTIkWIEuVqGplYuCZNhiB3qICwlWoQUJWpCgAQsSeM+F9c+J/8iOZ0bSPB8YkBJJ87zWT++8885Ig2oYiyp0DMVARGWsLmVPrapMKqJC5z3K9ZamAAWa6jjuV8HYQ5Wzury98jSnHsan1NBZl9LbKbbTqfQT1rQTk9e3K6u5FTV3xaU0mjD4P0aUh1IQXlycZ2fVitU17oFM1LNpG0vtNPN93Uc9W5jA4XBw4OBhTl1NkLW6HkO04Dx/g9mlFXK/KpRSKLVKJhHErUH6ZoDp+wWri3x5+w/iHY8wv5xh9elG7QwSeWBiPSZ+yHYuFXyxd2i2Hn8LpV5S+2jR6lIMtXi9UwHKe9u8d7a+e/zukWLPoFCpoNXVmE5zdlldggkK5H7OAJ10vaGZttb9pq1J7Fj6uwQA/W85La7EIE/SpO6EGf1bFn08RuCYeauu7x7fzp4kmBxLwLEgvhOtVlezp7Iz/TgcDhyvHMZzq4AvvkLiik6LiTVIj1+X0kQv+AhndYJ3h9DNTITJsvenCbe0ctAZxPumeQ2VHr/upIm914vv1gH8tyOMdDdf6rXB2bX9tqerZJYiuHNhfB39TD82rwYJfj15ssz073vov6kR+GKeqYEmHduX7G9BO+YlND4ExBm9s2TaqiX49SKfYuJ3Ls7dO8LIV3FunG7y0FdpeeUgANln5h2vkODXgcL305z7zx5GfzzF1P05gk22M7ud9KNFALT9Msa3jeyXF3F1nGPutRHmU1P4TdzBM0+W2B99TMwkWM7mKffrT7IszVzE9/sYoDN8stO8kkw7VLYbGx25bbKjuMnxLdpXtQRTVlf6MjIqMrBV+zTljZp7RpL0+MIEGp7ri8x+PoT/hE5576Vdx3M+xOx3y0QGzd2ncSillKlrFKIOSI8vbEmCL2xJgi9s6aXO1XE4HHtVhxCmkh5f2JIEX9iSBF/YkgR/B/r6+qwuwXB2aCMYEHxV+o5sEy59fX2W1yBtfLnFsOAL0Qgk+MKWJPjCliT4wpYk+MKWJPjCliT4wpYk+MKWJPjCliT4wpYk+MKWJPjCliT4wpYk+MKWJPjCliT4wpYk+MKWJPjCluo6+OWLhO1ymViwugU78CTN0t1pRi/006sfrmpHG0dcvZy7PE38cd7qKncpxcSu3sMJUgZVtGHwl651FVfcRdjMq03bUT5F2HuEtlcO0+U5x8Q/YyQW0lUPyLJ8P8H0tXOceuMgPX+OsvzEsmqbxgbBXyIRXSrfDv3LqM+cAOBJmuTMMtkaH576hw/XhSjp7R8qtvBi8BfihB6A+3+mCGqQ/WyOhHmXJlqnfHW8HSy5mN+aYl+aE/f5EJHEQzK51Uqbnq6SWZ4jVHUhuOwtHxN3G3XYEyRZ8/s5gm5QFc8Fv0DiixtkceM57sd9qROy0yRSFiV/pwopJsen125rATrbrS2nNi0434+w+PMKc58N4T3egdZadTmg/S1ob7oZup1k9nzlkvfTdxM1byXEi9YHv5AkcTMLJz242qHzhI9Oskx8maQRop++FWS0uE+iX/bjftXaempyyEPoupfObWvV8Hirtmb3lskYWVeTWxf8wjdxJrLgeffU2uVajrnwHQOuxUnWe/J/iRMei6/d1oYI/sHEC4mZZf+Bym3dib2ujbi3qoJfIHkvDHjof7u0Se3E5e0EwsTu1feYculWkMnitt/9UQDXb6ytxwj5TGWXtlPvwD5Xwt17leDnE8SuAWd9uA9VHrA23IHJuwnqNvo/RQleKs4+HQsyavKFxEzxS5xgef/Fy+hgE27RTFQOfv5+jEnAf9q1fhNaGu7cjJP4xezyalEg8dkQseI9z2U/ehNdKraQXSZxc5jeo6fWjqloLoJ3p/Ec2vapdeoGnrb1B6rajvbS+85FwjMJ0mb1rkoppVROzZ7d/lqrnuj6q8pu9BjTPZpS7tL6j4XUooGr+vvf/27gq1dkop4NrwXbMRhS8wZf2NeYNiZVsIZr+QIKrUP5P3+oVg2oQqlKZtd6/J/iRG5u/yGJ3ZqrswMneeLXR1nbpdUIjPtp1gGA6/0wN8b89GjbP7ahZZeZfu8IrqspQ2cS9wGk70WIAYEvcpscSFhh6iTwZYzEYwOr2aHCwiSj/yzu0XYP4z/dvPMcif/20dtxEOdRH5Pf1u3e1iZaaDkdIBSdYzGdY/WpWneALpdeZPZTP66qD3VqLEB4wcDoK7Wipk6iIKDmcptvIlY+dytAuT+vXHodS4c61ZeJ19TQV0ZtHCvMGuqs83RV5dKLavYTj3KW/866CqaMaa8lbSzJJVWwuypP5+fUFpHclfJrl8fIH8xvPa4qPe7ElFp5/kUsCP7qV0NKK633ZKUmI1kaCqVULl7VZoP2Z6xu42pipNJGgiq5x69fyum+9P0ocWDoRA9bToa0u/CcBO5NErP8jM0lJsfCxUP2nQTHfLaY0249GSB4onjnQYj4t5aWY4iWzh76y/cekjHovIz9zj/Mo/5Qy0Od+OOKejgFLH93kuHSufYDw/i7m2j+cksHOFDejcmSyeSh2Y7ftrRUdcAFCs+MWU1dfxFlQ9UnotFJ6K9emn2iw1Z+SrNUvtOF06DjFQ0X/OoT0bTzQfzHrK3HVL8kSdwp3enE+VqT9fZA+n6MROnO+U46DFpPYwX/SYLJ0olouAlecjf4hj5L7NIw0wu1DGTTRC8FKG3rOObD1RAf+hThd8Ikftp+arLwIMzFP5beX42RAZdx7+9e7CFj0qzO4nW9vB5tu1koA+z9jEdlSlZ7y60Cn86q5HJG5aoatppbUYuxG8p/XFt3FDfwxV5P9K3Z+zZWjto6TwZUKDqvHmZyVe/dRtO1xs3UlV9/T17EjOD/GFGe8nrcauqRcavajJHB38mijycN+9AbGfyal3a/mk3vcRlFpXU0yFBn/YloneOj+Bri21XbacGpe+mode9cczEUfUjiir711HNd0XAO1D7Z7BwIkUxN4XnduIqABhnqVJ+IhkdFfjRmNdsx7uDOqsotz6vIp0PKf8Kl9Pbq3k9XrrND6kY0qTImjO0Ma+OvK2oxNqVGznuU63hH1UEqTXUcdyn/B1NqbtmY4Vu10t91v8Gfq73R7mdO1cMRBKO00PqmC++bLrx/sroWg/zGSecZP51n6uN9bJChjhB7S4IvbEmCL2xJgi9sSYIvbEmCL2xJgi9sSYIvbEmCL2xJgi9sSYIvbEmCL2xJgi9sSYIvbEmCL2xJgi9syVH8VsrunuxwrLvf19dHX1/fSxclhFG+/vprYI+DD/ASL1f3Pv74Yz788EOryzBUs7exlFkZ6ghbkuALW5LgC1uS4AtbkuALW5LgC1uS4AtbkuALW5LgC1uS4AtbkuALW5LgC1uS4AtbkuALW5LgC1uS4AtbkuALW5LgC1tq/OA/STGhO3A41paJBasL2p3CD0vEZyYZfq+X3qNt5fY43uih952LhGdSZLe/OHjjeJZn+X6U8IV+el1HaCu119HGEdc5oo8NXv9eXDoRoy/3uakVFXlXW7f+YMq4tRlxKczVpRvK+5a2+cWOqxfNpYZiRlzvu8K4S5qW5NTD6JByaVu31aj3sfT6DdzjF0hd9eG7lbW6kJeSX04Q/b8a25BNEPb04JtJG1uUUZ4sEf5dB0e8YRIWv23F4KeYcFSGC9VL29Fezl2NkqqzfKVn/HjGUoCGVuuVweuZ1oH3gylml1bI/apQqrj8muFhPIi73MYs0Uth4r9YWexupIlecDP8r1KQNDoGg0RS69u7+vND5j7102r0FZjXNgBJFdx2M+tVsz9uvNmoXsywmgoqvbg+fTyp5sYbd6iTuT2khj5PqszTbR6Yjihv1fDAE83seS1KGTXUWVWLH+nrhmwjXxl/FfONsPFQJ0hSVfU2SrH68yJT72qQjRK8s2Twx7AGP0TxnxklBWjvRohc0TlodU0vQRsIETqro23Xw73uZfhSZ/lu7HEDDXceRxj9a6p4Ryd4d47giVZLS9p2jN/yaif+CxcBWHpi8bTCkxQTgz6iWaA7SOwzL05rKzJV26FGbG2BxOejxIv39OuTjHS3WFoR1DidWfg1B4D/rQ5Di9lamugFD6MLgOYlMjOC/hsLyxG1KSSJ/600rvcz/G7nlg83y7a7EPnvY4TGwmjvRhg5Y9XmqXoGRyd4dxrv6xaVYqH042T5tqe9QXr/bxOES7fPe3C9amUxFc/1+KP0PDerc7Cjn4l8gPBlt2XDiuoZHG80UhebStMVEsx9Vuo53bj/szGmstLLqfJtj95B67M8y19OM/xeLz1vONYfqHtvmOkv0+TNKGxtX7eGWR1Q+p/m1MoGe8gYOKuT+2pk3QzO6gaPSTbwrE5t1s+KaB/Mb/h32At73cbklcp743rXr9zt2+dMOz6i5n/e0zLKSuvYdlZHqVVyy3MET2uk/nGKizfNm00oLEzg/u3EuhkcG/b1FBbCBEqzIlqA6cuuBvk7ZEl/X7mXuDVNvIZTEbL3J+g96iP6g2GF1bJz20Lrm25GrgdxAfEvU5hyLKtq2tKOMzglhQdh+kt/B3SCd0O462ScvGObHaR7ukounWTqfReV43RRfJejhmWt9lMW2o+gA3yTJmNQMRVZYmOVacvkPZvO4PwQxX9ymHgWmmH/ZuTOQyKf+PEcc9Ja/X7ub6H1dR3/9XmSUW8l/HdCRB4YU0vtwX+QXJuLPdFBmzG1rFMoHTJYGKXnlY1PpygtPWOV541WnanpeMe4HsNohe+n8enFDz8a3miSyGBjb/MO1HAagnMwSPBk6d4Si4+MeQe3D/6TPOmFaS6eH2YJjcBA1eZIGKLwIEz/8XPF0Dvx327c0LfseAPlpOvtSsISj40ZXzz3GRylxzG66YP18Rih09Yeam52+Xuj5R160Al8EeHG6cYMPWg4OzQobncf/piF7u27zdZDPUAMgOwzY84W2L7Hb9dxnQ0SSWVImjarouG9/fzs0uZLcrzyzGCq6v9uexto61Rg+eY5ukqh11wEv4k3cOjXON/qL9+O/vshtcQ4+yhWvm3Ugbpi8HVGNgvWoyTzn4/greGTKnYrT2LsFK73pkkDtPuJpOYZ+a/G37q26i78pTvXojWcTr1E8l+l2xpdTmNy18BfRGkSxS9n9F5NkAW040GS/55qnlMyXnXhOV8K7zSBS1HSzzZ7cIHU1QDDpZmcY8O4u40pS4JvqWUmT3SVv5zhPBsh+dUIeuN39FVacV8K4i7ey97y0fPbYaYX0uTL454C+R8STP7xVPHUFACNoU8CGHVKmwTfUnnyVV+OT9/0cfg/tp66Xbc0ynRtu58bVfPz2fthzumHOXig1JYDHHT2cvF/E8X2aLivxwmeMG6PUoIvTOEcjLD81Qiu7YbsmouhWJK59zsNnUiR4AvTtJ4IMp/OkIyGCAy46Ch/CJzoAwFC0SSZ9DyhM8bPZBn9lV5T6FcU6orVVezG2mzaiNVlmKlFQx8cQh8csrQM6fGFLUnwhS1J8IUtSfCFLUnwhS1J8IUtSfCFLUnwhS1J8IUtSfCFLUnwhS1J8IUtSfCFLUnwhS1J8IUtSfCFLTmKP528uyc7HOvu9/X10dfX99JFCWGUr7/+Gtjj4AO8xMvVvY8//pgPP/zQ6jIM1extLGVWhjrCliT4wpYk+MKWJPjCliT4wpYk+MKWJPjCliT4wpYk+MKWJPjCliT4wpYk+MKWJPjCliT4wpYk+MKWJPjCliT4wpYk+MKWGjf4307Q5nDgcPQT/cnqYkSjadDg54nfvtEYFzcWdamhgl/I50k/iBF+p4tT1yT2Yvca4jq3qasOesasrkI0k4bq8YXYKy8GP5sieu0i/fphHA4HDoeDw3ov5y5PE/8+b0GJQuy9quAXWPpHP4fbevBdniS2kC7/T3ohwfS1c5zqOMhh9zTLJhepX1EoVb1kiAyYXIRoKuXgp2f8uP8cI42O/9N5VnKr5aCt5lZIRoN42iH9ZRbp90WjWwv+T1GGvVGy6ARTCab+5MLZ2lJ+UEurE31whNnlDHNXWmnZ7NWEaBD7AZbuhIgB+vVJRrq3iPV+Dfd4wKTShDDOPkiz/M0S4MJ/utPqeoQwxT7Ikr4L4OJIu9XlCGEOmccXtiTBF7a0DzScZwASPHxsdTlCmGMfOOl4uxNIMHl3yep6hDDFPoDO0wHcwNLlABMLhc0f/SxLfGwS+XiIRrc2xm/3EfxIB1KM6kfovxZn+ZfKB6CQT7N0N0x/RxunrubZ4qMhREMonpbcQudf4iTpx/PXBLHLp4hd3vgJzgEnmnn1CWGIqlmdVvS/zLP8aI6pD/y4up3l/3F2ewh8EmH+UY6V216cG7yQEI3khS+itLa78X/ixm9FNUKYpCHm8VNXHeXvBqwtbfjulP43hu+15/9/gpSVBYu61xDBF9v4KUp/1Qd/YsHqgra3vjOrtaNKMVHVzv6Z3X/vWoLf8FJMvOajK1X8kk4qyKhe3z+5kp3pp+e7CJni9z0y0UV63olu86sZWaLv9LAYzay188cIeNt2/SFviOC/+A2s7ZYRdKuLNkl2JsToQAR/d/Efuv1EBmLMflO/v0KRfhyDo5XZQc3ZBXfSpLd60sI0vjtBhgeLzzrkZXgcRu/tblDbEMEXO6HhPAqxx1vGyFL62QiesR4cV9dCm7o3iifq33Fn5Wz3wHfpXf2+kgS/wWlv9+O5M0uijoc2Lzjkon8APN+FcDgc9IxV9eSb6XYRZJTEHu2/SPAb3SEvk1HWzWz1jIGnvX6PtqSutjF7JsPs7dnKGH/bHVydkVSQUb3Szjbv+iHTTkjwm4A2OPvcL1B46H+7Xo+vZ0l/B13OSn3a2/14WCS93Vare2TdvlxyHIIndrc3J8FvMqmrbfiODuM9ZHUlm1nbBxm9XpnFyX4zS4wunDuouTQzVN6p3yEJfhOonhMPtWdQV+p7Tku/kiGCr/hr1w7avF0ka5iJy870V4Y5j4dRt727Pm+sIX47U2xNv6JQV6yuYic0vLcV3p0+a3AWNbg3FUiPL2xJgi9sSYIvbEmCL2xJgi9sSYIvbEmCL2xJgi9sSYIv7Em9BMBWS19fn+U1SBv3ZpEeX9jS/wM6n+McXUyPygAAAABJRU5ErkJggg==;" vertex="1" parent="1">
          <mxGeometry x="880" y="961" width="190" height="208" as="geometry" />
        </mxCell>
        <mxCell id="Kt9OW5PYxR4Jgx1hHl5N-65" style="edgeStyle=orthogonalEdgeStyle;rounded=0;orthogonalLoop=1;jettySize=auto;html=1;strokeColor=default;align=center;verticalAlign=middle;fontFamily=Helvetica;fontSize=11;fontColor=default;labelBackgroundColor=default;endArrow=classic;endSize=12;" edge="1" parent="1" source="Kt9OW5PYxR4Jgx1hHl5N-21" target="Kt9OW5PYxR4Jgx1hHl5N-22">
          <mxGeometry relative="1" as="geometry" />
        </mxCell>
        <mxCell id="Kt9OW5PYxR4Jgx1hHl5N-21" value="" style="shape=image;verticalLabelPosition=bottom;labelBackgroundColor=default;verticalAlign=top;aspect=fixed;imageAspect=0;image=data:image/png,iVBORw0KGgoAAAANSUhEUgAAAL4AAADQCAYAAAC5itu3AAAWV0lEQVR4nO3db2gbV7rH8a9CLjjQggN9MYYUquBCFRKIzF3ImNsXkZ2FyGQhMilEIhcSZRcSpQuN3ZRdO36RyN1tI+VCG3fhXruBG6RAghXoYhWaWnlRkAxb7EAvViHBKqQgQQsSNGBBAue+sP65jf8k0cxYmucDA5pY1jzH+unMmTOjDKplzKvIfhTHYipvdSlNtazymZiKnPEpz15NAQo05ToYVOHEoipaXV6zPCmqxeSkGjrpUXo3lXY6lX7ImnZi8vZeyHJxSc1c9CiNNgz+o5jyUQ3CbxfnyWm1ZHWNTZCP+9ZsY7WdZr6v29jK5sZxOBzs2LmbgcspClbXY4gOnGeuMb2wRPEXhVIKpZbJp8J4NchdDzF1r2x1kS9v+078l2LMZvMsP3lWO8PE7ptYj4kfsueXCf+2d2i3Hn8d1V5S+3De6lIMNX/VrQDlv2XeO7u1e/wDI5WeQaEyYaurMZ3m7LG6BBOUKf6UB9z0vKmZttXtpm1JPLfcdykABvc6La7EII9zZG5HGf1bAf1SgtB+8za9tXt8O3ucYmIsBfvDBA51Wl1NUxVuDuJwOHC8uhvfjTKB5BKpizodJtYgPf6WlCN+NkC0oBO+M4RuZiJMVrg3RbSjk53OMP63zGuo9PhbTo7EqT4CN3YQvBVj5ED7pV47Pr1y3PZkmfxCDG8xSsA1yNRD82qQ4G8lj7NM/Wcvg9c1Ql/MMnmsTcf2Vds70Pb7iVwaApKM3l4wbdMS/K2ilGH8Dx5O393DyFdJrh1p89A36Hh1JwCFp+adr5DgbwHl76c4/bteRh8NMHlvhnCbHcxuJPdgHgBtu4zxbaPw5Tk8rtPMvD7CbGaSoIkHeOYpkPhTgPGbKbKFErV+/XGBhZvnCPxnAtAZPuw2ryTTTpW9iGeduW2zs7jpS+u0r2EJZ6yu9GXkVezYeu3TlD9u7hVJ0uMLE2j4rs4z/fkQwUM6taOXbh3fmQjT32WJHTf3mMahlFKmblGILUB6fGFLEnxhSxJ8YUsvda2Ow+FoVh1CmEp6fGFLEnxhSxJ8YUsS/OfQ399vdQmGs0MbwYDgq+p3ZNtw6e/vt7wGaePLLYYFX4hWIMEXtiTBF7YkwRe2JMEXtiTBF7YkwRe2JMEXtiTBF7YkwRe2JMEXtiTBF7YkwRe2JMEXtiTBF7YkwRe2JMEXtiTBF7a0pYNfu0nYCy7jc1a34Dk8zrFwZ4rRs4P06bsb2tHFHk8fpy9MkXxYsrrKF5Rh/IXew3EyBlX0zOAvXOmpbLiHqJl3m7ajUoaofw9dr+6mx3ea8X8kSM3lGp5QIHsvxdSV0wy8uZPeP8fJPras2rbxjOAvkIov1B5H/mnUZ04A8DhH+maWwiafnvk0gOdsnNzGTxXr+G3w55JE7oP3vycJa1D4bIaUebcmWqV2d7znWIqJoDXFvjQn3jMRYqlF8sXlepueLJPPzhBpuBFc4UaA8TutOuwJk970+zmCblAVvwp+mdQX1yjgxXcwiPe8GwpTpDIWJf95lTNMXJpaeayFcHdbW87mdOB8L8b8T0vMfDaE/6ALrbPhdkDbO9De8jJ0K830mfot76fupDa9lxC/tTr45TSp6wU47MPTDe5DAdwUGP8yTStEP3cjzGjlmES/EMT7mrX1bMouH5Grftwb1qrh8zfsze5myRtZV5tbFfzyN0nGC+A7MbByu5b9HgL7gStJ0ls9+T8niY4lVx5rQ4T/aOKNxMyyfUf9se7EXvdGbK6G4JdJ340CPgbfru5S3Xj8biBK4u7WHlMu3AgzUdn3ez8M4XnF2nqMUMrXD2ndugv73Am3+erBL6VIXAFOBvDuqj9hZbgDE3dSbNno/xgnfL4y+7Q/zKjJNxIzxc9JwrXjFz+jx9twj2aiWvBL9xJMAMEjntW70Opw53qS1M9ml7cZZVKfDZGorPkuBNHb6Fax5UKW1PVh+vYNrJxT0TyE70zh27Xhr25R1/B1rT5R1bWvj753zhG9mSJnVu+qlFJKFdX0yY3vteqLr76r7LOeY7oHk8pb3f7+iJo3cFN///vfDXz1unzc98x7wbqOR9SswTf2NaaNaRXexL18AYXmUsHPF9WyAVUoVc/sSo//Y5LY9Y0/JIkbM1vsxEmJ5NVRVg5pNUKXgrTrAMDzXpRrY0F6tY2f29IKWaZO7cFzOWPoTOI2gNzdGAkg9EVxjRMJS0weBr5MkHpoYDXPqTw3weg/Kke0B4YJHmnfeY7UfwXoc+3EuS/AxLdb9mhrDR10HAkRic8wnyuy/EStOkFXzM0z/UkQT8OHOjMWIjpnYPSVWlKTh1EQUjPFtXcRS597FaC8n9dvvY6lQ53G28Rraugro3aOdWYNdVZ5sqyKuXk1/bFPOWt/Z12FM8a015I2VhXTKnygIU9nZtQ6kXwhtdeujZHfn11/XFV93qFJtfTrF7Eg+MtfDSmtut3D9ZqMZGkolFLFZEObDTqesbqNy6mRehsJq3STX7+a0225e3GSwNChXtadDOn24DsM3J0gYfkVmwtMjEUrp+zdhMcCtpjT7jwcInyosnI/QvJbS8sxRIe7l8Ha2iJ5g67L2O784yzqj5t5qpNgUrEVLgEr3ZlguHqt/bFhggfaaP5yXTvYUTuMKZDPl6Ddzt92dDR0wGXKT43ZzJb+IsozNV6IhpvIX/20+0SHrfyYY6G20oPToPMVLRf8xgvRtDNhgvutrcdUP6dJ3a6uuHG+3ma9PZC7lyBVXTnjxmXQdlor+I9TTFQvRMNL+Ly3xXf0BRLnh5ma28xANkf8fIjqvo79ATwt8aHPEH0nSurHjacmy/ejnPtT9f3VGDnmMe79bcYRMibN6sxf1Wvb0TaahTJA82c86lOy2l6vCn0yrdLZvCo2NGy5uKTmE9dU8KC26ixu6ItmT/StaH4b62dtnYdDKhKfVYv5YsN796zpWuNm6mqv35QXMSP4j2LKV9uOV00+MG5TazEy+M+z6JfShn3ojQz+ppfuoJrONbmMiuo2WmSos/pCNPelUQIt8e2qjXTg1P24Nnt0rnkYii+SuqivP/W8pWg4j21+stl5LEI6M4nvDeMqAlpkqNN4IRo+FXtkzGY2YtzJnWVVzM6q2CdDKnjIo/Tuxt5PV56TQ+paPK3yJoztDGvjL0tqPjGpRs74lOegq+EklaZcBz0q+P6kmskaM3xrVP27bjf4c9Uc3UFm1FY4g2CUDjrf8uB/y4P/XatrMcgrTtxHg7iPbo33sUWGOkI0lwRf2JIEX9iSBF/YkgRf2JIEX9iSBF/YkgRf2JIEX9iSBF/YkgRf2JIEX9iSBF/YkgRf2JIEX9iSBF/YkqPyrZQX+2WHY9V6f38//f39L12UEEb5+uuvgSYHH+AlXm7L++ijj/jggw+sLsNQ7d7GamZlqCNsSYIvbEmCL2xJgi9sSYIvbEmCL2xJgi9sSYIvbEmCL2xJgi9sSYIvbEmCL2xJgi9sSYIvbEmCL2xJgi9sSYIvbEmCL2yp9YP/OMO47sDhWFnG56wu6MWUf1ggeXOC4VN99O3rqrXH8WYvfe+cI3ozQ2Hjm4O3jqclsvfiRM8O0ufZQ1e1vY4u9nhOE39o8PabcetEjL7d55qWVOyEtmr74YxxWzPiVpjLC9eUf6+29s2OGxfNo4YSRtzvu864W5pWFdVifEh5tPXbatT7WH39Fu7xy2QuBwjcKFhdyEspZVPE/2+TbSikiPp6CdzMGVuUUR4vEP2Diz3+KCmL37ZK8DOMO+rDhcala18fpy/HyWyxfOVuBvGNZQANbbN3Bt/KNBf+9yeZXlii+ItCqcryS57FZBhvrY0F4uejJH+2stgXkSN+1svwP6tB0nAdDxPLrG7v8k+LzHwSpNPoOzCv7ADSKrzhbtavph89e7fRuJhhORNWemV7+qW0mrnUukOd/K0hNfR5WuWfbPDEXEz5G4YHvni+6bUoZdRQZ1nNf6ivGrKNfGX8XcyfhWcPdcKkVUNvoxTLP80zeUKDQpzw7QWDP4ab8EOc4NFRMoB2Ikbsos5Oq2t6CdqxCJGTOtpGPdwbfobPu2uriYctNNx5GGP0r5nKik74zgzhQ52WlrThGL/jNTfBs+cAWHhs8bTC4wzjxwPEC8CBMInP/DitrchUXbtasbVlUp+Pkqys6VcnGDnQYWlFsMnpzPIvRQCCe12GFrO+HPGzPkbnAM1P7OYI+isWliM2p5wm+bfquD7I8An3uk83y4aHEKXvE0TGomgnYowctWr31DiDoxO+M4X/DYtKsVDuYbr22NfdIr3/tymi1cdnfHhes7KYul/1+KP0/mpWZ6drkPFSiOgFr2XDisYZHH88tiV2laYrp5j5rNpzevH+rjWmsnLZTO2xT3fR+bRE9ssphk/10fumY/WJulPDTH2Zo2RGYSvHupuY1QGlvzujlp5xhIyBszrFr0ZWzeAsP+M56Rae1dmc1bMi2vuzz/w7NEOz25i+WH9vPCeCytu9cc60gyNq9qemllFT3caGszpKLVPMzhA+opH5dIBz182bTSjPjeP9/fiqGRwb9vWU56KEqrMiWoipC54W+TsUyH1fX0vdmCK5iUsRCvfG6dsXIP6DYYVt5uC2g863vIxcDeMBkl9mMOVcVsO0pR1ncKrK96MMVv8O6ITvRPBukXHyc1vrJN2TZYq5NJPveaifp4sTuBA3LGubv2Shew86wDc58gYVU1cgMVaftkzftekMzg9xgoeHSRagHY5vRm4vEvs4iG+/k87G93N7B51v6ASvzpKO++vhvx0hdt+YWjYf/PvplbnYQy66jKlllXL1lMHcKL2vPvtyiurSO1b/vdGGKzUd7xjXYxit/P0UAb3y4UfDH08TO97a+7wdm7gMwXk8TPhwdW2B+QfGvIMbB/9xidzcFOfODLOARuhYw+5IGKJ8P8rgwdOV0DsJ3mrd0Hc89w7KSc/b9YSlHhozvvjVZ3CUXsfomk/WLyWIHLH2VHO7K90drR3Qg07oixjXjrRm6EHD6dKgst9dfFSAAxt3m527eoEEAIWnxlwtsHGP363jORkmlsmTNm1WRcN/69ezS2sv6Uv13wxnGn52y99Ce6cy2eun6amGXvMQ/ibZwqFf4dw7WHsc/9cim4lx4UGi9tioE3WV4OuMrBWsB2lmPx/Bv4lPqnhRJVJjA3hOTZED6A4Sy8wy8h+tv3ft1D0EqytX4pu4nHqB9D+rjzV6nMbkroW/iNImKl/O6LucogBoB8Ok/zXZPpdkvObBd6Ya3ilC5+Pknq715DKZyyGGqzM5+4fxHjCmLAm+pbJMHOqpfTnDeTJG+qsR9Nbv6Bt04j0fxltZK9wI0Pv7YabmcpRq454ypR9STPxpoHJpCoDG0MchjLqkTYJvqRKlhi/H564H2P1v60/drlpaZbq2O8i1hvn5wr0op/Xd7NxRbcsOdjr7OPc/qUp7NLxXk4QPGXdEKcEXpnAej5H9agTPRkN2zcNQIs3Me25DJ1Ik+MI0nYfCzObypOMRQsc8uGofAif6sRCReJp8bpbIUeNnsoz+Sq8p9IsKddHqKl7EymzaiNVlmKlDQz8+hH58yNIypMcXtiTBF7YkwRe2JMEXtiTBF7YkwRe2JMEXtiTBF7YkwRe2JMEXtiTBF7YkwRe2JMEXtiTBF7YkwRe2JMEXtuSo/NfJL/bLDseq9f7+fvr7+1+6KCGM8vXXXwNNDj7AS7zclvfRRx/xwQcfWF2Godq9jdXMylBH2JIEX9iSBF/YkgRf2JIEX9iSBF/YkgRf2JIEX9iSBF/YkgRf2JIEX9iSBF/YkgRf2JIEX9iSBF/YkgRf2JIEX9iSBF/YUusG/9txuhwOHI5B4j9aXUyTlHIkrw9z+ve97K7ey7ZrD33vnCN6M0NhzTuCi+fVosEvkbx1rTVubrwpZbLXT7N7524GTkWZupshV/1RIUvq9gTD/l66XINMfFuystC20VLBL5dK5O4niL7Tw8CVdol9mcxlD3tOTdXDvpaHCc79zsv4XNmMwtpaSwQ/c3llt79j5052uwcZvr1hRFpG7mYQ31imsqbheW+SdK7IslIopVDLRRaTEXzd1d/IMHo0SKJdhncWaYngt61yiqnz8cqQTcMfTzN7NYj+Rmf9dvYdnbgODzG9kCZ8oPJvhTjh6xmk339xvw1+IUP8yjkG9d0rB1cOB7v1Pk5fmCL5vYwvm6l0N8F4dcR2OEz4+Dq3sn9FZ+TGJN7K6sLYNGlJ/gtrCH6ZhU8H2d3VS+DCBIm5+nAiN5di6sppBlw72e2dImtykfrFym6/tuSJHTO5CANk70/UHnuOelgn9iu6BwjU2h0l9a1BhdlALfi5m0G8f06QQyf4ySxLxeVa0JaLS6TjYXzdkPuygPT7zdf5yo5NPEvDpbtra9lc+xzrmG0l+D/GGfbHKaATzqSYfNeDs7M2yqSj04l+fITpbJ6Ziw3jT2G6Lq2+X0j80C4zW+bbBrBwO0IC0K9OMHJgnVhv1/BeCuFe+xniOXS8Uv9LJhYW5WDVRNsgR/abBcBD8IhE2kyu/V606sqVUaIyP2+abVAgdwfAw57ujZ4umqnj4CDD1SlKMozqexi8kiRbKK3q/culAtm5BBNnB+j1JyyotP1st7oAe3MT+jRC8sgwqQJAjsSFARIXrK6r/ckJLIt1/PsQM/cmCW5ib6vt9TN0xlNb92jaOs8W69kGGs6jACkWH1pdjj11vBVkMltkMXmN0DEPesOHQNvrwXcmQiyTJ/ddjMGuVO1nLm2nBdW2h+3gxPW2G+6kmLizQPB9OcC1xPZOXIdDXDscWudJORa/qT724HZ1mlBYe9oG4D4SwgssXAitf+Xf0wLJsQkWTCpO/MrDFIm7lcf7vfTIZMQLWxnjdwcIf6izambh5/oHoFzKsXAnyqCri4HLJZlvtkSZzP9OkKysef/sk/MpL6Eyq9OB+y9J0gzi+2tq3ZkF5zEnckhlvvJclKHLlX2tFiJ0ZMMre8Q6GmZ1OtH/Mkv2wQyT7wfxHKj/YZ0HfIQ+jjH7oMjSLf/GF1OJpip8OcrA0VGqV+37Ph7C+5qlJbW838zjd3Z7CX7sJWhFNTZVuD1M5PEgoWM6zldW/q1cKpBbSJH4xyijDV+80U7EiJyQrudltcQJrMxlB71ja/00QeB1B4FV/xYmrUbQDa+sSZ7miJ7qJXpq/afp784Q+8Qre9wmkBNYraDbRySVJ912oc8wXv3fJBwOHJczG/9Kk0jwt4AOrQffQVfDpIGG66CH4PvXiGXyLD+YZuhgu00pFIi/08t8PF//ctF3vQzeNOdS65YY6ugXFeqi1VUYp/PgCNMHR6wuw2Q5creh53z1A63h3AeJhzkwYd6wJYIv2pFOMO6jS3dARjFyIENqzEfskTlHZhJ8YRnt7UF8wPxVB47bwKU0apc525YxvrBIhvHXpxl8NM30rfoY36wDXAm+sMaPOebpwVnr4TU8R33wXc6U/xpSgi+ssctJD6NEarM4BVJ3ErDPnEtiJPjCIjojj2Lg76rM43cR2JdGXZSDW9HudvmZVn5LNi09vrAlCb6wJQm+sCUJvrAlCb6wJQm+sCUJvrAlCb6wJQm+sCf1EgBbLf39/ZbXIG1sziI9vrCl/we/byzAtyBsEAAAAABJRU5ErkJggg==;" vertex="1" parent="1">
          <mxGeometry x="1160" y="961" width="190" height="208" as="geometry" />
        </mxCell>
        <mxCell id="Kt9OW5PYxR4Jgx1hHl5N-22" value="" style="shape=image;verticalLabelPosition=bottom;labelBackgroundColor=default;verticalAlign=top;aspect=fixed;imageAspect=0;image=data:image/png,iVBORw0KGgoAAAANSUhEUgAAAL4AAADQCAYAAAC5itu3AAAYdElEQVR4nO2df2gbV7bHvwp+oEAKMuTBGFqojAuVScEyLXjM2z88dhYik4XIuBCJLCTyFhy5C43clF0p/sMZZ9tGykJrp7BrJfCCFEiwAi1WIKnlP/qQDC1WoItVSPAEUpCgBQlqkCCB+/6wfjm1LcXWzEi+5wMDc9Px3HM037n33HPv9IK1DKvM3wOG0RBL621KQ8mzdCLE/ON2Jh0TGAAGCMwy4GJyZI1l9TavUTzPsrXoPPOclZjYhaKfZiYe18dPaFzfnshn19niJYkJOIDCfxZidpSE8PvDfHaBrettYwNIh+07+ljyU8vnegjNzMoMDAYDDrd3YvhyDBm97VEFI8zjs1hIriP7GwNjDIzlkY7JsAmActON4HJBbyP3T1s7HNMhLKXSyD/fzk8ZoUca2qPhS/bqJOTftw4HrcXfhVIrKVxZ1dsUVVm9ZmUAmOOOdk+2uVv8Pm+xZWBgCVlvazRHMPfqbYIGFJD9JQ3Ait63BM1qbdOsJuKVUX6MAQBGjpl1tkQlNhQk7gbg+0cG4nQE7h7tqm7uFp9nNmKYm4oBPTKcx016W9NQMrdHYDAYYHitE/ZbBTij64hdEmHU0AZq8ZsSBeHzTgQyIuR7HohaKkJjMstBBIwmtJtlON7WzlFq8ZsOBZFzg3DeOgzXnRC8fQdP9cLphc1x2/M80skQbNkAnJYRBJ9oZwMJv5nYSCH4536M3BTg/noJ86MHNLYv0WaE0OOAf9oDIArf3aRmVZPwm4VcAjN/kjD2sBveB1HMnjzgoq/C+Fo7ACDzQrv5ChJ+E1D4KYix9/rhezaM+eVFyAdsMFsL5fEqAEBooxifGzL3JyBZxrD4hhdLiXm4NBzgaUcGkQ+cmLkdQyqTQ7ld38ggeXsCzj9HAIiYPGHVziTNpsr2wnYztwdsFjc+vYt/VYec0NvS/ZBmodHd/BOYI6ztiiRq8QkNEGC/toqFGx64josoj166RNjH/Vj4MYXQaW3HNAbGGNO0RoJoAqjFJ7iEhE9wCQmf4JJ9rdUxGAyNsoMgNIVafIJLSPgEl5DwCS4h4b8CQ0NDepugOjz4CKggfFb6RvYAHkNDQ7rbQD7u71BN+ATRCpDwCS4h4RNcQsInuISET3AJCZ/gEhI+wSUkfIJLSPgEl5DwCS4h4RNcQsInuISET3AJCZ/gEhI+wSUkfIJLSPgEl5DwCS5pauGXNwnb4zGzorcHr8CGguS9IHznRzAodlb50YFuaRBjF4OIPsnpbeUeSWBmT89wBgmVLNpW+MmrvcWKexHQcrdpHsklEHB0o+O1TvTaxzDzVQSxFaXqggxSyzEEr45h+K129P81jNSGbtYeGLYRfhKxcLJ87v9GrXeOAABsKIjfTiFT5+WJL52Qzoeh1L6U2IXfC38lCv8jwPavecgCkLm+iJh2WxNtobw73isc2YhLH2P3jRm2cT9CsTWks/mKT8/zSKcW4a/aCC5zy4mZe60a9siI1/08vRBVsuIl4RcQ+3oWGdhgH3DBdsEKZIKIJXRS/qtSSGBuOrh5Lrhh7dLXnPowwvxRCKu/rGPxugeOAQsEU9V2QG1GCG/b4LkTx8J4Zcv74L1Y3b0E8Xu2Cr8QR+xmBjhhh9QFWI87YUUGM/fjaAXpK7dk+IpjEvGiC7aj+tpTF6/b4b/mgLWmrQLsjqre7GEKaTXtOuBsEX7huyhmMoD9zPDmdi09Epw9AK5GEW925f8aRWAqunkueCD/RcONxLSi7XDlXDSDr70RG0uV8AuIPwwAsGPkD6Uu1QrJYQUQQORhc8eUyVsy5op9v+2KG9IRfe1Rg1y6MqS1ihbwsxNu46kIPxdD5CqAs07YXq9csBnuAHP3Ymha6f8chnyhmH3qkeHTeCMxTfg1Crk8fnHAd/oA9mgaUhZ+bjmCOQCuk9LWLrQU7tyMIvar1ubVQwGx6x5EiiX7RRfEA7RVbCGTQuzmJAbfGd6cUxEkyPeCsL9e80+blFnYO7ZOVHW8M4jB9ycQuB2DolXryhhjjGXZwtnae63aw1t3ld3uGs15PM9spfp7/GxVxao+/fRTFe9eIR22b7sXrOW0ny2pvLGvOj7GmVzHXr4AGAQLc91YY3kVrGCsotnNFv/nKEI3a78kkVuLTTZxkkP0mg+bQ1oB7mkXDmoAIH0UwOyUC/1C7WtbmkwKwXPdkC4nVM0kHgIA5WEIEQDur7M7TCSsY/4EgPsRxJ6oaM0rUliZg++r4oi2bxKukwc3zxH7pxODlnaY33Fi7oemHW3tgBHGk274w4tYVbLIP2dbJuiyyioWvnBBqnqpE1NuBFZUlD5j62z+BBjgZovZnbuI9Rs2BoDZblS2XoeuoU71NvEC8zxQq3OsoFWos4XneZZVVtnC53ZmLv/OIpMT6viri48lsnEm91XpaXyR7SLJPVG+dzlG/nhp97iqdN3xebb+8k10EH7+gYcJpXpPVGxSE11FwRjLRqt8Vmk8o7eP+Zi34iNkFm/w/Us6PaQshxEF4Dnej12TIV0S7CcAPJxDRPcVm0nMTQWKU/ZWyFNOLnLaphNuyMeLhUd+RH/Q1RxVMFr7MVIurSGt0rqMNvNflsD+Us+lZriiDM2wBCx3bw6TpbX2o5Nw9R2g/OWuHMbh8jAmg3Q6Bxy0+VujsaoBLqDwQp1qmvpDlG2pXogGK/x/d+CgJzq44mcFyXKhF2aV5itaTvjVC9GEcRmuHn3t0ZRf44jdLRWsML9xwFp7AMpyBLFSYdwKi0r1tJbwN2KYKy1Egw3yBVuLd/QZRC5MIrhSTyCrIHzBjVJfhx4npJZ46RMIvB9A7OfaqcnCowAmPig9XwHeUUm959uIETI0yuqsXhPL9Qi1slAq0PiMRyUlKxyzMfcXCyyeSrNslWP57Dpbjcwy14CwZRbX/XWjE32bNN7Hyqyt+YSb+cNLbC2drXp226Vr1cvUle/fkJtoIfxnIWYv12Nj84/Vq2on1BT+qxzidFy1l15N4dd9dLnYgtJgM4qU6miRUGfrQjTrtA/Olvi6qhZGmEUHLPWOzgUJnvAaYpfE3VPPTYUA82j9yWbzqB/xxDzsb6pnEYAWCXWqF6LBzkLP1KmmFupN7uRZNrXEQl94mOu4xMSu6tZPZNJZD5sNx1lag9hONR9/W2erkXnmHbczacBSNUklMMuAxFwfz7PFlDrhWzWl37VN5feqMXS5sMiaYQZBLYwwvS3B8bYEx4d626ISR8ywnnLBeqo5nmOLhDoE0VhI+ASXkPAJLiHhE1xCwie4hIRPcAkJn+ASEj7BJSR8gktI+ASXkPAJLiHhE1xCwie4hIRPcAkJn+ASEj7BJYbiVyl7+2ODYUt5aGgIQ0ND+zaKINTi22+/BdBg4QPAPm7X9Hz22Wf45JNP9DZDVQ66jyXNUqhDcAkJn+ASEj7BJSR8gktI+ASXkPAJLiHhE1xCwie4hIRPcAkJn+ASEj7BJSR8gktI+ASXkPAJLiHhE1xCwie4hIRPcAkJn+CS1hf+RgIzogEGw+Yxs6K3QXuj8DSJ6O05TJ4bxOA7HWV/DG/1Y/D9CQRuJ5CpvTl46/Aih9RyGIHzIxiUutFR8tfQgW5pDOEnKtffiK0TofZ2nzuyzkJnhC31ywn1alNjK8x8cpY5jgk7b3ZcfQgS80TU2O+7gnpbmpbIsrWwh0nC7r6q9RxL92/hFr+AxGUnnLcyehuyL3KpGML/qdOHTAwBez+ctxV1jVKLjSQCf7Kg2xFATOfHVhR+AjOGSrhQfXS8M4ixy2Ekmkxfym0X7FMJAAKEencGb2YECxwfz2MhuY7sbwyMFY/f0liLyrCVfcwgfCGA6K96GrsXFITP2zD5TUlIAiynZYQSW/3N/7KGxS9cMKm9A/NmBxBncs1u1sEWnm3fbVQfWpBPyEws1idOx9nidOuGOuk7Hua5EWfp5zUuVELMURUe2MPphtvCmFqhTp6tXhG3hGzeB+rvYr4d2D7UkRFnVa0NY8j/sor5MwKQCUO+m1T5NayDp2G4TvmQACCcCSF0SUS73jbtA2HUD/9ZEUKtFu5NByYvWMvFyJMWCneehOD7e6JYECHfW4R83KSrSTVjfONRK1znJwAAyQ2d0wobCcycdiKcAdAnI3LdAbO+FmlKx+ut6G0BsRs+RIsl8docvH1GXS0C6kxnFn7LAgBcxyyqGrM7CsLn7fCtABAcCN32QjyiozlEfRTiiP6jFNe7MHnGuuvlWlFzCJH7KQL/VADCmRC8p/TqnqozOCLke0E43tTJFB1RnsTL5/auFmn9f4ghUDoft0M6qqcxFV5q8X3ofymr024ZwUzOjcBFm25hRXUGxxEONUVXqTmFGBavl1pOG2zvtUYqS0klyud20QLTixxS94OYPDeI/rcMWyfqzk0ieF9BTgvDNse6dWR1ACZ+uMjWtxkhQ8WsTvaBd0sGJ7/NNfEWzurUx9asiPDx0ra/QyNotI/xS5VnI51xMVtXbZ0JA1629EtDzShTqqNmVoexPLKpRcgnBSS+HMbETe2yCYWVGdj+OLMlg8NhW4/CSgDuUlZEcCN4UWqR3yED5adKKXYriGgdSxEyyzMYfMeJ8FPVDKtncGuE6W0bvNdkSACi9xPQZC6rKm3JYwanROFRACOl3wEi5Ht+2JokTn5ldpqke55HVolj/iMJlXm6MJwXw6pprf4lC13dEAHgOwVplYypkEFkqpK2jD/kNIPzNAzXiUlEM8BBGN94764h9LkL9h4zTNXPs80I05siXNeWEA87KuK/60fokTq21C/8R/HNXOxxCzrUsWULhdKUwYoP/a9tv5yidPRPVf7OV7VS0/C+ei2G2hR+CsIpFl9+CHCE4widbu0+73AdyxDMp2XIJ0qlJFYfq/MEawt/IwdlJYiJ8UkkIcA9WtUdEapQeBTAyMBYUfRmuO60ruiNr9xBmdH7h4rCYk/UiS9eegd96Df4drxYnI7Af1LfqeaDTu6hrzygB0S4vw5h9mRrih4QYLYIQLHfXXuWAfpqN5um1/sBRAAAmRfqrBao3eJ3iZDOyggl0ohrllUR4LjzcnZp5yM+XflLOVH13+44Wqh3KiB1cwy9JdELEuTvoi0s+k3Mx0bK5+Hv11CPjDOPI+VztSbqisIX4d1JWI/jWLrhhaOON5XYKznEpoYhnQtCAYAuF0KJJXj/p/V7V5MowVUqXA3XsZw6ifg3pXMBvWZ1dNfCH6IcEIofZwxejiEDQBiQEf9+/uAsyTgqwT5eEm8Q7gthKC92uriAxGU3JkuZnJ5J2PrUMYuEryspzB3vLX+cYT4bQvyBF2LrN/RVmGC7IMNWLGVuOdH/x0kEVxTkynFPAbmnMcx9MFxcmgIAAjyfu6HWkjYSvq7kkKv6OF656UTnf+2eut1ytEq6tsuF2ar8fGY5gDGxE+2HS74cRrt5EBP/jhX9EWC7FoV8XL0RJQmf0ATz6RBSD7yQaoXsggRPJI7Fj6yqJlJI+IRmmI7LWFLSiIf9cI9KsJRfAjPEUTf84TjSyhL8p9TPZKn9Sa8miJcY2CW9rdgLm9k0r95maIlRgHjaA/G0R1czqMUnuISET3AJCZ/gEhI+wSUkfIJLSPgEl5DwCS4h4RNcQsInuISET3AJCZ/gEhI+wSUkfIJLSPgEl5DwCS4h4RNcYij+r5P39scGw5by0NAQhoaG9m0UQajFt99+C6DBwgeAfdyu6fnss8/wySef6G2Gqhx0H0uapVCH4BISPsElJHyCS0j4BJeQ8AkuIeETXELCJ7iEhE9wCQmf4BISPsElJHyCS0j4BJeQ8AkuIeETXELCJ7iEhE9wCQmf4BISPsElrSv8H2bQYTDAYBhB+Ge9jWkQOQXRm5MY+2M/Okt72XZ0Y/D9CQRuJ5DZcUfw1iH3UxTBi2MYFDsr+/UWffTdjELJaWQI2wcAfndoQ5YtfiwU67Sz0DNtav30009VunOerd1wMfM2v+eWo8vOZr/PqmTDJqr5+Euc+UfNu/sHMMDMXDfWWF4dK8r1tFSLX8jloDyKIPB+L4avtsSe3nVQQOKyhO5zQSi1Ln0SwcR7NsysFLQwrHE8jWBM7Mfk3ZoeAlAQPNcN6XICanrZEsJPXN7sEg+3t6PTOlLnD9gaKLddsE8liiUB0kfziCtZ5BkDYwwsn8Va1A97V+kvEvCdciHSMuFdDtHP3Qg+KRYFCZ4bS1hL5zf9K/q4npiHZ6Cy7XliyoO5Ryqa1YhuAyqHOvHp3brGFg518kvMK5T8EJgjvL7ztb/FmdxX8ds6HVclHGi4j4/nmVR+VjY2m9rt4nUWOiOUfRSurDbWFrZbqJNJIHx1AiNVg49OcRBjF4OI/qTVyIMPcg8jmClFbCdkyKd32cr+iAjvrXnYisXk1ALiLRDxFJQUYqXCuBvOt3e72gzHhUlYi6VMMgW1Atoq4ReQ/HIEnR39cF6cQ2SlEk4oKzEEr45h2NKOTlsQKZWM2QnxEqt0i4yBsTRCoxoboQKpR3Plc+mUhF1kv0nXMJxlvwOI/aCSYQ2kUKh6O4+2w1TrD452VH6HoyYY1TGrInzltgu2v0agQITriyWsZysxWD67jnhYhr0LUO5nQO1+4zEdOVzHVQIsorVcSinNP9YxvWEut+D49wJiGzX+4OkaIsVT23uW2i/KHtkU/s9hTDrCyECEnIhh/kMJZlPlXTOazBBPe7GQSmPxknpvIVGbDqHSL0SetkBmq8eJyVIvlQnA+ScfojuaXUDs6+DmqeCBZ7RmH7hnDgFA8q4fEQDitTl4+3aRdZsA27S78gYT+8J4pPJLRpJrqqbv9EOA4/oSvH2bpczyDIY7OjF8fu6lMWMBqX+74LyaASBCvidDOqKeVYcABanvkgAkuE6SpLXE0mNDOYF31YdAq+Xn6+WoBPnhGkIfSUV/FUS/msCwpR2Gt4YxMRXA5Pvd6P4gjEyXHbPfR3dvgBvAISAD5R4ASOjuqnU50UiMAyOY7CuVEvCJ3Ri5GkUqk9vS+hdyGaRWIpg7P4x+R2SbO7UARyyQTkroFV769ydRzF2eROCuAkCE94s5uN5VK7Kv0BITWAcXK9xf+iGVxaAgcnEY3R3tOFxax2Iw4HB7B7rFEUx8Fa09u9uMbKQQPNeJDsmHKGzwf58Fe57HeiIE/7gNlrL/CczYOmCWfIj9qq5JJHydMb7rweLyPFx19LbCMQc841K5LAkvN5/NiILweQljNxUAdoQSi/C8awLajDD3OeC5voi1Z1msRuTy7HRmeQaD7zgRfqqeVYcAAeZTABDD2pNalxNqYHzbhflUFmvRWbhHJYhVL4FwTIJ93I9QIg3lxxBGOsrTQbAI7TpY+2rkvgnAc2szjWP7lx+ON7e5qM0E6ykvFlLrCJ0pvsyZMJzn61i/tEcOAWZY/mAFEMPcvaRK1RA1aTPBcsKN2TtLiD+uTNalf1zCwnUPHH0CjFCw9l3pDyRYLerHwvsjg+itueLsqwT7QI30ZJsZjutBuEvl+2HEVGqMDwGA9aQbNgDJi+7dV/69yCA6NQd6PXTiSQyRh8XzHht6mz4ZoUC5Wzo34XA9iZojvegvz07HkFLUyXRtxvhdTshXRGzJLPxaqbCQU5C8F8CIpQPDl3MHNN/c7BSQ+N85RIsl21/tLTafkkN+D8LZsuShgRQHt0ZY/xZF/IoEoZRZ+O/DVVmFTvTaJxF5AphHzWiFIdVBo7ASgOdysa8V3HCfVG9Ws3EYYewpnccQWa4jYt9YRbzcS1hhfkOdcK4qq2OC+LclpB4vYv5jF6S+yg9r7rPD/XkIS4+zWL/jqL2Yimgomfs+DJ/yobRq3/65B7ajuppUJ1ZIjkq/FP3AiZn/222lVw6Jf8ooL93rcULq2eXy/dCItc1QeT3+70mz0OgBWI9fJH3Hwzw34mz9t8q/5bNpthYLMfmlz/WEMyG2y6r9fdNwH58tMIew9dNC++eLbC1d9TVBPsvWEy/7KjD3143/zLJ8/4bcRNcPUbY7ZBZXwQ7VhB+21+WX+OGiqqJnTB0fsw+8THyl5ycw6Yo6H9qU6qAJrFagyw5/LI34F7aWDDNNx2VEv5+t+nxyFwQJnkgcS38TVV0F3KbivYk6MQq9sA+kEF8ufXEkwDLQjf537ZDsI7D3CS2/FNz0rhsLKSdSDxcQ+iaKxHdxxP5TXJ/cJUKy9sJ2ygnnKRGCBs62hPDFSwzskt5WqIdpwIuFAa/eZqhPmwmWEy7IJ1x6W0JrdQg+IeETXELCJ7iEhE9wCQmf4BISPsElJHyCS0j4BJeQ8AkuIeETXELCJ7iEhE9wCQmf4BISPsElJHyCS0j4BJ804vtFXo6hoSHdbSAfG3NQi09wyf8DtFbtlC9YYzsAAAAASUVORK5CYII=;" vertex="1" parent="1">
          <mxGeometry x="1440" y="961" width="190" height="208" as="geometry" />
        </mxCell>
        <mxCell id="Kt9OW5PYxR4Jgx1hHl5N-45" value="" style="verticalLabelPosition=bottom;verticalAlign=top;html=1;shape=mxgraph.basic.patternFillRect;fillStyle=diag;step=5;fillStrokeWidth=0.2;fillStrokeColor=#dddddd;fillColor=#d5e8d4;strokeColor=none;opacity=50;" vertex="1" parent="1">
          <mxGeometry x="-220" y="-136" width="55" height="60" as="geometry" />
        </mxCell>
        <mxCell id="Kt9OW5PYxR4Jgx1hHl5N-46" value="" style="verticalLabelPosition=bottom;verticalAlign=top;html=1;shape=mxgraph.basic.patternFillRect;fillStyle=diag;step=5;fillStrokeWidth=0.2;fillStrokeColor=#dddddd;fillColor=#d5e8d4;strokeColor=none;opacity=50;" vertex="1" parent="1">
          <mxGeometry x="116" y="-136" width="55" height="60" as="geometry" />
        </mxCell>
        <mxCell id="Kt9OW5PYxR4Jgx1hHl5N-47" value="" style="verticalLabelPosition=bottom;verticalAlign=top;html=1;shape=mxgraph.basic.patternFillRect;fillStyle=diag;step=5;fillStrokeWidth=0.2;fillStrokeColor=#dddddd;fillColor=#d5e8d4;strokeColor=none;opacity=50;" vertex="1" parent="1">
          <mxGeometry x="453" y="-136" width="55" height="60" as="geometry" />
        </mxCell>
        <mxCell id="Kt9OW5PYxR4Jgx1hHl5N-48" value="" style="verticalLabelPosition=bottom;verticalAlign=top;html=1;shape=mxgraph.basic.patternFillRect;fillStyle=diag;step=5;fillStrokeWidth=0.2;fillStrokeColor=#dddddd;fillColor=#d5e8d4;strokeColor=none;opacity=50;" vertex="1" parent="1">
          <mxGeometry x="452" y="144" width="55" height="60" as="geometry" />
        </mxCell>
        <mxCell id="Kt9OW5PYxR4Jgx1hHl5N-49" value="" style="verticalLabelPosition=bottom;verticalAlign=top;html=1;shape=mxgraph.basic.patternFillRect;fillStyle=diag;step=5;fillStrokeWidth=0.2;fillStrokeColor=#dddddd;fillColor=#d5e8d4;strokeColor=none;opacity=50;" vertex="1" parent="1">
          <mxGeometry x="676" y="-75" width="55" height="60" as="geometry" />
        </mxCell>
        <mxCell id="Kt9OW5PYxR4Jgx1hHl5N-50" value="" style="verticalLabelPosition=bottom;verticalAlign=top;html=1;shape=mxgraph.basic.patternFillRect;fillStyle=diag;step=5;fillStrokeWidth=0.2;fillStrokeColor=#dddddd;fillColor=#d5e8d4;strokeColor=none;opacity=50;" vertex="1" parent="1">
          <mxGeometry x="676" y="205" width="55" height="60" as="geometry" />
        </mxCell>
        <mxCell id="Kt9OW5PYxR4Jgx1hHl5N-51" value="" style="verticalLabelPosition=bottom;verticalAlign=top;html=1;shape=mxgraph.basic.patternFillRect;fillStyle=diag;step=5;fillStrokeWidth=0.2;fillStrokeColor=#dddddd;fillColor=#d5e8d4;strokeColor=none;opacity=50;" vertex="1" parent="1">
          <mxGeometry x="116" y="424" width="55" height="60" as="geometry" />
        </mxCell>
        <mxCell id="Kt9OW5PYxR4Jgx1hHl5N-52" value="" style="verticalLabelPosition=bottom;verticalAlign=top;html=1;shape=mxgraph.basic.patternFillRect;fillStyle=diag;step=5;fillStrokeWidth=0.2;fillStrokeColor=#dddddd;fillColor=#d5e8d4;strokeColor=none;opacity=50;" vertex="1" parent="1">
          <mxGeometry x="452" y="424" width="55" height="60" as="geometry" />
        </mxCell>
        <mxCell id="Kt9OW5PYxR4Jgx1hHl5N-53" value="" style="verticalLabelPosition=bottom;verticalAlign=top;html=1;shape=mxgraph.basic.patternFillRect;fillStyle=diag;step=5;fillStrokeWidth=0.2;fillStrokeColor=#dddddd;fillColor=#d5e8d4;strokeColor=none;opacity=50;" vertex="1" parent="1">
          <mxGeometry x="453" y="704" width="55" height="60" as="geometry" />
        </mxCell>
        <mxCell id="Kt9OW5PYxR4Jgx1hHl5N-54" value="" style="verticalLabelPosition=bottom;verticalAlign=top;html=1;shape=mxgraph.basic.patternFillRect;fillStyle=diag;step=5;fillStrokeWidth=0.2;fillStrokeColor=#dddddd;fillColor=#d5e8d4;strokeColor=none;opacity=50;" vertex="1" parent="1">
          <mxGeometry x="676" y="485" width="55" height="60" as="geometry" />
        </mxCell>
        <mxCell id="Kt9OW5PYxR4Jgx1hHl5N-55" value="" style="verticalLabelPosition=bottom;verticalAlign=top;html=1;shape=mxgraph.basic.patternFillRect;fillStyle=diag;step=5;fillStrokeWidth=0.2;fillStrokeColor=#dddddd;fillColor=#d5e8d4;strokeColor=none;opacity=50;" vertex="1" parent="1">
          <mxGeometry x="676" y="765" width="55" height="60" as="geometry" />
        </mxCell>
        <mxCell id="Kt9OW5PYxR4Jgx1hHl5N-56" value="" style="verticalLabelPosition=bottom;verticalAlign=top;html=1;shape=mxgraph.basic.patternFillRect;fillStyle=diag;step=5;fillStrokeWidth=0.2;fillStrokeColor=#dddddd;fillColor=#d5e8d4;strokeColor=none;opacity=50;" vertex="1" parent="1">
          <mxGeometry x="116" y="985" width="55" height="60" as="geometry" />
        </mxCell>
        <mxCell id="Kt9OW5PYxR4Jgx1hHl5N-57" value="" style="verticalLabelPosition=bottom;verticalAlign=top;html=1;shape=mxgraph.basic.patternFillRect;fillStyle=diag;step=5;fillStrokeWidth=0.2;fillStrokeColor=#dddddd;fillColor=#d5e8d4;strokeColor=none;opacity=50;" vertex="1" parent="1">
          <mxGeometry x="453" y="985" width="55" height="60" as="geometry" />
        </mxCell>
        <mxCell id="Kt9OW5PYxR4Jgx1hHl5N-58" value="" style="verticalLabelPosition=bottom;verticalAlign=top;html=1;shape=mxgraph.basic.patternFillRect;fillStyle=diag;step=5;fillStrokeWidth=0.2;fillStrokeColor=#dddddd;fillColor=#d5e8d4;strokeColor=none;opacity=50;" vertex="1" parent="1">
          <mxGeometry x="676" y="1045" width="55" height="60" as="geometry" />
        </mxCell>
        <mxCell id="Kt9OW5PYxR4Jgx1hHl5N-59" value="" style="verticalLabelPosition=bottom;verticalAlign=top;html=1;shape=mxgraph.basic.patternFillRect;fillStyle=diag;step=5;fillStrokeWidth=0.2;fillStrokeColor=#dddddd;fillColor=#d5e8d4;strokeColor=none;opacity=50;" vertex="1" parent="1">
          <mxGeometry x="956" y="1106" width="55" height="60" as="geometry" />
        </mxCell>
        <mxCell id="Kt9OW5PYxR4Jgx1hHl5N-60" value="" style="verticalLabelPosition=bottom;verticalAlign=top;html=1;shape=mxgraph.basic.patternFillRect;fillStyle=diag;step=5;fillStrokeWidth=0.2;fillStrokeColor=#dddddd;fillColor=#d5e8d4;strokeColor=none;opacity=50;" vertex="1" parent="1">
          <mxGeometry x="1293" y="1107" width="55" height="60" as="geometry" />
        </mxCell>
        <mxCell id="Kt9OW5PYxR4Jgx1hHl5N-61" value="" style="verticalLabelPosition=bottom;verticalAlign=top;html=1;shape=mxgraph.basic.patternFillRect;fillStyle=diagGrid;step=5;fillStrokeWidth=0.2;fillStrokeColor=#dddddd;fillColor=#f8cecc;strokeColor=#b85450;opacity=50;" vertex="1" parent="1">
          <mxGeometry x="956" y="-15" width="56" height="61" as="geometry" />
        </mxCell>
        <mxCell id="Kt9OW5PYxR4Jgx1hHl5N-62" value="" style="verticalLabelPosition=bottom;verticalAlign=top;html=1;shape=mxgraph.basic.patternFillRect;fillStyle=diagGrid;step=5;fillStrokeWidth=0.2;fillStrokeColor=#dddddd;fillColor=#f8cecc;strokeColor=#b85450;opacity=50;" vertex="1" parent="1">
          <mxGeometry x="956" y="265" width="56" height="61" as="geometry" />
        </mxCell>
        <mxCell id="Kt9OW5PYxR4Jgx1hHl5N-63" value="" style="verticalLabelPosition=bottom;verticalAlign=top;html=1;shape=mxgraph.basic.patternFillRect;fillStyle=diagGrid;step=5;fillStrokeWidth=0.2;fillStrokeColor=#dddddd;fillColor=#f8cecc;strokeColor=#b85450;opacity=50;" vertex="1" parent="1">
          <mxGeometry x="956" y="545" width="56" height="61" as="geometry" />
        </mxCell>
        <mxCell id="Kt9OW5PYxR4Jgx1hHl5N-64" value="" style="verticalLabelPosition=bottom;verticalAlign=top;html=1;shape=mxgraph.basic.patternFillRect;fillStyle=diagGrid;step=5;fillStrokeWidth=0.2;fillStrokeColor=#dddddd;fillColor=#f8cecc;strokeColor=#b85450;opacity=50;" vertex="1" parent="1">
          <mxGeometry x="956" y="825" width="56" height="61" as="geometry" />
        </mxCell>
      </root>
    </mxGraphModel>
  </diagram>
</mxfile>
